<svg xmlns="http://www.w3.org/2000/svg" xmlns:xlink="http://www.w3.org/1999/xlink" viewBox="0 0 291.1 191.7"><defs><style>.a{fill:none;}.b{fill:url(#a);}.c{fill:#fff;}.d{fill:#231f20;}.e{fill:url(#b);}.f{clip-path:url(#c);}.g{fill:#7a4a53;}.h{fill:#ca4f1b;}.i{fill:url(#d);}.j{fill:url(#g);}.k{fill:url(#ae);}.l{fill:url(#bl);}</style><linearGradient id="a" x1="-464.36" y1="105.49" x2="-616.34" y2="238.97" gradientTransform="translate(-471.5 63.1) rotate(-159.9)" gradientUnits="userSpaceOnUse"><stop offset="0.01" stop-color="#7a4a53"/><stop offset="1" stop-color="#040000"/></linearGradient><linearGradient id="b" x1="-530.59" y1="240.83" x2="-598.09" y2="152.83" xlink:href="#a"/><clipPath id="c"><path class="a" d="M125.7,5.3l-2.1,2.8a38.1,38.1,0,0,0-7.4,17.7,40,40,0,0,0,8.1,31.1c7.9,10.2,18.5,18.2,27.5,27.5s10.4,25.5-.3,34.9c-6,5.4-11.3,7.6-19.5,6.5a38.9,38.9,0,0,1-7.3-1.8,39.7,39.7,0,0,1-10.8-13.4,40.6,40.6,0,0,1,9.2-48.4C108.3,44.6,110.4,14.9,125.7,5.3Z"/></clipPath><radialGradient id="d" cx="-550.4" cy="136.59" r="72.83" gradientTransform="translate(-445.1 106.4) rotate(-168)" gradientUnits="userSpaceOnUse"><stop offset="0" stop-color="#3ec7f4"/><stop offset="1" stop-color="#007ec6"/></radialGradient><radialGradient id="g" cx="-550.4" cy="136.59" r="72.83" xlink:href="#d"/><radialGradient id="ae" cx="-556.81" cy="158.43" r="81.6" gradientTransform="translate(-445.1 106.4) rotate(-168)" gradientUnits="userSpaceOnUse"><stop offset="0.12" stop-color="#3ec7f4"/><stop offset="1" stop-color="#97daf8"/></radialGradient><radialGradient id="bl" cx="133.72" cy="305.42" r="304.88" gradientTransform="matrix(1, 0, 0, -1, 0, 199.19)" gradientUnits="userSpaceOnUse"><stop offset="0.18" stop-color="#7a4a53"/><stop offset="1" stop-color="#040000"/></radialGradient></defs><title>Barayamal_Stacked-Standard</title><path class="a" d="M185.3,30.2c-1.5,1.5-5.4-.8-.8,4.5a15.3,15.3,0,0,1,3.9,11,128.4,128.4,0,0,1-11.9-8.4c-3.6-2.9-5-5-4.8-7.5l.6.4c8.4,4.6,11.7-5.1,11.7-5.1a2.8,2.8,0,0,1,.1-.6C185.8,26.8,186.2,29.3,185.3,30.2Z"/><path class="b" d="M122.7,13.7a56.1,56.1,0,0,1,5.7-9.8,40.5,40.5,0,0,1,42,4.5h0c13.6,2.7,14.3,11,13.9,14.7-1.1-1.4-3.1-1.6-5.2-2.4a64.8,64.8,0,0,0-6.3-1.6c-2.2-.4-1.2-1-1.3-1a1,1,0,0,0-.8.9.9.9,0,0,0,.5,1c.1.1,4-1.5.9,5.3a14.3,14.3,0,0,0-1.3,3.8,25.9,25.9,0,0,1-5.6-5.8,13.7,13.7,0,0,0-9-5.7h0c-19-3.1-27.8,14.1-16.2,23.7,9.3,7.8,18,7.8,30.2,15.7a40.6,40.6,0,0,1-25.1,75.7,25.2,25.2,0,0,0,8.1-4.5c10.9-8.9,17.5-21.8,12.7-35.9-4.3-12.6-16-20.8-25.3-29.5S122,46.2,120.2,33.6A37.6,37.6,0,0,1,122.7,13.7Z"/><path class="c" d="M172.1,25.3c1.9-4.4-.8-7-.9-5.3s-.6-.6-.5-1,.3-.2.7-.3-2.2-1,.1-.6,4.2.1,8,1.7a13.2,13.2,0,0,1,4.8,3.3,4.6,4.6,0,0,1-.2,1.4,10.4,10.4,0,0,0-5-3.8,37.9,37.9,0,0,0-4.5-1.3,11,11,0,0,0-2.9-.3s3.6,1.8,1.3,6.6a11.3,11.3,0,0,0-1.3,4.1l-.9-.6A14.8,14.8,0,0,1,172.1,25.3Z"/><path class="d" d="M179.1,20.7c5.6,2,7.7,8,6.2,9.5s-5.4-.8-.8,4.5a15.3,15.3,0,0,1,3.9,11,128.4,128.4,0,0,1-11.9-8.4c-5.4-4.4-5.8-6.8-3.5-11.6s-1.3-6.6-1.3-6.6a11,11,0,0,1,2.9.3A44.2,44.2,0,0,1,179.1,20.7Z"/><path class="e" d="M125.7,5.3l-2.1,2.8a38.1,38.1,0,0,0-7.4,17.7,40,40,0,0,0,8.1,31.1c7.9,10.2,18.5,18.2,27.5,27.5s10.4,25.5-.3,34.9c-6,5.4-11.3,7.6-19.5,6.5a38.9,38.9,0,0,1-7.3-1.8,39.7,39.7,0,0,1-10.8-13.4,40.6,40.6,0,0,1,9.2-48.4C108.3,44.6,110.4,14.9,125.7,5.3Z"/><g class="f"><path class="g" d="M145.1,92.8a1.2,1.2,0,0,1-1.1-1.5,1.2,1.2,0,0,1,1.5-.9,1.3,1.3,0,0,1,1,1.4A1.3,1.3,0,0,1,145.1,92.8Z"/><path class="g" d="M145.2,96.5a1.3,1.3,0,0,1-1.4-1.2A1.2,1.2,0,0,1,145,94a1.3,1.3,0,0,1,.2,2.5Z"/><path class="g" d="M146.2,100a1.1,1.1,0,0,1-1.6-.7,1.2,1.2,0,1,1,2.3-.8A1.2,1.2,0,0,1,146.2,100Z"/><path class="g" d="M148,103.2a1.1,1.1,0,0,1-1.7-.3,1.3,1.3,0,0,1,.4-1.8,1.4,1.4,0,0,1,1.7.4A1.3,1.3,0,0,1,148,103.2Z"/><path class="g" d="M150.7,105.9a1.3,1.3,0,0,1-1.8.1,1.1,1.1,0,0,1,0-1.8,1.2,1.2,0,0,1,1.7-.1A1.5,1.5,0,0,1,150.7,105.9Z"/><path class="g" d="M153.8,107.7a1.1,1.1,0,0,1-1.7.6,1.2,1.2,0,0,1-.4-1.7,1.2,1.2,0,0,1,1.6-.5A1.3,1.3,0,0,1,153.8,107.7Z"/><path class="g" d="M157.4,108.8a1.3,1.3,0,0,1-1.6,1,1.2,1.2,0,0,1-.8-1.6,1.2,1.2,0,0,1,1.5-.8A1.2,1.2,0,0,1,157.4,108.8Z"/><path class="g" d="M161,108.9a1.1,1.1,0,0,1-1.2,1.3,1.1,1.1,0,0,1-1.2-1.2,1.4,1.4,0,0,1,1.2-1.3A1.3,1.3,0,0,1,161,108.9Z"/><path class="g" d="M164.7,108.2a1.2,1.2,0,0,1-.9,1.5,1.2,1.2,0,0,1-1.5-.9,1.3,1.3,0,0,1,.9-1.5A1.3,1.3,0,0,1,164.7,108.2Z"/><path class="g" d="M168,106.5a1.2,1.2,0,0,1-.5,1.7,1.2,1.2,0,0,1-1.7-.5,1.4,1.4,0,0,1,.5-1.7A1.5,1.5,0,0,1,168,106.5Z"/><path class="g" d="M170.7,104.1a1.4,1.4,0,0,1,.5.8,1.1,1.1,0,0,1-.5.9,1,1,0,0,1-1.7-.1,1.2,1.2,0,0,1,0-1.7,1.6,1.6,0,0,1,.9-.3A.9.9,0,0,1,170.7,104.1Z"/><path class="g" d="M172.8,101a1.2,1.2,0,0,1,.5,1.8,1.3,1.3,0,0,1-2.1-1.4A1.2,1.2,0,0,1,172.8,101Z"/><path class="g" d="M174.1,97.5a1.6,1.6,0,0,1,.8.6,1.7,1.7,0,0,1,.1,1,1.3,1.3,0,0,1-2.4-.7,1.1,1.1,0,0,1,.6-.7A1.3,1.3,0,0,1,174.1,97.5Z"/><path class="g" d="M174.5,93.9c.7-.1,1.2.5,1.2,1.3a1.2,1.2,0,0,1-1.3,1.1,1.4,1.4,0,0,1-1.2-1.3A1.2,1.2,0,0,1,174.5,93.9Z"/><path class="g" d="M173.9,90.2a1.1,1.1,0,0,1,1.5,1,1.1,1.1,0,0,1-1,1.4,1.2,1.2,0,0,1-1.4-.9A1.3,1.3,0,0,1,173.9,90.2Z"/><path class="g" d="M172.5,86.8a1.3,1.3,0,1,1,1,2.3,1.4,1.4,0,0,1-1.6-.6A1.4,1.4,0,0,1,172.5,86.8Z"/><path class="g" d="M170.2,83.9a1.2,1.2,0,1,1,1.6,1.9,1.2,1.2,0,0,1-1.6-1.9Z"/><path class="g" d="M167.3,81.6a1.3,1.3,0,1,1,2,1.5,1.4,1.4,0,0,1-1.7.2A1.4,1.4,0,0,1,167.3,81.6Z"/><path class="g" d="M163.9,80.1a1.2,1.2,0,0,1,1.6-.7,1.1,1.1,0,0,1,.7,1.6,1.2,1.2,0,0,1-2.3-.9Z"/><path class="g" d="M160.3,79.5a1.1,1.1,0,0,1,1.4-1.1,1.1,1.1,0,0,1,1,1.4,1.3,1.3,0,0,1-1.3,1.1A1.3,1.3,0,0,1,160.3,79.5Z"/><path class="g" d="M156.6,79.9a1.2,1.2,0,0,1,1.1-1.5,1.1,1.1,0,0,1,1.3,1.1,1.2,1.2,0,0,1-1,1.4A1.4,1.4,0,0,1,156.6,79.9Z"/><path class="g" d="M153.1,81.1a1.3,1.3,0,0,1,.7-1.7,1.2,1.2,0,0,1,1.6.8,1.2,1.2,0,0,1-.7,1.5A1.2,1.2,0,0,1,153.1,81.1Z"/><path class="g" d="M150,83.1a1.2,1.2,0,0,1,.3-1.7,1.1,1.1,0,0,1,1.7.3,1.2,1.2,0,0,1-.2,1.7A1.3,1.3,0,0,1,150,83.1Z"/><path class="g" d="M147.6,85.9a1.2,1.2,0,1,1,1.6-1.9,1.4,1.4,0,0,1,.1,1.7A1.2,1.2,0,0,1,147.6,85.9Z"/><path class="g" d="M145.9,89.2a1.2,1.2,0,0,1-.7-1.7,1.2,1.2,0,0,1,1.7-.5,1.1,1.1,0,0,1,.6,1.6A1.4,1.4,0,0,1,145.9,89.2Z"/><path class="g" d="M149,94.2a1.2,1.2,0,0,1-1.2-1.4,1.2,1.2,0,0,1,1.5-1,1.2,1.2,0,0,1,1,1.3A1.3,1.3,0,0,1,149,94.2Z"/><path class="g" d="M149.7,97.9a1.2,1.2,0,0,1-1.6-.9,1.6,1.6,0,0,1,.1-1,1.1,1.1,0,0,1,.9-.5,1,1,0,0,1,.9.2c.3.2.5.4.5.7A1.2,1.2,0,0,1,149.7,97.9Z"/><path class="g" d="M151.5,101.1a1.1,1.1,0,0,1-1.8-.3,1.3,1.3,0,0,1,.4-1.8,1.4,1.4,0,0,1,1.7.4A1.4,1.4,0,0,1,151.5,101.1Z"/><path class="g" d="M154.4,103.5a1.2,1.2,0,0,1-1.8.4,1.2,1.2,0,0,1-.2-1.8,1.2,1.2,0,0,1,1.7-.2A1.3,1.3,0,0,1,154.4,103.5Z"/><path class="g" d="M157.9,104.8a1.2,1.2,0,0,1-1.6.9,1.1,1.1,0,0,1-.8-1.6,1.3,1.3,0,0,1,1.5-.8A1.3,1.3,0,0,1,157.9,104.8Z"/><path class="g" d="M161.6,104.8a1.2,1.2,0,0,1-1.2,1.4c-.8,0-1.4-.5-1.3-1.2a1.3,1.3,0,0,1,2.5-.2Z"/><path class="g" d="M165.1,103.6a1.3,1.3,0,0,1-.6,1.7,1.2,1.2,0,0,1-1.7-.8,1.2,1.2,0,0,1,.7-1.5A1.3,1.3,0,0,1,165.1,103.6Z"/><path class="g" d="M168,101.2a1.3,1.3,0,0,1,0,1.8,1.4,1.4,0,0,1-1.9-.1,1.3,1.3,0,0,1,.1-1.7A1.4,1.4,0,0,1,168,101.2Z"/><path class="g" d="M169.8,97.9a1.1,1.1,0,0,1,.6,1.7,1.2,1.2,0,0,1-1.7.6,1.3,1.3,0,0,1-.5-1.7A1.4,1.4,0,0,1,169.8,97.9Z"/><path class="g" d="M170.5,94.3a1.2,1.2,0,1,1-.3,2.4,1.3,1.3,0,0,1-1.1-1.3A1.4,1.4,0,0,1,170.5,94.3Z"/><path class="g" d="M169.8,90.6a1.2,1.2,0,0,1,1.6.9,1.1,1.1,0,0,1-.2,1,.8.8,0,0,1-.8.5,1,1,0,0,1-.9-.2c-.3-.2-.5-.4-.5-.7A1.2,1.2,0,0,1,169.8,90.6Z"/><path class="g" d="M168,87.4a1.2,1.2,0,0,1,1.8.3,1.3,1.3,0,0,1-.5,1.8,1.2,1.2,0,0,1-1.6-.4A1.3,1.3,0,0,1,168,87.4Z"/><path class="g" d="M165.1,85a1.3,1.3,0,1,1,2,1.5,1.5,1.5,0,0,1-1.7.2A1.4,1.4,0,0,1,165.1,85Z"/><path class="g" d="M161.6,83.7a1.2,1.2,0,0,1,1.6-.9,1.1,1.1,0,0,1,.8,1.6,1.3,1.3,0,0,1-1.5.8A1.3,1.3,0,0,1,161.6,83.7Z"/><path class="g" d="M157.9,83.7a1.2,1.2,0,0,1,1.2-1.4c.7,0,1.4.5,1.3,1.2a1.3,1.3,0,0,1-2.5.2Z"/><path class="g" d="M154.4,84.9a1.2,1.2,0,0,1,.6-1.7,1.3,1.3,0,0,1,1.7.8,1.2,1.2,0,0,1-.7,1.5A1.2,1.2,0,0,1,154.4,84.9Z"/><path class="g" d="M151.5,87.3a1.2,1.2,0,1,1,1.7.1A1.4,1.4,0,0,1,151.5,87.3Z"/><path class="g" d="M149.7,90.6a1.2,1.2,0,0,1-.7-1.7,1.3,1.3,0,0,1,1.8-.6,1.6,1.6,0,0,1,.5,1.7A1.4,1.4,0,0,1,149.7,90.6Z"/><path class="g" d="M156.9,96.7a.9.9,0,0,1-1,.1,1.7,1.7,0,0,1-.9-.8,1.8,1.8,0,0,1,.1-1.3,1.2,1.2,0,0,1,.9-.5,1.8,1.8,0,0,1,1.4.9A1.8,1.8,0,0,1,156.9,96.7Z"/><path class="g" d="M160.4,97.9a1,1,0,0,1-.3,1,1.7,1.7,0,0,1-1.2.3,1.8,1.8,0,0,1-1.1-.7,1.2,1.2,0,0,1,.1-1,1.5,1.5,0,0,1,1.4-.8A1.9,1.9,0,0,1,160.4,97.9Z"/><path class="g" d="M163.3,95.5a1.2,1.2,0,0,1,.6.8,1.5,1.5,0,0,1-.3,1.2,1.4,1.4,0,0,1-1.1.5,1.1,1.1,0,0,1-.9-.5,1.5,1.5,0,0,1,.1-1.6A1.4,1.4,0,0,1,163.3,95.5Z"/><path class="g" d="M162.6,91.8a.9.9,0,0,1,1-.1,1.3,1.3,0,0,1,.8.8,1.5,1.5,0,0,1,0,1.3,1.2,1.2,0,0,1-.9.5,1.8,1.8,0,0,1-1.4-.9A1.8,1.8,0,0,1,162.6,91.8Z"/><path class="g" d="M159.1,90.6a1,1,0,0,1,.3-1,1.7,1.7,0,0,1,1.2-.3,1.3,1.3,0,0,1,1,.7.9.9,0,0,1,0,1,1.5,1.5,0,0,1-1.4.8A1.7,1.7,0,0,1,159.1,90.6Z"/><path class="g" d="M156.2,93a1.2,1.2,0,0,1-.6-.8,1.5,1.5,0,0,1,.3-1.2,1.8,1.8,0,0,1,1.1-.5,1.1,1.1,0,0,1,.9.5,1.5,1.5,0,0,1-.1,1.6A1.4,1.4,0,0,1,156.2,93Z"/><path class="g" d="M142.1,91.7a1.1,1.1,0,0,1-1-1.4,1.3,1.3,0,0,1,1.6-1,1.4,1.4,0,0,1,.9,1.5A1.3,1.3,0,0,1,142.1,91.7Z"/><path class="g" d="M142,95.5a1.1,1.1,0,0,1-.9-.4,1.3,1.3,0,0,1-.4-.9A1.2,1.2,0,0,1,142,93a1.2,1.2,0,0,1,1.2,1.2,1.6,1.6,0,0,1-.3.9A2.5,2.5,0,0,1,142,95.5Z"/><path class="g" d="M142.7,99.1a1.2,1.2,0,1,1,.9-1.4A1.3,1.3,0,0,1,142.7,99.1Z"/><path class="g" d="M144,102.6a1.4,1.4,0,0,1-1.7-.6,1.4,1.4,0,0,1,.7-1.7,1.3,1.3,0,0,1,1.6.6A1.3,1.3,0,0,1,144,102.6Z"/><path class="g" d="M146.1,105.7a1.3,1.3,0,1,1-1.4-2.1,1.2,1.2,0,0,1,1.6.4A1.3,1.3,0,0,1,146.1,105.7Z"/><path class="g" d="M148.8,108.2a1.2,1.2,0,1,1-1.9-1.6,1.4,1.4,0,0,1,1.8-.1A1.4,1.4,0,0,1,148.8,108.2Z"/><path class="g" d="M151.9,110.2a1.2,1.2,0,0,1-1.7.5,1.1,1.1,0,0,1-.4-1.7,1.4,1.4,0,0,1,1.7-.5A1.4,1.4,0,0,1,151.9,110.2Z"/><path class="g" d="M155.4,111.5a1.2,1.2,0,0,1-1.6.8,1.3,1.3,0,0,1-.8-1.6,1.4,1.4,0,0,1,1.6-.7A1.2,1.2,0,0,1,155.4,111.5Z"/><path class="g" d="M159.1,112a1.3,1.3,0,0,1-1.4,1.2,1.3,1.3,0,0,1-1.1-1.5,1.4,1.4,0,0,1,1.4-1A1.3,1.3,0,0,1,159.1,112Z"/><path class="g" d="M162.8,111.8a1.3,1.3,0,0,1-1.1,1.4,1.3,1.3,0,0,1-1.4-1.2,1.3,1.3,0,0,1,1.1-1.3A1.2,1.2,0,0,1,162.8,111.8Z"/><path class="g" d="M166.4,110.7a1.3,1.3,0,0,1-.8,1.7,1.3,1.3,0,0,1-1.6-.9,1.3,1.3,0,0,1,2.4-.8Z"/><path class="g" d="M169.7,109a1.3,1.3,0,0,1-.5,1.8,1.2,1.2,0,0,1-1.7-.6,1.2,1.2,0,0,1,.5-1.6A1.3,1.3,0,0,1,169.7,109Z"/><path class="g" d="M172.5,106.6a1.2,1.2,0,1,1-1.8,1.7,1.1,1.1,0,0,1,.1-1.7A1.2,1.2,0,0,1,172.5,106.6Z"/><path class="g" d="M174.8,103.7a1.3,1.3,0,1,1-1.5,2,1.4,1.4,0,0,1-.2-1.7A1.3,1.3,0,0,1,174.8,103.7Z"/><path class="g" d="M176.5,100.4a1.1,1.1,0,0,1,.6,1.6,1.2,1.2,0,0,1-1.7.6,1.2,1.2,0,1,1,1.1-2.2Z"/><path class="g" d="M177.3,96.8a1.1,1.1,0,0,1,1,1.4,1.1,1.1,0,0,1-1.5,1,1.4,1.4,0,0,1-.9-1.5A1.2,1.2,0,0,1,177.3,96.8Z"/><path class="g" d="M177.5,93a1.1,1.1,0,0,1,.9.4,1.3,1.3,0,0,1,.4.9,1.2,1.2,0,0,1-1.3,1.2,1.2,1.2,0,0,1-1.2-1.2,1.1,1.1,0,0,1,.3-.8A1.3,1.3,0,0,1,177.5,93Z"/><path class="g" d="M176.8,89.4a1.3,1.3,0,0,1,1.6.9,1.2,1.2,0,0,1-1,1.5,1.3,1.3,0,0,1-1.5-1A1.3,1.3,0,0,1,176.8,89.4Z"/><path class="g" d="M175.5,85.9a1.2,1.2,0,0,1,1.6.6,1.3,1.3,0,0,1-.6,1.7,1.3,1.3,0,0,1-1.6-.6A1.3,1.3,0,0,1,175.5,85.9Z"/><path class="g" d="M173.4,82.9a1.2,1.2,0,0,1,1.8.2,1.3,1.3,0,0,1-.4,1.8,1.4,1.4,0,0,1-1.7-.3A1.3,1.3,0,0,1,173.4,82.9Z"/><path class="g" d="M170.7,80.3a1.2,1.2,0,0,1,1.8-.2,1.3,1.3,0,0,1,.1,1.8,1.4,1.4,0,0,1-1.8.1A1.2,1.2,0,0,1,170.7,80.3Z"/><path class="g" d="M167.6,78.3a1.2,1.2,0,0,1,1.7-.5,1.2,1.2,0,0,1,.4,1.7,1.4,1.4,0,0,1-1.7.5A1.4,1.4,0,0,1,167.6,78.3Z"/><path class="g" d="M164.1,77c.1-.7.8-1,1.6-.8a1.1,1.1,0,0,1,.7,1.6,1.3,1.3,0,0,1-1.5.8A1.3,1.3,0,0,1,164.1,77Z"/><path class="g" d="M160.4,76.5a1.3,1.3,0,0,1,1.4-1.2,1.3,1.3,0,0,1,1.1,1.5,1.4,1.4,0,0,1-1.4,1A1.2,1.2,0,0,1,160.4,76.5Z"/><path class="g" d="M156.7,76.7a1.2,1.2,0,0,1,1.1-1.4,1.4,1.4,0,0,1,1.4,1.2,1.3,1.3,0,0,1-1.2,1.3A1.2,1.2,0,0,1,156.7,76.7Z"/><path class="g" d="M153.1,77.8a1.3,1.3,0,0,1,.8-1.7,1.3,1.3,0,0,1,1.6.9,1.3,1.3,0,0,1-2.4.8Z"/><path class="g" d="M149.8,79.5a1.2,1.2,0,0,1,.4-1.7,1.2,1.2,0,0,1,1.8.5,1.3,1.3,0,0,1-.5,1.6A1.3,1.3,0,0,1,149.8,79.5Z"/><path class="g" d="M147,81.9a1.2,1.2,0,1,1,1.8-1.7,1.2,1.2,0,0,1-.1,1.7A1.2,1.2,0,0,1,147,81.9Z"/><path class="g" d="M144.7,84.8a1.3,1.3,0,1,1,1.5-2,1.4,1.4,0,0,1,.2,1.7A1.3,1.3,0,0,1,144.7,84.8Z"/><path class="g" d="M143,88.1a1.1,1.1,0,0,1-.6-1.6,1.2,1.2,0,0,1,1.7-.6,1.2,1.2,0,1,1-1.1,2.2Z"/><path class="g" d="M134.7,89a1.2,1.2,0,1,1,.6-2.4,1.2,1.2,0,0,1,.8,1.5A1.1,1.1,0,0,1,134.7,89Z"/><path class="g" d="M134.2,92.8a1.4,1.4,0,0,1-1.2-1.4,1.2,1.2,0,0,1,1.4-1.1,1.2,1.2,0,0,1,1.1,1.3A1.3,1.3,0,0,1,134.2,92.8Z"/><path class="g" d="M134.2,96.5a1.3,1.3,0,0,1-.1-2.5,1.3,1.3,0,0,1,1.3,1.2A1.4,1.4,0,0,1,134.2,96.5Z"/><path class="g" d="M134.8,100.2a1.3,1.3,0,0,1-1.5-1,1.3,1.3,0,0,1,1.1-1.5,1.3,1.3,0,0,1,1.4,1A1.3,1.3,0,0,1,134.8,100.2Z"/><path class="g" d="M136,103.7a1.2,1.2,0,0,1-1.7-.7,1.3,1.3,0,0,1,2.4-.8A1.2,1.2,0,0,1,136,103.7Z"/><path class="g" d="M137.6,107.1a1.2,1.2,0,0,1-1.7-.5,1.2,1.2,0,0,1,.5-1.7,1.4,1.4,0,0,1,1.7.5A1.3,1.3,0,0,1,137.6,107.1Z"/><path class="g" d="M139.7,110.2a1.3,1.3,0,0,1-1.8-.3,1.3,1.3,0,0,1,2.1-1.4A1.4,1.4,0,0,1,139.7,110.2Z"/><path class="g" d="M142.2,113a1.2,1.2,0,0,1-1.8-.1,1.1,1.1,0,0,1,.1-1.7,1.1,1.1,0,0,1,1.7,0A1.3,1.3,0,0,1,142.2,113Z"/><path class="g" d="M145.2,115.3a1.3,1.3,0,0,1-1.8.3,1.2,1.2,0,0,1-.2-1.8,1.2,1.2,0,0,1,1.7-.2A1.4,1.4,0,0,1,145.2,115.3Z"/><path class="g" d="M148.4,117.2a1.2,1.2,0,0,1-1.7.5,1.1,1.1,0,0,1-.5-1.7,1.3,1.3,0,0,1,1.7-.5A1.4,1.4,0,0,1,148.4,117.2Z"/><path class="g" d="M151.8,118.6a1.2,1.2,0,0,1-1.6.8,1.3,1.3,0,0,1-.7-1.7,1.4,1.4,0,0,1,1.6-.7A1.3,1.3,0,0,1,151.8,118.6Z"/><path class="g" d="M155.5,119.5a1.3,1.3,0,0,1-1.5,1,1.2,1.2,0,0,1-1-1.5,1.4,1.4,0,0,1,1.5-1A1.4,1.4,0,0,1,155.5,119.5Z"/><path class="g" d="M159.2,119.9a1.3,1.3,0,0,1-1.4,1.2,1.2,1.2,0,0,1-1.1-1.4,1.2,1.2,0,0,1,1.3-1.1A1.3,1.3,0,0,1,159.2,119.9Z"/><path class="g" d="M162.9,119.7a1.1,1.1,0,0,1-1.1,1.3,1.2,1.2,0,0,1-1.4-1.1,1.2,1.2,0,0,1,1.2-1.3A1.2,1.2,0,0,1,162.9,119.7Z"/><path class="g" d="M166.6,118.9a1.3,1.3,0,0,1-.9,1.6,1.2,1.2,0,0,1-1.5-1,1.2,1.2,0,0,1,.9-1.5A1.4,1.4,0,0,1,166.6,118.9Z"/><path class="g" d="M170.1,117.7a1.2,1.2,0,0,1-2.3.9,1.2,1.2,0,1,1,2.3-.9Z"/><path class="g" d="M173.4,115.9a1.3,1.3,0,0,1-.4,1.8,1.3,1.3,0,0,1-1.8-.6,1.3,1.3,0,0,1,.5-1.6A1.3,1.3,0,0,1,173.4,115.9Z"/><path class="g" d="M176.4,113.7a1.2,1.2,0,0,1-.2,1.8,1.2,1.2,0,0,1-1.7-.3,1.2,1.2,0,1,1,1.9-1.5Z"/><path class="g" d="M179.1,111.1a1.2,1.2,0,0,1,0,1.8,1.3,1.3,0,0,1-1.8,0,1.5,1.5,0,0,1,0-1.8A1.4,1.4,0,0,1,179.1,111.1Z"/><path class="g" d="M181.3,108.1a1.2,1.2,0,0,1,.3,1.7,1.6,1.6,0,0,1-.8.6,1.4,1.4,0,0,1-.9-.3,1,1,0,0,1-.5-.8,1,1,0,0,1,.2-.9A1.2,1.2,0,0,1,181.3,108.1Z"/><path class="g" d="M183.1,104.8a1.3,1.3,0,0,1,.6,1.7,1.4,1.4,0,0,1-1.8.5,1.3,1.3,0,0,1-.5-1.7A1.4,1.4,0,0,1,183.1,104.8Z"/><path class="g" d="M184.4,101.3a1.3,1.3,0,0,1,.8,1.6,1.1,1.1,0,0,1-1.6.7,1.2,1.2,0,0,1-.8-1.5A1.2,1.2,0,0,1,184.4,101.3Z"/><path class="g" d="M185.1,97.6a1.3,1.3,0,0,1,1.1,1.5,1.3,1.3,0,1,1-2.5-.5A1.4,1.4,0,0,1,185.1,97.6Z"/><path class="g" d="M185.3,93.9a1.3,1.3,0,0,1,1.3,1.3,1.3,1.3,0,0,1-1.3,1.2,1.4,1.4,0,0,1-1.2-1.3A1.2,1.2,0,0,1,185.3,93.9Z"/><path class="g" d="M185,90.2a1.2,1.2,0,0,1,1,.2,1.9,1.9,0,0,1,.5.9,1.2,1.2,0,0,1-1.2,1.3,1.1,1.1,0,0,1-1.3-1.1c-.1-.3.1-.6.3-.9A.8.8,0,0,1,185,90.2Z"/><path class="g" d="M184.2,86.5a1.2,1.2,0,0,1,1.5.9,1.1,1.1,0,0,1-.9,1.5,1.2,1.2,0,0,1-1.5-.9A1.2,1.2,0,0,1,184.2,86.5Z"/><path class="g" d="M182.8,83a1.3,1.3,0,0,1,1,2.3,1.3,1.3,0,0,1-1.7-.6A1.5,1.5,0,0,1,182.8,83Z"/><path class="g" d="M180.9,79.8a1.3,1.3,0,0,1,1.8.4,1.2,1.2,0,0,1-.5,1.7,1.3,1.3,0,0,1-1.7-.4A1.3,1.3,0,0,1,180.9,79.8Z"/><path class="g" d="M178.6,76.9a1.1,1.1,0,0,1,1.7.1,1.3,1.3,0,0,1-.1,1.8,1.4,1.4,0,0,1-1.8-.2A1.3,1.3,0,0,1,178.6,76.9Z"/><path class="g" d="M175.8,74.3a1.3,1.3,0,0,1,1.8-.1,1.2,1.2,0,0,1,.1,1.8,1.2,1.2,0,0,1-1.7.1A1.4,1.4,0,0,1,175.8,74.3Z"/><path class="g" d="M172.8,72.2a1.2,1.2,0,0,1,1.7-.4,1.2,1.2,0,0,1,.3,1.8,1.2,1.2,0,0,1-2-1.4Z"/><path class="g" d="M169.4,70.5a1.3,1.3,0,0,1,1.7-.6,1.2,1.2,0,0,1,.6,1.7,1.5,1.5,0,0,1-1.7.6A1.4,1.4,0,0,1,169.4,70.5Z"/><path class="g" d="M165.9,69.4a1.1,1.1,0,0,1,1.5-.9,1.3,1.3,0,0,1,.9,1.6,1.4,1.4,0,0,1-1.6.8A1.2,1.2,0,0,1,165.9,69.4Z"/><path class="g" d="M162.2,68.8a1.2,1.2,0,0,1,1.4-1.1,1.2,1.2,0,0,1,1,1.4,1.2,1.2,0,0,1-1.4,1A1.1,1.1,0,0,1,162.2,68.8Z"/><path class="g" d="M158.4,68.6a1.2,1.2,0,0,1,1.3-1.2,1.1,1.1,0,0,1,1.2,1.2,1.3,1.3,0,0,1-1.2,1.3A1.4,1.4,0,0,1,158.4,68.6Z"/><path class="g" d="M154.7,69.1a1.3,1.3,0,0,1,1.1-1.4,1.2,1.2,0,0,1,1.4,1.1,1.1,1.1,0,0,1-1.1,1.3C155.5,70.3,154.9,69.8,154.7,69.1Z"/><path class="g" d="M151.1,70.1a1.2,1.2,0,0,1,.9-1.5,1.1,1.1,0,0,1,1.5.8,1.2,1.2,0,0,1-.8,1.5A1.2,1.2,0,0,1,151.1,70.1Z"/><path class="g" d="M147.7,71.7a1.3,1.3,0,0,1,.6-1.8,1.4,1.4,0,0,1,1.7.7,1.4,1.4,0,0,1-.7,1.6A1.2,1.2,0,0,1,147.7,71.7Z"/><path class="g" d="M144.5,73.6a1.2,1.2,0,0,1,.4-1.7,1.2,1.2,0,0,1,1.7.4,1.3,1.3,0,0,1-.3,1.7A1.4,1.4,0,0,1,144.5,73.6Z"/><path class="g" d="M141.7,76.1a1.2,1.2,0,0,1,.1-1.8,1.2,1.2,0,1,1-.1,1.8Z"/><path class="g" d="M139.2,78.9a1.3,1.3,0,0,1-.1-1.8,1.2,1.2,0,0,1,1.7-.1,1.2,1.2,0,0,1,.2,1.7A1.4,1.4,0,0,1,139.2,78.9Z"/><path class="g" d="M137.2,82a1.2,1.2,0,0,1-.4-1.7,1.2,1.2,0,0,1,1.7-.4,1.3,1.3,0,0,1,.4,1.7A1.2,1.2,0,0,1,137.2,82Z"/><path class="g" d="M135.7,85.4a1.1,1.1,0,0,1-.7-1.6,1.1,1.1,0,0,1,1.7-.6,1.2,1.2,0,0,1,.6,1.6A1.2,1.2,0,0,1,135.7,85.4Z"/><path class="g" d="M129.7,87.2a1.1,1.1,0,0,1-.9-1.5,1.2,1.2,0,1,1,.9,1.5Z"/><path class="g" d="M129,90.9a1.3,1.3,0,1,1,.4-2.5,1.3,1.3,0,0,1,1,1.4A1.2,1.2,0,0,1,129,90.9Z"/><path class="g" d="M128.9,94.6a1.3,1.3,0,0,1-1.3-1.3,1.2,1.2,0,0,1,1.3-1.2,1.3,1.3,0,0,1,1.2,1.3A1.2,1.2,0,0,1,128.9,94.6Z"/><path class="g" d="M129.1,98.3a1.2,1.2,0,1,1-.2-2.4,1.2,1.2,0,0,1,1.3,1.1A1.2,1.2,0,0,1,129.1,98.3Z"/><path class="g" d="M129.8,102a1.2,1.2,0,0,1-1.5-1,1.2,1.2,0,0,1,1-1.4,1.2,1.2,0,0,1,1.5.9A1.3,1.3,0,0,1,129.8,102Z"/><path class="g" d="M131,105.5a1.1,1.1,0,0,1-1.6-.7,1.2,1.2,0,1,1,2.3-.8A1.1,1.1,0,0,1,131,105.5Z"/><path class="g" d="M132.6,108.9a1.2,1.2,0,0,1-1.7-.5,1.1,1.1,0,0,1,.6-1.7,1.2,1.2,0,0,1,1.6.6A1.2,1.2,0,0,1,132.6,108.9Z"/><path class="g" d="M134.5,112.1a1.2,1.2,0,0,1-1.7-.4,1.2,1.2,0,0,1,.4-1.7,1.3,1.3,0,0,1,1.7.4A1.3,1.3,0,0,1,134.5,112.1Z"/><path class="g" d="M136.8,115a1.2,1.2,0,0,1-1.7-.1,1.2,1.2,0,0,1,.2-1.8,1.2,1.2,0,0,1,1.7.2A1.2,1.2,0,0,1,136.8,115Z"/><path class="g" d="M139.5,117.6a1.2,1.2,0,1,1-1.8-1.7,1.2,1.2,0,0,1,1.8,1.7Z"/><path class="g" d="M142.5,119.9a1.3,1.3,0,1,1-2-1.5,1.2,1.2,0,0,1,1.7-.2A1.2,1.2,0,0,1,142.5,119.9Z"/><path class="g" d="M145.7,121.8a1.3,1.3,0,0,1-1.7.5,1.3,1.3,0,0,1-.5-1.7,1.3,1.3,0,0,1,1.7-.5A1.3,1.3,0,0,1,145.7,121.8Z"/><path class="g" d="M149.1,123.3a1.3,1.3,0,0,1-1.6.7,1.3,1.3,0,0,1-.7-1.7,1.5,1.5,0,0,1,1.7-.7A1.5,1.5,0,0,1,149.1,123.3Z"/><path class="g" d="M152.7,124.3a1.1,1.1,0,0,1-1.5.9,1.2,1.2,0,1,1,1.5-.9Z"/><path class="g" d="M156.4,125a1.4,1.4,0,0,1-1.4,1.1,1.3,1.3,0,0,1-1.1-1.5,1.3,1.3,0,0,1,1.4-1A1.2,1.2,0,0,1,156.4,125Z"/><path class="g" d="M160.1,125.1a1.3,1.3,0,0,1-1.3,1.3,1.2,1.2,0,0,1-1.2-1.3,1.3,1.3,0,0,1,1.3-1.2A1.2,1.2,0,0,1,160.1,125.1Z"/><path class="g" d="M163.8,124.9a1.2,1.2,0,1,1-2.4.2,1.1,1.1,0,0,1,1.1-1.3A1.2,1.2,0,0,1,163.8,124.9Z"/><path class="g" d="M167.5,124.2a1.3,1.3,0,0,1-1,1.5,1.3,1.3,0,0,1-1.5-1,1.4,1.4,0,0,1,1-1.5A1.3,1.3,0,0,1,167.5,124.2Z"/><path class="g" d="M171,123a1.1,1.1,0,0,1-.7,1.6,1.2,1.2,0,0,1-1.6-.8,1.2,1.2,0,0,1,.8-1.5A1.2,1.2,0,0,1,171,123Z"/><path class="g" d="M174.4,121.4a1.2,1.2,0,0,1-.5,1.7,1.1,1.1,0,0,1-1.7-.6,1.2,1.2,0,0,1,.6-1.6A1.2,1.2,0,0,1,174.4,121.4Z"/><path class="g" d="M177.6,119.5a1.2,1.2,0,0,1-.4,1.7,1.2,1.2,0,0,1-1.7-.4,1.3,1.3,0,0,1,.4-1.7A1.3,1.3,0,0,1,177.6,119.5Z"/><path class="g" d="M180.5,117.1a1.3,1.3,0,0,1-.1,1.8,1.2,1.2,0,0,1-1.8-.2,1.2,1.2,0,0,1,1.9-1.6Z"/><path class="g" d="M183.1,114.5a1.2,1.2,0,1,1-1.7,1.8,1.2,1.2,0,0,1,1.7-1.8Z"/><path class="g" d="M185.4,111.5a1.3,1.3,0,1,1-1.5,2,1.2,1.2,0,0,1-.2-1.7A1.2,1.2,0,0,1,185.4,111.5Z"/><path class="g" d="M187.3,108.3a1.3,1.3,0,0,1,.5,1.7,1.3,1.3,0,0,1-1.7.5,1.3,1.3,0,0,1-.5-1.7A1.3,1.3,0,0,1,187.3,108.3Z"/><path class="g" d="M188.8,104.9a1.3,1.3,0,0,1,.7,1.6,1.3,1.3,0,0,1-1.7.7,1.5,1.5,0,0,1-.7-1.7A1.3,1.3,0,0,1,188.8,104.9Z"/><path class="g" d="M189.8,101.3a1.1,1.1,0,0,1,.9,1.5,1.3,1.3,0,0,1-1.6.9,1.2,1.2,0,0,1-.8-1.5A1.2,1.2,0,0,1,189.8,101.3Z"/><path class="g" d="M190.5,97.6a1.4,1.4,0,0,1,1.1,1.4,1.3,1.3,0,0,1-1.5,1.1,1.3,1.3,0,0,1-1-1.4A1.2,1.2,0,0,1,190.5,97.6Z"/><path class="g" d="M190.6,93.9a1.3,1.3,0,0,1,1.3,1.3,1.3,1.3,0,1,1-2.5-.1A1.2,1.2,0,0,1,190.6,93.9Z"/><path class="g" d="M190.4,90.2a1.2,1.2,0,1,1-1.1,1.3A1.2,1.2,0,0,1,190.4,90.2Z"/><path class="g" d="M189.7,86.5a1.2,1.2,0,0,1,1.5,1,1.2,1.2,0,0,1-1,1.4,1.2,1.2,0,0,1-1.5-.9A1.3,1.3,0,0,1,189.7,86.5Z"/><path class="g" d="M188.5,83a1.1,1.1,0,0,1,1.6.7,1.2,1.2,0,0,1-.8,1.6,1.1,1.1,0,0,1-1.5-.8A1.1,1.1,0,0,1,188.5,83Z"/><path class="g" d="M186.9,79.6a1.3,1.3,0,0,1,1.7.5,1.1,1.1,0,0,1-.6,1.7,1.2,1.2,0,0,1-1.6-.6A1.2,1.2,0,0,1,186.9,79.6Z"/><path class="g" d="M185,76.4a1.2,1.2,0,0,1,1.7.4,1.2,1.2,0,0,1-.4,1.7,1.3,1.3,0,0,1-1.7-.4A1.2,1.2,0,0,1,185,76.4Z"/><path class="g" d="M182.6,73.5a1.2,1.2,0,1,1-.1,1.7A1.2,1.2,0,0,1,182.6,73.5Z"/><path class="g" d="M180,70.9a1.2,1.2,0,1,1,0,1.7A1.2,1.2,0,0,1,180,70.9Z"/><path class="g" d="M177,68.6a1.3,1.3,0,0,1,1.7-.3,1.2,1.2,0,0,1,.3,1.8,1.2,1.2,0,0,1-1.7.2A1.2,1.2,0,0,1,177,68.6Z"/><path class="g" d="M173.8,66.7a1.3,1.3,0,0,1,1.7-.5,1.3,1.3,0,0,1,.5,1.7,1.3,1.3,0,0,1-1.7.5A1.3,1.3,0,0,1,173.8,66.7Z"/><path class="g" d="M170.4,65.2a1.3,1.3,0,0,1,2.3,1,1.5,1.5,0,0,1-1.7.7A1.3,1.3,0,0,1,170.4,65.2Z"/><path class="g" d="M166.8,64.2a1.1,1.1,0,0,1,1.5-.9,1.3,1.3,0,0,1,.9,1.6,1.2,1.2,0,0,1-1.5.8A1.2,1.2,0,0,1,166.8,64.2Z"/><path class="g" d="M163.1,63.6a1.4,1.4,0,0,1,1.4-1.2,1.5,1.5,0,0,1,1.1,1.5,1.3,1.3,0,0,1-1.4,1A1.2,1.2,0,0,1,163.1,63.6Z"/><path class="g" d="M159.4,63.4a1.3,1.3,0,0,1,1.3-1.3,1.2,1.2,0,0,1,1.2,1.3,1.3,1.3,0,0,1-1.3,1.2A1.2,1.2,0,0,1,159.4,63.4Z"/><path class="g" d="M155.7,63.6a1.2,1.2,0,1,1,1.3,1.1A1.2,1.2,0,0,1,155.7,63.6Z"/><path class="g" d="M152,64.3a1.2,1.2,0,1,1,2.4-.5,1.3,1.3,0,0,1-.9,1.5A1.3,1.3,0,0,1,152,64.3Z"/><path class="g" d="M148.5,65.5a1.1,1.1,0,0,1,.7-1.6,1.2,1.2,0,0,1,1.6.8,1.2,1.2,0,0,1-.8,1.5A1.1,1.1,0,0,1,148.5,65.5Z"/><path class="g" d="M145.1,67.1a1.2,1.2,0,0,1,.5-1.7,1.1,1.1,0,0,1,1.7.6,1.2,1.2,0,0,1-.6,1.6A1.2,1.2,0,0,1,145.1,67.1Z"/><path class="g" d="M141.9,69a1.2,1.2,0,0,1,.4-1.7,1.2,1.2,0,0,1,1.7.4,1.3,1.3,0,0,1-.4,1.7A1.2,1.2,0,0,1,141.9,69Z"/><path class="g" d="M139,71.4a1.3,1.3,0,0,1,.1-1.8,1.2,1.2,0,0,1,1.8.2,1.2,1.2,0,0,1-1.9,1.6Z"/><path class="g" d="M136.4,74a1.2,1.2,0,1,1,1.7,0A1.2,1.2,0,0,1,136.4,74Z"/><path class="g" d="M134.1,77a1.3,1.3,0,0,1-.3-1.8,1.3,1.3,0,0,1,1.8-.2,1.2,1.2,0,0,1,.2,1.7A1.2,1.2,0,0,1,134.1,77Z"/><path class="g" d="M132.2,80.2a1.3,1.3,0,0,1-.5-1.7,1.3,1.3,0,0,1,1.7-.5,1.3,1.3,0,0,1,.5,1.7A1.3,1.3,0,0,1,132.2,80.2Z"/><path class="g" d="M130.7,83.6A1.3,1.3,0,0,1,130,82a1.3,1.3,0,0,1,1.7-.7,1.3,1.3,0,0,1,.6,1.7A1.1,1.1,0,0,1,130.7,83.6Z"/><path class="g" d="M123.7,85.1a1.3,1.3,0,0,1-.9-1.6,1.2,1.2,0,0,1,1.6-.8,1.2,1.2,0,0,1,.8,1.5A1.4,1.4,0,0,1,123.7,85.1Z"/><path class="g" d="M122.9,88.8a1.3,1.3,0,0,1-1-1.5,1.2,1.2,0,0,1,1.5-1,1.2,1.2,0,0,1,1,1.4A1.3,1.3,0,0,1,122.9,88.8Z"/><path class="g" d="M122.5,92.5a1.1,1.1,0,0,1-1.1-1.3,1.3,1.3,0,1,1,2.5.2A1.4,1.4,0,0,1,122.5,92.5Z"/><path class="g" d="M122.6,96.3a1.3,1.3,0,0,1-.1-2.5,1.2,1.2,0,0,1,1.3,1.2A1.4,1.4,0,0,1,122.6,96.3Z"/><path class="g" d="M123,100a1.2,1.2,0,0,1-1-.2,1.3,1.3,0,0,1-.4-.9,1.2,1.2,0,0,1,1.1-1.4,1.4,1.4,0,0,1,1.4,1.1,1.7,1.7,0,0,1-.3,1A1.2,1.2,0,0,1,123,100Z"/><path class="g" d="M123.8,103.7a1.2,1.2,0,0,1-1.6-.9,1.3,1.3,0,0,1,1-1.5,1.3,1.3,0,0,1,1.5.9A1.3,1.3,0,0,1,123.8,103.7Z"/><path class="g" d="M124.9,107.3a1.2,1.2,0,0,1-1.6-.8,1.3,1.3,0,1,1,1.6.8Z"/><path class="g" d="M126.4,110.8a1.3,1.3,0,0,1-1.7-.6,1.2,1.2,0,0,1,.7-1.7,1.2,1.2,0,0,1,1.6.6A1.4,1.4,0,0,1,126.4,110.8Z"/><path class="g" d="M128.2,114.1a1.3,1.3,0,0,1-1.7-.5,1.3,1.3,0,0,1,.5-1.7,1.3,1.3,0,0,1,1.7.5A1.3,1.3,0,0,1,128.2,114.1Z"/><path class="g" d="M130.4,117.1a1.2,1.2,0,0,1-1.8-.2,1.4,1.4,0,0,1,.3-1.8,1.2,1.2,0,0,1,1.7.3A1.1,1.1,0,0,1,130.4,117.1Z"/><path class="g" d="M132.9,120a1.3,1.3,0,0,1-1.7-1.9,1.4,1.4,0,0,1,1.7.1A1.3,1.3,0,0,1,132.9,120Z"/><path class="g" d="M135.6,122.6a1.2,1.2,0,1,1-1.8-1.7,1.2,1.2,0,0,1,1.7-.1A1.3,1.3,0,0,1,135.6,122.6Z"/><path class="g" d="M138.6,124.9a1.4,1.4,0,0,1-1.8.3,1.3,1.3,0,0,1-.2-1.8,1.3,1.3,0,0,1,1.7-.3A1.3,1.3,0,0,1,138.6,124.9Z"/><path class="g" d="M141.8,126.8a1.1,1.1,0,0,1-1.7.5,1.1,1.1,0,0,1-.4-1.7,1.3,1.3,0,0,1,1.7-.4A1.1,1.1,0,0,1,141.8,126.8Z"/><path class="g" d="M145.2,128.5a1.3,1.3,0,0,1-1.7.6,1.3,1.3,0,0,1-.6-1.7,1.3,1.3,0,0,1,1.7-.5A1.1,1.1,0,0,1,145.2,128.5Z"/><path class="g" d="M148.7,129.8a1.3,1.3,0,0,1-1.6.8,1.1,1.1,0,0,1-.7-1.6,1.3,1.3,0,0,1,1.6-.8A1.2,1.2,0,0,1,148.7,129.8Z"/><path class="g" d="M152.4,130.7a1.3,1.3,0,0,1-1.5,1,1.2,1.2,0,0,1-.9-1.5,1.1,1.1,0,0,1,1.5-.9A1.2,1.2,0,0,1,152.4,130.7Z"/><path class="g" d="M156.1,131.3a1.2,1.2,0,0,1-1.4,1.1,1.3,1.3,0,0,1-1.1-1.4,1.4,1.4,0,0,1,1.4-1.1A1.2,1.2,0,0,1,156.1,131.3Z"/><path class="g" d="M159.9,131.5a1.3,1.3,0,0,1-1.3,1.2,1.2,1.2,0,0,1-1.2-1.3,1.2,1.2,0,0,1,1.3-1.2A1.3,1.3,0,0,1,159.9,131.5Z"/><path class="g" d="M163.7,131.2a1.4,1.4,0,0,1-1.2,1.4,1.2,1.2,0,0,1-1.3-1.1,1.3,1.3,0,0,1,1.1-1.4A1.4,1.4,0,0,1,163.7,131.2Z"/><path class="g" d="M167.4,130.7a1.2,1.2,0,0,1-1.1,1.4,1.1,1.1,0,0,1-1.4-1,1.3,1.3,0,0,1,1-1.4A1.2,1.2,0,0,1,167.4,130.7Z"/><path class="g" d="M171,129.7a1.3,1.3,0,0,1-.8,1.6,1.3,1.3,0,0,1-1.6-.9,1.2,1.2,0,0,1,.9-1.5A1.2,1.2,0,0,1,171,129.7Z"/><path class="g" d="M174.5,128.4a1.2,1.2,0,1,1-2.3.9,1.3,1.3,0,0,1,.7-1.6A1.2,1.2,0,0,1,174.5,128.4Z"/><path class="g" d="M177.9,126.7a1.2,1.2,0,0,1-.5,1.7,1.3,1.3,0,0,1-1.7-.5,1.3,1.3,0,0,1,.5-1.7A1.3,1.3,0,0,1,177.9,126.7Z"/><path class="g" d="M181.1,124.7a1.2,1.2,0,0,1-.3,1.7,1.3,1.3,0,0,1-1.8-.3,1.3,1.3,0,0,1,2.1-1.4Z"/><path class="g" d="M184.1,122.4a1.3,1.3,0,0,1-.2,1.8,1.3,1.3,0,1,1,.2-1.8Z"/><path class="g" d="M186.8,119.8a1.3,1.3,0,0,1-1.8,1.8,1.5,1.5,0,0,1,0-1.8A1.3,1.3,0,0,1,186.8,119.8Z"/><path class="g" d="M189.3,116.9a1.3,1.3,0,0,1,.1,1.8,1.2,1.2,0,0,1-1.7.2,1.3,1.3,0,0,1-.2-1.8A1.4,1.4,0,0,1,189.3,116.9Z"/><path class="g" d="M191.4,113.8a1.3,1.3,0,1,1-1.4,2.1,1.3,1.3,0,0,1-.3-1.7A1.3,1.3,0,0,1,191.4,113.8Z"/><path class="g" d="M193.2,110.5a1.1,1.1,0,0,1,.5,1.7,1.2,1.2,0,0,1-2.2-1.1A1.3,1.3,0,0,1,193.2,110.5Z"/><path class="g" d="M194.7,107a1.2,1.2,0,0,1,.7,1.7,1.4,1.4,0,0,1-1.7.7,1.3,1.3,0,0,1-.6-1.7A1.3,1.3,0,0,1,194.7,107Z"/><path class="g" d="M195.8,103.4a1.3,1.3,0,0,1,.9,1.6,1.2,1.2,0,0,1-1.6.8,1.2,1.2,0,0,1-.8-1.5A1.4,1.4,0,0,1,195.8,103.4Z"/><path class="g" d="M196.6,99.7a1.3,1.3,0,0,1,1,1.5,1.2,1.2,0,0,1-1.5,1,1.2,1.2,0,0,1-1-1.4A1.3,1.3,0,0,1,196.6,99.7Z"/><path class="g" d="M197,96a1.1,1.1,0,0,1,1.1,1.3,1.3,1.3,0,1,1-2.5-.2A1.4,1.4,0,0,1,197,96Z"/><path class="g" d="M196.9,92.2a1.3,1.3,0,0,1,1.3,1.3,1.2,1.2,0,0,1-1.2,1.2,1.2,1.2,0,0,1-1.3-1.2A1.3,1.3,0,0,1,196.9,92.2Z"/><path class="g" d="M196.5,88.5a1.2,1.2,0,0,1,1,.2,1.3,1.3,0,0,1,.4.9,1.2,1.2,0,0,1-1.1,1.4,1.4,1.4,0,0,1-1.4-1.1,1.2,1.2,0,0,1,.3-.9A1,1,0,0,1,196.5,88.5Z"/><path class="g" d="M195.7,84.8a1.1,1.1,0,0,1,1.5.9,1.2,1.2,0,1,1-2.4.6A1.3,1.3,0,0,1,195.7,84.8Z"/><path class="g" d="M194.6,81.2a1.3,1.3,0,0,1,1.6.8,1.3,1.3,0,1,1-1.6-.8Z"/><path class="g" d="M193.1,77.7a1.3,1.3,0,0,1,1.7.6,1.4,1.4,0,0,1-.7,1.7,1.2,1.2,0,0,1-1.6-.6A1.4,1.4,0,0,1,193.1,77.7Z"/><path class="g" d="M191.2,74.5a1.3,1.3,0,0,1,1.8.4,1.3,1.3,0,1,1-2.2,1.2A1.3,1.3,0,0,1,191.2,74.5Z"/><path class="g" d="M189.1,71.4a1.2,1.2,0,0,1,1.8.2,1.3,1.3,0,0,1-.4,1.8,1.3,1.3,0,0,1-1.7-.3A1.2,1.2,0,0,1,189.1,71.4Z"/><path class="g" d="M186.6,68.5a1.3,1.3,0,0,1,1.7,1.9,1.5,1.5,0,0,1-1.8-.1A1.4,1.4,0,0,1,186.6,68.5Z"/><path class="g" d="M183.9,65.9a1.4,1.4,0,0,1,1.8-.1,1.3,1.3,0,0,1,0,1.8,1.2,1.2,0,0,1-1.7.1A1.3,1.3,0,0,1,183.9,65.9Z"/><path class="g" d="M180.9,63.6a1.4,1.4,0,0,1,1.8-.3,1.3,1.3,0,1,1-1.8.3Z"/><path class="g" d="M177.7,61.7a1.2,1.2,0,0,1,1.7-.5,1.1,1.1,0,0,1,.4,1.7,1.3,1.3,0,0,1-1.7.4A1.1,1.1,0,0,1,177.7,61.7Z"/><path class="g" d="M174.3,60a1.3,1.3,0,0,1,2.3,1.1,1.5,1.5,0,0,1-1.7.6A1.3,1.3,0,0,1,174.3,60Z"/><path class="g" d="M170.7,58.7a1.4,1.4,0,0,1,1.6-.8,1.2,1.2,0,0,1,.8,1.6,1.3,1.3,0,1,1-2.4-.8Z"/><path class="g" d="M167.1,57.8a1.3,1.3,0,0,1,1.5-1,1.2,1.2,0,0,1,.9,1.6,1.2,1.2,0,1,1-2.4-.6Z"/><path class="g" d="M163.4,57.2a1.2,1.2,0,0,1,1.4-1.1,1.3,1.3,0,0,1,1.1,1.4,1.5,1.5,0,0,1-1.5,1.1A1.2,1.2,0,0,1,163.4,57.2Z"/><path class="g" d="M159.6,57.1a1.3,1.3,0,0,1,1.3-1.3,1.2,1.2,0,0,1,1.2,1.3,1.2,1.2,0,0,1-1.3,1.2A1.3,1.3,0,0,1,159.6,57.1Z"/><path class="g" d="M155.8,57.3a1.4,1.4,0,0,1,1.2-1.4,1.2,1.2,0,0,1,1.3,1.1,1.3,1.3,0,0,1-1.1,1.4A1.4,1.4,0,0,1,155.8,57.3Z"/><path class="g" d="M152.1,57.8a1.2,1.2,0,0,1,1-1.4,1.2,1.2,0,0,1,1.5,1,1.3,1.3,0,0,1-1,1.4A1.2,1.2,0,0,1,152.1,57.8Z"/><path class="g" d="M148.5,58.8a1.2,1.2,0,0,1,.8-1.6,1.3,1.3,0,0,1,1.6.9,1.4,1.4,0,0,1-.9,1.6A1.3,1.3,0,0,1,148.5,58.8Z"/><path class="g" d="M144.9,60.1a1.3,1.3,0,0,1,.8-1.6,1.2,1.2,0,0,1,1.6.7,1.3,1.3,0,0,1-.7,1.6A1.2,1.2,0,0,1,144.9,60.1Z"/><path class="g" d="M141.6,61.8a1.2,1.2,0,0,1,.5-1.7,1.3,1.3,0,0,1,1.7.5,1.3,1.3,0,0,1-.5,1.7A1.3,1.3,0,0,1,141.6,61.8Z"/><path class="g" d="M138.4,63.8a1.2,1.2,0,0,1,.3-1.7,1.3,1.3,0,0,1,1.8.3,1.4,1.4,0,0,1-.4,1.8A1.3,1.3,0,0,1,138.4,63.8Z"/><path class="g" d="M135.4,66.1a1.2,1.2,0,0,1,.2-1.8,1.3,1.3,0,0,1,1.6,2A1.4,1.4,0,0,1,135.4,66.1Z"/><path class="g" d="M132.7,68.7a1.3,1.3,0,0,1,0-1.8,1.2,1.2,0,0,1,1.8.1,1.2,1.2,0,0,1-.1,1.7A1.1,1.1,0,0,1,132.7,68.7Z"/><path class="g" d="M130.2,71.6a1.3,1.3,0,0,1-.1-1.8,1.2,1.2,0,0,1,1.9,1.6A1.4,1.4,0,0,1,130.2,71.6Z"/><path class="g" d="M128.1,74.7a1.3,1.3,0,0,1-.4-1.8,1.3,1.3,0,1,1,.4,1.8Z"/><path class="g" d="M126.2,78a1.3,1.3,0,0,1-.5-1.7,1.3,1.3,0,0,1,1.8-.5,1.3,1.3,0,0,1,.5,1.7A1.5,1.5,0,0,1,126.2,78Z"/><path class="g" d="M124.8,81.5a1.2,1.2,0,0,1-.7-1.7,1.4,1.4,0,0,1,1.7-.7,1.3,1.3,0,0,1,.6,1.7A1.3,1.3,0,0,1,124.8,81.5Z"/><path class="g" d="M118.6,85.2a1.9,1.9,0,0,1-1.4-2.3,1.8,1.8,0,0,1,2.4-1.3,1.7,1.7,0,0,1,1.2,2.2A1.9,1.9,0,0,1,118.6,85.2Z"/><path class="g" d="M117.8,90.7a1.8,1.8,0,0,1-1.7-2.1,1.8,1.8,0,0,1,2.1-1.6,1.9,1.9,0,0,1,1.6,2.1A1.8,1.8,0,0,1,117.8,90.7Z"/><path class="g" d="M117.6,96.4a1.9,1.9,0,1,1,0-3.8,1.9,1.9,0,0,1,0,3.8Z"/><path class="g" d="M118.3,102a1.9,1.9,0,0,1-2.2-1.6,2,2,0,0,1,1.7-2.2,2,2,0,0,1,2,1.7A1.9,1.9,0,0,1,118.3,102Z"/><path class="g" d="M119.7,107.4a1.8,1.8,0,0,1-2.3-1.3,1.7,1.7,0,0,1,.1-1.4,1.8,1.8,0,0,1,1.2-.9,2.2,2.2,0,0,1,1.4.2,2.4,2.4,0,0,1,.9,1.1A1.9,1.9,0,0,1,119.7,107.4Z"/><path class="g" d="M121.8,112.6a1.8,1.8,0,0,1-2.5-.9,1.9,1.9,0,0,1,1-2.5,1.9,1.9,0,1,1,1.5,3.4Z"/><path class="g" d="M124.6,117.5a1.9,1.9,0,1,1-1.9-3.2,1.9,1.9,0,0,1,2.5.7A1.8,1.8,0,0,1,124.6,117.5Z"/><path class="g" d="M128,122a1.7,1.7,0,0,1-2.6-.3,1.8,1.8,0,0,1,.2-2.6,2,2,0,0,1,2.7.3A1.9,1.9,0,0,1,128,122Z"/><path class="g" d="M132,126a1.9,1.9,0,1,1-2.7-2.6A1.9,1.9,0,0,1,132,126Z"/><path class="g" d="M136.5,129.4a1.8,1.8,0,0,1-2.7.4,1.8,1.8,0,0,1-.4-2.6,1.9,1.9,0,0,1,3.1,2.2Z"/><path class="g" d="M141.4,132.2a1.9,1.9,0,1,1-3.3-1.8,1.8,1.8,0,0,1,2.5-.7A1.9,1.9,0,0,1,141.4,132.2Z"/><path class="g" d="M146.6,134.3a1.7,1.7,0,0,1-2.4,1.1,1.9,1.9,0,0,1-1.1-2.5,1.9,1.9,0,0,1,2.4-1A2,2,0,0,1,146.6,134.3Z"/><path class="g" d="M152,135.7a1.7,1.7,0,0,1-2.2,1.4,1.8,1.8,0,0,1-1.4-2.3,1.9,1.9,0,0,1,2.2-1.3A1.8,1.8,0,0,1,152,135.7Z"/><path class="g" d="M157.6,136.4a1.8,1.8,0,0,1-2,1.7,1.9,1.9,0,0,1-1.7-2.1,1.9,1.9,0,1,1,3.7.4Z"/><path class="g" d="M163.3,136.3a1.9,1.9,0,0,1-1.8,2,2,2,0,0,1-2-1.9,1.9,1.9,0,0,1,1.8-1.9A2,2,0,0,1,163.3,136.3Z"/><path class="g" d="M168.8,135.4a1.8,1.8,0,0,1-1.5,2.2,1.8,1.8,0,0,1-2.2-1.5,2,2,0,0,1,1.6-2.2A1.9,1.9,0,0,1,168.8,135.4Z"/><path class="g" d="M174.2,133.8a1.9,1.9,0,0,1,0,1.5,2.2,2.2,0,0,1-1.2.9,1.8,1.8,0,0,1-2.3-1.2,1.9,1.9,0,0,1,1.2-2.4,2.4,2.4,0,0,1,1.4.2A1.8,1.8,0,0,1,174.2,133.8Z"/><path class="g" d="M179.4,131.5a1.9,1.9,0,0,1-.9,2.6,1.8,1.8,0,0,1-2.5-1,1.9,1.9,0,0,1,3.4-1.6Z"/><path class="g" d="M184.2,128.6a1.8,1.8,0,0,1-.6,2.6,1.8,1.8,0,0,1-2.6-.5,2,2,0,0,1,.6-2.6A1.9,1.9,0,0,1,184.2,128.6Z"/><path class="g" d="M188.5,125a1.6,1.6,0,0,1,.5,1.4,1.6,1.6,0,0,1-.6,1.3,1.9,1.9,0,0,1-2.7-.2,1.9,1.9,0,0,1,.2-2.6,2.4,2.4,0,0,1,1.4-.5A2.7,2.7,0,0,1,188.5,125Z"/><path class="g" d="M192.4,120.9a1.9,1.9,0,0,1,.2,2.7,1.8,1.8,0,0,1-2.7.1,1.9,1.9,0,0,1-.1-2.6A2,2,0,0,1,192.4,120.9Z"/><path class="g" d="M195.7,116.4a1.8,1.8,0,0,1,.5,2.6,1.9,1.9,0,1,1-3.1-2.1A1.8,1.8,0,0,1,195.7,116.4Z"/><path class="g" d="M198.3,111.3a1.9,1.9,0,0,1,.9,2.6,1.9,1.9,0,0,1-2.6.8,1.9,1.9,0,0,1-.8-2.5A2,2,0,0,1,198.3,111.3Z"/><path class="g" d="M200.2,106.1a1.9,1.9,0,1,1-1.2,3.5,1.9,1.9,0,0,1-1.1-2.4A1.8,1.8,0,0,1,200.2,106.1Z"/><path class="g" d="M201.5,100.6a1.8,1.8,0,0,1,1.4,2.2,1.9,1.9,0,0,1-2.2,1.5,2.1,2.1,0,0,1-1.5-2.3A2,2,0,0,1,201.5,100.6Z"/><path class="g" d="M201.9,95a1.8,1.8,0,0,1,1.8,1.9,1.9,1.9,0,0,1-2,1.8,1.8,1.8,0,0,1-1.7-2A1.7,1.7,0,0,1,201.9,95Z"/><path class="g" d="M201.6,89.3a2,2,0,0,1,2.1,1.8,1.9,1.9,0,1,1-3.8.2A2,2,0,0,1,201.6,89.3Z"/><path class="g" d="M200.6,83.8a1.8,1.8,0,0,1,2.2,1.4,1.9,1.9,0,0,1-1.4,2.3,1.9,1.9,0,0,1-2.2-1.5A1.8,1.8,0,0,1,200.6,83.8Z"/><path class="g" d="M198.8,78.5a1.9,1.9,0,0,1,2.5,1.1,2,2,0,0,1-1.2,2.4,1.9,1.9,0,0,1-2.4-1.2A1.8,1.8,0,0,1,198.8,78.5Z"/><path class="g" d="M196.4,73.4a1.8,1.8,0,0,1,2.5.8,1.7,1.7,0,0,1-.8,2.5,1.9,1.9,0,0,1-2.5-.8A1.9,1.9,0,0,1,196.4,73.4Z"/><path class="g" d="M193.2,68.7a1.9,1.9,0,1,1,2.2,3.1,2,2,0,0,1-2.6-.5A2,2,0,0,1,193.2,68.7Z"/><path class="g" d="M189.5,64.4a1.9,1.9,0,0,1,2.7.1,1.8,1.8,0,0,1,.5.7c0,.2.1.5,0,.7a1.6,1.6,0,0,1-.6,1.3,1.8,1.8,0,0,1-1.4.4h-.6l-.6-.4A2,2,0,0,1,189.5,64.4Z"/><path class="g" d="M185.3,60.7a1.9,1.9,0,0,1,2.7-.2,1.8,1.8,0,0,1,.2,2.6,1.9,1.9,0,0,1-2.6.3A2,2,0,0,1,185.3,60.7Z"/><path class="g" d="M180.6,57.6a1.9,1.9,0,0,1,2.6-.6,1.9,1.9,0,0,1,.6,2.6,1.9,1.9,0,0,1-2.6.6A2,2,0,0,1,180.6,57.6Z"/><path class="g" d="M175.5,55.2a1.9,1.9,0,0,1,2.5-1,1.8,1.8,0,0,1,1,2.5,1.9,1.9,0,0,1-2.5.9A1.9,1.9,0,0,1,175.5,55.2Z"/><path class="g" d="M170.2,53.4a1.9,1.9,0,0,1,2.3-1.3,1.9,1.9,0,0,1,1.3,2.4,1.9,1.9,0,0,1-2.3,1.2A1.9,1.9,0,0,1,170.2,53.4Z"/><path class="g" d="M164.7,52.4a1.8,1.8,0,0,1,2.1-1.6,1.9,1.9,0,0,1,1.6,2.2,2,2,0,0,1-2.2,1.5A1.8,1.8,0,0,1,164.7,52.4Z"/><path class="g" d="M159,52.1a2,2,0,0,1,2-1.9,1.9,1.9,0,0,1,1.8,2,1.9,1.9,0,0,1-1.9,1.8A2,2,0,0,1,159,52.1Z"/><path class="g" d="M153.4,52.5a1.8,1.8,0,0,1,1.7-2,1.9,1.9,0,0,1,2.1,1.7,2,2,0,0,1-1.7,2A2,2,0,0,1,153.4,52.5Z"/><path class="g" d="M147.9,53.8a1.8,1.8,0,0,1,1.4-2.3,1.9,1.9,0,1,1,.9,3.6A1.9,1.9,0,0,1,147.9,53.8Z"/><path class="g" d="M142.6,55.7a1.8,1.8,0,0,1,1.1-2.4,1.9,1.9,0,0,1,1.5,0,1.7,1.7,0,0,1,.9,1.1,1.7,1.7,0,0,1,0,1.4,2.4,2.4,0,0,1-1,1A2.1,2.1,0,0,1,142.6,55.7Z"/><path class="g" d="M137.7,58.4a1.8,1.8,0,0,1,.7-2.6,1.8,1.8,0,0,1,2.5.7,1.9,1.9,0,0,1-.7,2.6A2,2,0,0,1,137.7,58.4Z"/><path class="g" d="M133.1,61.6a1.9,1.9,0,1,1,3-2.2,2,2,0,0,1-.4,2.6A1.9,1.9,0,0,1,133.1,61.6Z"/><path class="g" d="M128.9,65.4a1.8,1.8,0,0,1,.1-2.6,1.7,1.7,0,0,1,2.6,0,1.9,1.9,0,1,1-2.7,2.6Z"/><path class="g" d="M125.4,69.8a1.9,1.9,0,1,1,2.3-2.9,1.9,1.9,0,0,1,.3,2.6A2,2,0,0,1,125.4,69.8Z"/><path class="g" d="M122.4,74.6a1.9,1.9,0,0,1-.7-2.6,1.8,1.8,0,0,1,2.6-.6,1.9,1.9,0,1,1-1.9,3.2Z"/><path class="g" d="M120.1,79.8a1.9,1.9,0,1,1,2.5-1.1A2,2,0,0,1,120.1,79.8Z"/><path class="g" d="M138.4,92.3a1.6,1.6,0,0,1-1.3-.7,1.4,1.4,0,0,1-.3-1.4,1.7,1.7,0,0,1,2.2-1.5,1.9,1.9,0,0,1,1.5,2.1,1.9,1.9,0,0,1-.8,1.1A1.5,1.5,0,0,1,138.4,92.3Z"/><path class="g" d="M138.6,97.9a1.7,1.7,0,0,1-1.4-.3,1.7,1.7,0,0,1-.7-1.3,1.8,1.8,0,0,1,1.8-2.1,1.9,1.9,0,0,1,1.9,1.7,1.5,1.5,0,0,1-.4,1.3A1.5,1.5,0,0,1,138.6,97.9Z"/><path class="g" d="M140.3,103.3a1.8,1.8,0,0,1-2.5-1.1,1.8,1.8,0,0,1,1.2-2.4,1.8,1.8,0,0,1,2.3,1.1A1.9,1.9,0,0,1,140.3,103.3Z"/><path class="g" d="M143.3,108a1.8,1.8,0,0,1-2.7-.4,1.8,1.8,0,0,1,.5-2.6,2,2,0,0,1,2.6.5A1.9,1.9,0,0,1,143.3,108Z"/><path class="g" d="M147.4,111.8a1.8,1.8,0,0,1-2.7.3,1.8,1.8,0,0,1-.2-2.7,2.1,2.1,0,0,1,2.6-.2A2,2,0,0,1,147.4,111.8Z"/><path class="g" d="M152.4,114.4a1.9,1.9,0,0,1-2.6,1,1.8,1.8,0,0,1-.8-2.6,1.9,1.9,0,0,1,2.4-.8A2,2,0,0,1,152.4,114.4Z"/><path class="g" d="M157.8,115.6a1.6,1.6,0,0,1-.7,1.3,1.4,1.4,0,0,1-1.4.3,1.7,1.7,0,0,1-1.5-2.2,1.9,1.9,0,0,1,2.1-1.5,1.9,1.9,0,0,1,1.1.8A1.5,1.5,0,0,1,157.8,115.6Z"/><path class="g" d="M163.4,115.4a1.7,1.7,0,0,1-1.7,2.1,1.8,1.8,0,0,1-2-1.8,1.9,1.9,0,0,1,1.7-1.9,1.6,1.6,0,0,1,1.3.4A1.9,1.9,0,0,1,163.4,115.4Z"/><path class="g" d="M168.8,113.7a1.8,1.8,0,0,1-1.1,2.5,1.8,1.8,0,0,1-2.4-1.2,1.8,1.8,0,0,1,1.1-2.3A1.9,1.9,0,0,1,168.8,113.7Z"/><path class="g" d="M173.5,110.7a1.8,1.8,0,0,1-.4,2.7,1.8,1.8,0,0,1-2.6-.5,2,2,0,0,1,.5-2.6A1.9,1.9,0,0,1,173.5,110.7Z"/><path class="g" d="M177.3,106.6a1.8,1.8,0,0,1,.3,2.7,1.8,1.8,0,0,1-2.7.2,2.1,2.1,0,0,1-.2-2.6A2,2,0,0,1,177.3,106.6Z"/><path class="g" d="M179.9,101.6a2,2,0,0,1,1,2.6,1.9,1.9,0,0,1-2.6.8,1.9,1.9,0,0,1-.8-2.4A1.9,1.9,0,0,1,179.9,101.6Z"/><path class="g" d="M181.1,96.2a1.8,1.8,0,0,1,1.6,2.2,1.8,1.8,0,0,1-2.2,1.5,2.1,2.1,0,0,1-1.5-2.2,1.5,1.5,0,0,1,.8-1.1A1.5,1.5,0,0,1,181.1,96.2Z"/><path class="g" d="M180.9,90.6a1.7,1.7,0,0,1,1.4.3,2.1,2.1,0,0,1,.7,1.4,1.8,1.8,0,0,1-1.8,2,1.9,1.9,0,0,1-1.9-1.7,1.6,1.6,0,0,1,.4-1.3A1.9,1.9,0,0,1,180.9,90.6Z"/><path class="g" d="M179.2,85.2a1.8,1.8,0,0,1,2.5,1.1,1.8,1.8,0,0,1-1.2,2.4,1.8,1.8,0,0,1-2.3-1.1A1.9,1.9,0,0,1,179.2,85.2Z"/><path class="g" d="M176.2,80.5a1.9,1.9,0,0,1,2.7.4,1.8,1.8,0,0,1-.5,2.6,2,2,0,0,1-2.6-.5A1.9,1.9,0,0,1,176.2,80.5Z"/><path class="g" d="M172.1,76.7a1.8,1.8,0,0,1,2.7-.3,1.8,1.8,0,0,1,.2,2.7,2.1,2.1,0,0,1-2.6.2A2,2,0,0,1,172.1,76.7Z"/><path class="g" d="M167.1,74.1a2,2,0,0,1,2.6-1,1.9,1.9,0,0,1,.8,2.6,1.9,1.9,0,0,1-2.4.8A1.9,1.9,0,0,1,167.1,74.1Z"/><path class="g" d="M161.7,72.9a2,2,0,0,1,.6-1.3,1.6,1.6,0,0,1,1.5-.3,1.7,1.7,0,0,1,1.5,2.2,1.9,1.9,0,0,1-2.1,1.5,2,2,0,0,1-1.2-.8A1.8,1.8,0,0,1,161.7,72.9Z"/><path class="g" d="M156,73.1a2.3,2.3,0,0,1,.4-1.4,2.1,2.1,0,0,1,1.3-.7,1.8,1.8,0,0,1,2.1,1.8,2,2,0,0,1-1.7,1.9,1.5,1.5,0,0,1-1.3-.4A2,2,0,0,1,156,73.1Z"/><path class="g" d="M150.7,74.8a1.8,1.8,0,0,1,1.1-2.5,1.8,1.8,0,0,1,2.4,1.2,1.8,1.8,0,0,1-1.1,2.3A1.9,1.9,0,0,1,150.7,74.8Z"/><path class="g" d="M146,77.8a1.9,1.9,0,1,1,3-2.2,2,2,0,0,1-.5,2.6A1.9,1.9,0,0,1,146,77.8Z"/><path class="g" d="M142.2,81.9a1.8,1.8,0,0,1-.3-2.7,1.8,1.8,0,0,1,2.7-.2,2.1,2.1,0,0,1,.2,2.6A2,2,0,0,1,142.2,81.9Z"/><path class="g" d="M139.6,86.9a2,2,0,0,1-1-2.6,1.9,1.9,0,0,1,2.6-.8,1.9,1.9,0,0,1,.8,2.4A2,2,0,0,1,139.6,86.9Z"/><path class="g" d="M145.1,92.8a1.2,1.2,0,0,1-1.1-1.5,1.2,1.2,0,0,1,1.5-.9,1.3,1.3,0,0,1,1,1.4A1.3,1.3,0,0,1,145.1,92.8Z"/><path class="g" d="M145.2,96.5a1.3,1.3,0,0,1-1.4-1.2A1.2,1.2,0,0,1,145,94a1.3,1.3,0,0,1,.2,2.5Z"/><path class="g" d="M146.2,100a1.1,1.1,0,0,1-1.6-.7,1.2,1.2,0,1,1,2.3-.8A1.2,1.2,0,0,1,146.2,100Z"/><path class="g" d="M148,103.2a1.1,1.1,0,0,1-1.7-.3,1.3,1.3,0,0,1,.4-1.8,1.4,1.4,0,0,1,1.7.4A1.3,1.3,0,0,1,148,103.2Z"/><path class="g" d="M150.7,105.9a1.3,1.3,0,0,1-1.8.1,1.1,1.1,0,0,1,0-1.8,1.2,1.2,0,0,1,1.7-.1A1.5,1.5,0,0,1,150.7,105.9Z"/><path class="g" d="M153.8,107.7a1.1,1.1,0,0,1-1.7.6,1.2,1.2,0,0,1-.4-1.7,1.2,1.2,0,0,1,1.6-.5A1.3,1.3,0,0,1,153.8,107.7Z"/><path class="g" d="M157.4,108.8a1.3,1.3,0,0,1-1.6,1,1.2,1.2,0,0,1-.8-1.6,1.2,1.2,0,0,1,1.5-.8A1.2,1.2,0,0,1,157.4,108.8Z"/><path class="g" d="M161,108.9a1.1,1.1,0,0,1-1.2,1.3,1.1,1.1,0,0,1-1.2-1.2,1.4,1.4,0,0,1,1.2-1.3A1.3,1.3,0,0,1,161,108.9Z"/><path class="g" d="M164.7,108.2a1.2,1.2,0,0,1-.9,1.5,1.2,1.2,0,0,1-1.5-.9,1.3,1.3,0,0,1,.9-1.5A1.3,1.3,0,0,1,164.7,108.2Z"/><path class="g" d="M168,106.5a1.2,1.2,0,0,1-.5,1.7,1.2,1.2,0,0,1-1.7-.5,1.4,1.4,0,0,1,.5-1.7A1.5,1.5,0,0,1,168,106.5Z"/><path class="g" d="M170.7,104.1a1.4,1.4,0,0,1,.5.8,1.1,1.1,0,0,1-.5.9,1,1,0,0,1-1.7-.1,1.2,1.2,0,0,1,0-1.7,1.6,1.6,0,0,1,.9-.3A.9.9,0,0,1,170.7,104.1Z"/><path class="g" d="M172.8,101a1.2,1.2,0,0,1,.5,1.8,1.3,1.3,0,0,1-2.1-1.4A1.2,1.2,0,0,1,172.8,101Z"/><path class="g" d="M174.1,97.5a1.6,1.6,0,0,1,.8.6,1.7,1.7,0,0,1,.1,1,1.3,1.3,0,0,1-2.4-.7,1.1,1.1,0,0,1,.6-.7A1.3,1.3,0,0,1,174.1,97.5Z"/><path class="g" d="M174.5,93.9c.7-.1,1.2.5,1.2,1.3a1.2,1.2,0,0,1-1.3,1.1,1.4,1.4,0,0,1-1.2-1.3A1.2,1.2,0,0,1,174.5,93.9Z"/><path class="g" d="M173.9,90.2a1.1,1.1,0,0,1,1.5,1,1.1,1.1,0,0,1-1,1.4,1.2,1.2,0,0,1-1.4-.9A1.3,1.3,0,0,1,173.9,90.2Z"/><path class="g" d="M172.5,86.8a1.3,1.3,0,1,1,1,2.3,1.4,1.4,0,0,1-1.6-.6A1.4,1.4,0,0,1,172.5,86.8Z"/><path class="g" d="M170.2,83.9a1.2,1.2,0,1,1,1.6,1.9,1.2,1.2,0,0,1-1.6-1.9Z"/><path class="g" d="M167.3,81.6a1.3,1.3,0,1,1,2,1.5,1.4,1.4,0,0,1-1.7.2A1.4,1.4,0,0,1,167.3,81.6Z"/><path class="g" d="M163.9,80.1a1.2,1.2,0,0,1,1.6-.7,1.1,1.1,0,0,1,.7,1.6,1.2,1.2,0,0,1-2.3-.9Z"/><path class="g" d="M160.3,79.5a1.1,1.1,0,0,1,1.4-1.1,1.1,1.1,0,0,1,1,1.4,1.3,1.3,0,0,1-1.3,1.1A1.3,1.3,0,0,1,160.3,79.5Z"/><path class="g" d="M156.6,79.9a1.2,1.2,0,0,1,1.1-1.5,1.1,1.1,0,0,1,1.3,1.1,1.2,1.2,0,0,1-1,1.4A1.4,1.4,0,0,1,156.6,79.9Z"/><path class="g" d="M153.1,81.1a1.3,1.3,0,0,1,.7-1.7,1.2,1.2,0,0,1,1.6.8,1.2,1.2,0,0,1-.7,1.5A1.2,1.2,0,0,1,153.1,81.1Z"/><path class="g" d="M150,83.1a1.2,1.2,0,0,1,.3-1.7,1.1,1.1,0,0,1,1.7.3,1.2,1.2,0,0,1-.2,1.7A1.3,1.3,0,0,1,150,83.1Z"/><path class="g" d="M147.6,85.9a1.2,1.2,0,1,1,1.6-1.9,1.4,1.4,0,0,1,.1,1.7A1.2,1.2,0,0,1,147.6,85.9Z"/><path class="g" d="M145.9,89.2a1.2,1.2,0,0,1-.7-1.7,1.2,1.2,0,0,1,1.7-.5,1.1,1.1,0,0,1,.6,1.6A1.4,1.4,0,0,1,145.9,89.2Z"/><path class="g" d="M149,94.2a1.2,1.2,0,0,1-1.2-1.4,1.2,1.2,0,0,1,1.5-1,1.2,1.2,0,0,1,1,1.3A1.3,1.3,0,0,1,149,94.2Z"/><path class="g" d="M149.7,97.9a1.2,1.2,0,0,1-1.6-.9,1.6,1.6,0,0,1,.1-1,1.1,1.1,0,0,1,.9-.5,1,1,0,0,1,.9.2c.3.2.5.4.5.7A1.2,1.2,0,0,1,149.7,97.9Z"/><path class="g" d="M151.5,101.1a1.1,1.1,0,0,1-1.8-.3,1.3,1.3,0,0,1,.4-1.8,1.4,1.4,0,0,1,1.7.4A1.4,1.4,0,0,1,151.5,101.1Z"/><path class="g" d="M154.4,103.5a1.2,1.2,0,0,1-1.8.4,1.2,1.2,0,0,1-.2-1.8,1.2,1.2,0,0,1,1.7-.2A1.3,1.3,0,0,1,154.4,103.5Z"/><path class="g" d="M157.9,104.8a1.2,1.2,0,0,1-1.6.9,1.1,1.1,0,0,1-.8-1.6,1.3,1.3,0,0,1,1.5-.8A1.3,1.3,0,0,1,157.9,104.8Z"/><path class="g" d="M161.6,104.8a1.2,1.2,0,0,1-1.2,1.4c-.8,0-1.4-.5-1.3-1.2a1.3,1.3,0,0,1,2.5-.2Z"/><path class="g" d="M165.1,103.6a1.3,1.3,0,0,1-.6,1.7,1.2,1.2,0,0,1-1.7-.8,1.2,1.2,0,0,1,.7-1.5A1.3,1.3,0,0,1,165.1,103.6Z"/><path class="g" d="M168,101.2a1.3,1.3,0,0,1,0,1.8,1.4,1.4,0,0,1-1.9-.1,1.3,1.3,0,0,1,.1-1.7A1.4,1.4,0,0,1,168,101.2Z"/><path class="g" d="M169.8,97.9a1.1,1.1,0,0,1,.6,1.7,1.2,1.2,0,0,1-1.7.6,1.3,1.3,0,0,1-.5-1.7A1.4,1.4,0,0,1,169.8,97.9Z"/><path class="g" d="M170.5,94.3a1.2,1.2,0,1,1-.3,2.4,1.3,1.3,0,0,1-1.1-1.3A1.4,1.4,0,0,1,170.5,94.3Z"/><path class="g" d="M169.8,90.6a1.2,1.2,0,0,1,1.6.9,1.1,1.1,0,0,1-.2,1,.8.8,0,0,1-.8.5,1,1,0,0,1-.9-.2c-.3-.2-.5-.4-.5-.7A1.2,1.2,0,0,1,169.8,90.6Z"/><path class="g" d="M168,87.4a1.2,1.2,0,0,1,1.8.3,1.3,1.3,0,0,1-.5,1.8,1.2,1.2,0,0,1-1.6-.4A1.3,1.3,0,0,1,168,87.4Z"/><path class="g" d="M165.1,85a1.3,1.3,0,1,1,2,1.5,1.5,1.5,0,0,1-1.7.2A1.4,1.4,0,0,1,165.1,85Z"/><path class="g" d="M161.6,83.7a1.2,1.2,0,0,1,1.6-.9,1.1,1.1,0,0,1,.8,1.6,1.3,1.3,0,0,1-1.5.8A1.3,1.3,0,0,1,161.6,83.7Z"/><path class="g" d="M157.9,83.7a1.2,1.2,0,0,1,1.2-1.4c.7,0,1.4.5,1.3,1.2a1.3,1.3,0,0,1-2.5.2Z"/><path class="g" d="M154.4,84.9a1.2,1.2,0,0,1,.6-1.7,1.3,1.3,0,0,1,1.7.8,1.2,1.2,0,0,1-.7,1.5A1.2,1.2,0,0,1,154.4,84.9Z"/><path class="g" d="M151.5,87.3a1.2,1.2,0,1,1,1.7.1A1.4,1.4,0,0,1,151.5,87.3Z"/><path class="g" d="M149.7,90.6a1.2,1.2,0,0,1-.7-1.7,1.3,1.3,0,0,1,1.8-.6,1.6,1.6,0,0,1,.5,1.7A1.4,1.4,0,0,1,149.7,90.6Z"/><path class="g" d="M156.9,96.7a.9.9,0,0,1-1,.1,1.7,1.7,0,0,1-.9-.8,1.8,1.8,0,0,1,.1-1.3,1.2,1.2,0,0,1,.9-.5,1.8,1.8,0,0,1,1.4.9A1.8,1.8,0,0,1,156.9,96.7Z"/><path class="g" d="M160.4,97.9a1,1,0,0,1-.3,1,1.7,1.7,0,0,1-1.2.3,1.8,1.8,0,0,1-1.1-.7,1.2,1.2,0,0,1,.1-1,1.5,1.5,0,0,1,1.4-.8A1.9,1.9,0,0,1,160.4,97.9Z"/><path class="g" d="M163.3,95.5a1.2,1.2,0,0,1,.6.8,1.5,1.5,0,0,1-.3,1.2,1.4,1.4,0,0,1-1.1.5,1.1,1.1,0,0,1-.9-.5,1.5,1.5,0,0,1,.1-1.6A1.4,1.4,0,0,1,163.3,95.5Z"/><path class="g" d="M162.6,91.8a.9.9,0,0,1,1-.1,1.3,1.3,0,0,1,.8.8,1.5,1.5,0,0,1,0,1.3,1.2,1.2,0,0,1-.9.5,1.8,1.8,0,0,1-1.4-.9A1.8,1.8,0,0,1,162.6,91.8Z"/><path class="g" d="M159.1,90.6a1,1,0,0,1,.3-1,1.7,1.7,0,0,1,1.2-.3,1.3,1.3,0,0,1,1,.7.9.9,0,0,1,0,1,1.5,1.5,0,0,1-1.4.8A1.7,1.7,0,0,1,159.1,90.6Z"/><path class="g" d="M156.2,93a1.2,1.2,0,0,1-.6-.8,1.5,1.5,0,0,1,.3-1.2,1.8,1.8,0,0,1,1.1-.5,1.1,1.1,0,0,1,.9.5,1.5,1.5,0,0,1-.1,1.6A1.4,1.4,0,0,1,156.2,93Z"/><path class="c" d="M142.1,91.7a1.1,1.1,0,0,1-1-1.4,1.3,1.3,0,0,1,1.6-1,1.4,1.4,0,0,1,.9,1.5A1.3,1.3,0,0,1,142.1,91.7Z"/><path class="c" d="M142,95.5a1.1,1.1,0,0,1-.9-.4,1.3,1.3,0,0,1-.4-.9A1.2,1.2,0,0,1,142,93a1.2,1.2,0,0,1,1.2,1.2,1.6,1.6,0,0,1-.3.9A2.5,2.5,0,0,1,142,95.5Z"/><path class="c" d="M142.7,99.1a1.2,1.2,0,1,1,.9-1.4A1.3,1.3,0,0,1,142.7,99.1Z"/><path class="c" d="M144,102.6a1.4,1.4,0,0,1-1.7-.6,1.4,1.4,0,0,1,.7-1.7,1.3,1.3,0,0,1,1.6.6A1.3,1.3,0,0,1,144,102.6Z"/><path class="c" d="M146.1,105.7a1.3,1.3,0,1,1-1.4-2.1,1.2,1.2,0,0,1,1.6.4A1.3,1.3,0,0,1,146.1,105.7Z"/><path class="c" d="M148.8,108.2a1.2,1.2,0,1,1-1.9-1.6,1.4,1.4,0,0,1,1.8-.1A1.4,1.4,0,0,1,148.8,108.2Z"/><path class="c" d="M151.9,110.2a1.2,1.2,0,0,1-1.7.5,1.1,1.1,0,0,1-.4-1.7,1.4,1.4,0,0,1,1.7-.5A1.4,1.4,0,0,1,151.9,110.2Z"/><path class="c" d="M155.4,111.5a1.2,1.2,0,0,1-1.6.8,1.3,1.3,0,0,1-.8-1.6,1.4,1.4,0,0,1,1.6-.7A1.2,1.2,0,0,1,155.4,111.5Z"/><path class="c" d="M159.1,112a1.3,1.3,0,0,1-1.4,1.2,1.3,1.3,0,0,1-1.1-1.5,1.4,1.4,0,0,1,1.4-1A1.3,1.3,0,0,1,159.1,112Z"/><path class="c" d="M162.8,111.8a1.3,1.3,0,0,1-1.1,1.4,1.3,1.3,0,0,1-1.4-1.2,1.3,1.3,0,0,1,1.1-1.3A1.2,1.2,0,0,1,162.8,111.8Z"/><path class="c" d="M166.4,110.7a1.3,1.3,0,0,1-.8,1.7,1.3,1.3,0,0,1-1.6-.9,1.3,1.3,0,0,1,2.4-.8Z"/><path class="c" d="M169.7,109a1.3,1.3,0,0,1-.5,1.8,1.2,1.2,0,0,1-1.7-.6,1.2,1.2,0,0,1,.5-1.6A1.3,1.3,0,0,1,169.7,109Z"/><path class="c" d="M172.5,106.6a1.2,1.2,0,1,1-1.8,1.7,1.1,1.1,0,0,1,.1-1.7A1.2,1.2,0,0,1,172.5,106.6Z"/><path class="c" d="M174.8,103.7a1.3,1.3,0,1,1-1.5,2,1.4,1.4,0,0,1-.2-1.7A1.3,1.3,0,0,1,174.8,103.7Z"/><path class="c" d="M176.5,100.4a1.1,1.1,0,0,1,.6,1.6,1.2,1.2,0,0,1-1.7.6,1.2,1.2,0,1,1,1.1-2.2Z"/><path class="c" d="M177.3,96.8a1.1,1.1,0,0,1,1,1.4,1.1,1.1,0,0,1-1.5,1,1.4,1.4,0,0,1-.9-1.5A1.2,1.2,0,0,1,177.3,96.8Z"/><path class="c" d="M177.5,93a1.1,1.1,0,0,1,.9.4,1.3,1.3,0,0,1,.4.9,1.2,1.2,0,0,1-1.3,1.2,1.2,1.2,0,0,1-1.2-1.2,1.1,1.1,0,0,1,.3-.8A1.3,1.3,0,0,1,177.5,93Z"/><path class="c" d="M176.8,89.4a1.3,1.3,0,0,1,1.6.9,1.2,1.2,0,0,1-1,1.5,1.3,1.3,0,0,1-1.5-1A1.3,1.3,0,0,1,176.8,89.4Z"/><path class="c" d="M175.5,85.9a1.2,1.2,0,0,1,1.6.6,1.3,1.3,0,0,1-.6,1.7,1.3,1.3,0,0,1-1.6-.6A1.3,1.3,0,0,1,175.5,85.9Z"/><path class="c" d="M173.4,82.9a1.2,1.2,0,0,1,1.8.2,1.3,1.3,0,0,1-.4,1.8,1.4,1.4,0,0,1-1.7-.3A1.3,1.3,0,0,1,173.4,82.9Z"/><path class="c" d="M170.7,80.3a1.2,1.2,0,0,1,1.8-.2,1.3,1.3,0,0,1,.1,1.8,1.4,1.4,0,0,1-1.8.1A1.2,1.2,0,0,1,170.7,80.3Z"/><path class="c" d="M167.6,78.3a1.2,1.2,0,0,1,1.7-.5,1.2,1.2,0,0,1,.4,1.7,1.4,1.4,0,0,1-1.7.5A1.4,1.4,0,0,1,167.6,78.3Z"/><path class="c" d="M164.1,77c.1-.7.8-1,1.6-.8a1.1,1.1,0,0,1,.7,1.6,1.3,1.3,0,0,1-1.5.8A1.3,1.3,0,0,1,164.1,77Z"/><path class="c" d="M160.4,76.5a1.3,1.3,0,0,1,1.4-1.2,1.3,1.3,0,0,1,1.1,1.5,1.4,1.4,0,0,1-1.4,1A1.2,1.2,0,0,1,160.4,76.5Z"/><path class="c" d="M156.7,76.7a1.2,1.2,0,0,1,1.1-1.4,1.4,1.4,0,0,1,1.4,1.2,1.3,1.3,0,0,1-1.2,1.3A1.2,1.2,0,0,1,156.7,76.7Z"/><path class="c" d="M153.1,77.8a1.3,1.3,0,0,1,.8-1.7,1.3,1.3,0,0,1,1.6.9,1.3,1.3,0,0,1-2.4.8Z"/><path class="c" d="M149.8,79.5a1.2,1.2,0,0,1,.4-1.7,1.2,1.2,0,0,1,1.8.5,1.3,1.3,0,0,1-.5,1.6A1.3,1.3,0,0,1,149.8,79.5Z"/><path class="c" d="M147,81.9a1.2,1.2,0,1,1,1.8-1.7,1.2,1.2,0,0,1-.1,1.7A1.2,1.2,0,0,1,147,81.9Z"/><path class="c" d="M144.7,84.8a1.3,1.3,0,1,1,1.5-2,1.4,1.4,0,0,1,.2,1.7A1.3,1.3,0,0,1,144.7,84.8Z"/><path class="c" d="M143,88.1a1.1,1.1,0,0,1-.6-1.6,1.2,1.2,0,0,1,1.7-.6,1.2,1.2,0,1,1-1.1,2.2Z"/><path class="g" d="M134.7,89a1.2,1.2,0,1,1,.6-2.4,1.2,1.2,0,0,1,.8,1.5A1.1,1.1,0,0,1,134.7,89Z"/><path class="g" d="M134.2,92.8a1.4,1.4,0,0,1-1.2-1.4,1.2,1.2,0,0,1,1.4-1.1,1.2,1.2,0,0,1,1.1,1.3A1.3,1.3,0,0,1,134.2,92.8Z"/><path class="g" d="M134.2,96.5a1.3,1.3,0,0,1-.1-2.5,1.3,1.3,0,0,1,1.3,1.2A1.4,1.4,0,0,1,134.2,96.5Z"/><path class="g" d="M134.8,100.2a1.3,1.3,0,0,1-1.5-1,1.3,1.3,0,0,1,1.1-1.5,1.3,1.3,0,0,1,1.4,1A1.3,1.3,0,0,1,134.8,100.2Z"/><path class="g" d="M136,103.7a1.2,1.2,0,0,1-1.7-.7,1.3,1.3,0,0,1,2.4-.8A1.2,1.2,0,0,1,136,103.7Z"/><path class="g" d="M137.6,107.1a1.2,1.2,0,0,1-1.7-.5,1.2,1.2,0,0,1,.5-1.7,1.4,1.4,0,0,1,1.7.5A1.3,1.3,0,0,1,137.6,107.1Z"/><path class="g" d="M139.7,110.2a1.3,1.3,0,0,1-1.8-.3,1.3,1.3,0,0,1,2.1-1.4A1.4,1.4,0,0,1,139.7,110.2Z"/><path class="g" d="M142.2,113a1.2,1.2,0,0,1-1.8-.1,1.1,1.1,0,0,1,.1-1.7,1.1,1.1,0,0,1,1.7,0A1.3,1.3,0,0,1,142.2,113Z"/><path class="g" d="M145.2,115.3a1.3,1.3,0,0,1-1.8.3,1.2,1.2,0,0,1-.2-1.8,1.2,1.2,0,0,1,1.7-.2A1.4,1.4,0,0,1,145.2,115.3Z"/><path class="g" d="M148.4,117.2a1.2,1.2,0,0,1-1.7.5,1.1,1.1,0,0,1-.5-1.7,1.3,1.3,0,0,1,1.7-.5A1.4,1.4,0,0,1,148.4,117.2Z"/><path class="g" d="M151.8,118.6a1.2,1.2,0,0,1-1.6.8,1.3,1.3,0,0,1-.7-1.7,1.4,1.4,0,0,1,1.6-.7A1.3,1.3,0,0,1,151.8,118.6Z"/><path class="g" d="M155.5,119.5a1.3,1.3,0,0,1-1.5,1,1.2,1.2,0,0,1-1-1.5,1.4,1.4,0,0,1,1.5-1A1.4,1.4,0,0,1,155.5,119.5Z"/><path class="g" d="M159.2,119.9a1.3,1.3,0,0,1-1.4,1.2,1.2,1.2,0,0,1-1.1-1.4,1.2,1.2,0,0,1,1.3-1.1A1.3,1.3,0,0,1,159.2,119.9Z"/><path class="g" d="M162.9,119.7a1.1,1.1,0,0,1-1.1,1.3,1.2,1.2,0,0,1-1.4-1.1,1.2,1.2,0,0,1,1.2-1.3A1.2,1.2,0,0,1,162.9,119.7Z"/><path class="g" d="M166.6,118.9a1.3,1.3,0,0,1-.9,1.6,1.2,1.2,0,0,1-1.5-1,1.2,1.2,0,0,1,.9-1.5A1.4,1.4,0,0,1,166.6,118.9Z"/><path class="g" d="M170.1,117.7a1.2,1.2,0,0,1-2.3.9,1.2,1.2,0,1,1,2.3-.9Z"/><path class="g" d="M173.4,115.9a1.3,1.3,0,0,1-.4,1.8,1.3,1.3,0,0,1-1.8-.6,1.3,1.3,0,0,1,.5-1.6A1.3,1.3,0,0,1,173.4,115.9Z"/><path class="g" d="M176.4,113.7a1.2,1.2,0,0,1-.2,1.8,1.2,1.2,0,0,1-1.7-.3,1.2,1.2,0,1,1,1.9-1.5Z"/><path class="g" d="M179.1,111.1a1.2,1.2,0,0,1,0,1.8,1.3,1.3,0,0,1-1.8,0,1.5,1.5,0,0,1,0-1.8A1.4,1.4,0,0,1,179.1,111.1Z"/><path class="g" d="M181.3,108.1a1.2,1.2,0,0,1,.3,1.7,1.6,1.6,0,0,1-.8.6,1.4,1.4,0,0,1-.9-.3,1,1,0,0,1-.5-.8,1,1,0,0,1,.2-.9A1.2,1.2,0,0,1,181.3,108.1Z"/><path class="g" d="M183.1,104.8a1.3,1.3,0,0,1,.6,1.7,1.4,1.4,0,0,1-1.8.5,1.3,1.3,0,0,1-.5-1.7A1.4,1.4,0,0,1,183.1,104.8Z"/><path class="g" d="M184.4,101.3a1.3,1.3,0,0,1,.8,1.6,1.1,1.1,0,0,1-1.6.7,1.2,1.2,0,0,1-.8-1.5A1.2,1.2,0,0,1,184.4,101.3Z"/><path class="g" d="M185.1,97.6a1.3,1.3,0,0,1,1.1,1.5,1.3,1.3,0,1,1-2.5-.5A1.4,1.4,0,0,1,185.1,97.6Z"/><path class="g" d="M185.3,93.9a1.3,1.3,0,0,1,1.3,1.3,1.3,1.3,0,0,1-1.3,1.2,1.4,1.4,0,0,1-1.2-1.3A1.2,1.2,0,0,1,185.3,93.9Z"/><path class="g" d="M185,90.2a1.2,1.2,0,0,1,1,.2,1.9,1.9,0,0,1,.5.9,1.2,1.2,0,0,1-1.2,1.3,1.1,1.1,0,0,1-1.3-1.1c-.1-.3.1-.6.3-.9A.8.8,0,0,1,185,90.2Z"/><path class="g" d="M184.2,86.5a1.2,1.2,0,0,1,1.5.9,1.1,1.1,0,0,1-.9,1.5,1.2,1.2,0,0,1-1.5-.9A1.2,1.2,0,0,1,184.2,86.5Z"/><path class="g" d="M182.8,83a1.3,1.3,0,0,1,1,2.3,1.3,1.3,0,0,1-1.7-.6A1.5,1.5,0,0,1,182.8,83Z"/><path class="g" d="M180.9,79.8a1.3,1.3,0,0,1,1.8.4,1.2,1.2,0,0,1-.5,1.7,1.3,1.3,0,0,1-1.7-.4A1.3,1.3,0,0,1,180.9,79.8Z"/><path class="g" d="M178.6,76.9a1.1,1.1,0,0,1,1.7.1,1.3,1.3,0,0,1-.1,1.8,1.4,1.4,0,0,1-1.8-.2A1.3,1.3,0,0,1,178.6,76.9Z"/><path class="g" d="M175.8,74.3a1.3,1.3,0,0,1,1.8-.1,1.2,1.2,0,0,1,.1,1.8,1.2,1.2,0,0,1-1.7.1A1.4,1.4,0,0,1,175.8,74.3Z"/><path class="g" d="M172.8,72.2a1.2,1.2,0,0,1,1.7-.4,1.2,1.2,0,0,1,.3,1.8,1.2,1.2,0,0,1-2-1.4Z"/><path class="g" d="M169.4,70.5a1.3,1.3,0,0,1,1.7-.6,1.2,1.2,0,0,1,.6,1.7,1.5,1.5,0,0,1-1.7.6A1.4,1.4,0,0,1,169.4,70.5Z"/><path class="g" d="M165.9,69.4a1.1,1.1,0,0,1,1.5-.9,1.3,1.3,0,0,1,.9,1.6,1.4,1.4,0,0,1-1.6.8A1.2,1.2,0,0,1,165.9,69.4Z"/><path class="g" d="M162.2,68.8a1.2,1.2,0,0,1,1.4-1.1,1.2,1.2,0,0,1,1,1.4,1.2,1.2,0,0,1-1.4,1A1.1,1.1,0,0,1,162.2,68.8Z"/><path class="g" d="M158.4,68.6a1.2,1.2,0,0,1,1.3-1.2,1.1,1.1,0,0,1,1.2,1.2,1.3,1.3,0,0,1-1.2,1.3A1.4,1.4,0,0,1,158.4,68.6Z"/><path class="g" d="M154.7,69.1a1.3,1.3,0,0,1,1.1-1.4,1.2,1.2,0,0,1,1.4,1.1,1.1,1.1,0,0,1-1.1,1.3C155.5,70.3,154.9,69.8,154.7,69.1Z"/><path class="g" d="M151.1,70.1a1.2,1.2,0,0,1,.9-1.5,1.1,1.1,0,0,1,1.5.8,1.2,1.2,0,0,1-.8,1.5A1.2,1.2,0,0,1,151.1,70.1Z"/><path class="g" d="M147.7,71.7a1.3,1.3,0,0,1,.6-1.8,1.4,1.4,0,0,1,1.7.7,1.4,1.4,0,0,1-.7,1.6A1.2,1.2,0,0,1,147.7,71.7Z"/><path class="g" d="M144.5,73.6a1.2,1.2,0,0,1,.4-1.7,1.2,1.2,0,0,1,1.7.4,1.3,1.3,0,0,1-.3,1.7A1.4,1.4,0,0,1,144.5,73.6Z"/><path class="g" d="M141.7,76.1a1.2,1.2,0,0,1,.1-1.8,1.2,1.2,0,1,1-.1,1.8Z"/><path class="g" d="M139.2,78.9a1.3,1.3,0,0,1-.1-1.8,1.2,1.2,0,0,1,1.7-.1,1.2,1.2,0,0,1,.2,1.7A1.4,1.4,0,0,1,139.2,78.9Z"/><path class="g" d="M137.2,82a1.2,1.2,0,0,1-.4-1.7,1.2,1.2,0,0,1,1.7-.4,1.3,1.3,0,0,1,.4,1.7A1.2,1.2,0,0,1,137.2,82Z"/><path class="g" d="M135.7,85.4a1.1,1.1,0,0,1-.7-1.6,1.1,1.1,0,0,1,1.7-.6,1.2,1.2,0,0,1,.6,1.6A1.2,1.2,0,0,1,135.7,85.4Z"/><path class="g" d="M129.7,87.2a1.1,1.1,0,0,1-.9-1.5,1.2,1.2,0,1,1,.9,1.5Z"/><path class="g" d="M129,90.9a1.3,1.3,0,1,1,.4-2.5,1.3,1.3,0,0,1,1,1.4A1.2,1.2,0,0,1,129,90.9Z"/><path class="g" d="M128.9,94.6a1.3,1.3,0,0,1-1.3-1.3,1.2,1.2,0,0,1,1.3-1.2,1.3,1.3,0,0,1,1.2,1.3A1.2,1.2,0,0,1,128.9,94.6Z"/><path class="g" d="M129.1,98.3a1.2,1.2,0,1,1-.2-2.4,1.2,1.2,0,0,1,1.3,1.1A1.2,1.2,0,0,1,129.1,98.3Z"/><path class="g" d="M129.8,102a1.2,1.2,0,0,1-1.5-1,1.2,1.2,0,0,1,1-1.4,1.2,1.2,0,0,1,1.5.9A1.3,1.3,0,0,1,129.8,102Z"/><path class="g" d="M131,105.5a1.1,1.1,0,0,1-1.6-.7,1.2,1.2,0,1,1,2.3-.8A1.1,1.1,0,0,1,131,105.5Z"/><path class="g" d="M132.6,108.9a1.2,1.2,0,0,1-1.7-.5,1.1,1.1,0,0,1,.6-1.7,1.2,1.2,0,0,1,1.6.6A1.2,1.2,0,0,1,132.6,108.9Z"/><path class="g" d="M134.5,112.1a1.2,1.2,0,0,1-1.7-.4,1.2,1.2,0,0,1,.4-1.7,1.3,1.3,0,0,1,1.7.4A1.3,1.3,0,0,1,134.5,112.1Z"/><path class="g" d="M136.8,115a1.2,1.2,0,0,1-1.7-.1,1.2,1.2,0,0,1,.2-1.8,1.2,1.2,0,0,1,1.7.2A1.2,1.2,0,0,1,136.8,115Z"/><path class="g" d="M139.5,117.6a1.2,1.2,0,1,1-1.8-1.7,1.2,1.2,0,0,1,1.8,1.7Z"/><path class="g" d="M142.5,119.9a1.3,1.3,0,1,1-2-1.5,1.2,1.2,0,0,1,1.7-.2A1.2,1.2,0,0,1,142.5,119.9Z"/><path class="g" d="M145.7,121.8a1.3,1.3,0,0,1-1.7.5,1.3,1.3,0,0,1-.5-1.7,1.3,1.3,0,0,1,1.7-.5A1.3,1.3,0,0,1,145.7,121.8Z"/><path class="g" d="M149.1,123.3a1.3,1.3,0,0,1-1.6.7,1.3,1.3,0,0,1-.7-1.7,1.5,1.5,0,0,1,1.7-.7A1.5,1.5,0,0,1,149.1,123.3Z"/><path class="g" d="M152.7,124.3a1.1,1.1,0,0,1-1.5.9,1.2,1.2,0,1,1,1.5-.9Z"/><path class="g" d="M156.4,125a1.4,1.4,0,0,1-1.4,1.1,1.3,1.3,0,0,1-1.1-1.5,1.3,1.3,0,0,1,1.4-1A1.2,1.2,0,0,1,156.4,125Z"/><path class="g" d="M160.1,125.1a1.3,1.3,0,0,1-1.3,1.3,1.2,1.2,0,0,1-1.2-1.3,1.3,1.3,0,0,1,1.3-1.2A1.2,1.2,0,0,1,160.1,125.1Z"/><path class="g" d="M163.8,124.9a1.2,1.2,0,1,1-2.4.2,1.1,1.1,0,0,1,1.1-1.3A1.2,1.2,0,0,1,163.8,124.9Z"/><path class="g" d="M167.5,124.2a1.3,1.3,0,0,1-1,1.5,1.3,1.3,0,0,1-1.5-1,1.4,1.4,0,0,1,1-1.5A1.3,1.3,0,0,1,167.5,124.2Z"/><path class="g" d="M171,123a1.1,1.1,0,0,1-.7,1.6,1.2,1.2,0,0,1-1.6-.8,1.2,1.2,0,0,1,.8-1.5A1.2,1.2,0,0,1,171,123Z"/><path class="g" d="M174.4,121.4a1.2,1.2,0,0,1-.5,1.7,1.1,1.1,0,0,1-1.7-.6,1.2,1.2,0,0,1,.6-1.6A1.2,1.2,0,0,1,174.4,121.4Z"/><path class="g" d="M177.6,119.5a1.2,1.2,0,0,1-.4,1.7,1.2,1.2,0,0,1-1.7-.4,1.3,1.3,0,0,1,.4-1.7A1.3,1.3,0,0,1,177.6,119.5Z"/><path class="g" d="M180.5,117.1a1.3,1.3,0,0,1-.1,1.8,1.2,1.2,0,0,1-1.8-.2,1.2,1.2,0,0,1,1.9-1.6Z"/><path class="g" d="M183.1,114.5a1.2,1.2,0,1,1-1.7,1.8,1.2,1.2,0,0,1,1.7-1.8Z"/><path class="g" d="M185.4,111.5a1.3,1.3,0,1,1-1.5,2,1.2,1.2,0,0,1-.2-1.7A1.2,1.2,0,0,1,185.4,111.5Z"/><path class="g" d="M187.3,108.3a1.3,1.3,0,0,1,.5,1.7,1.3,1.3,0,0,1-1.7.5,1.3,1.3,0,0,1-.5-1.7A1.3,1.3,0,0,1,187.3,108.3Z"/><path class="g" d="M188.8,104.9a1.3,1.3,0,0,1,.7,1.6,1.3,1.3,0,0,1-1.7.7,1.5,1.5,0,0,1-.7-1.7A1.3,1.3,0,0,1,188.8,104.9Z"/><path class="g" d="M189.8,101.3a1.1,1.1,0,0,1,.9,1.5,1.3,1.3,0,0,1-1.6.9,1.2,1.2,0,0,1-.8-1.5A1.2,1.2,0,0,1,189.8,101.3Z"/><path class="g" d="M190.5,97.6a1.4,1.4,0,0,1,1.1,1.4,1.3,1.3,0,0,1-1.5,1.1,1.3,1.3,0,0,1-1-1.4A1.2,1.2,0,0,1,190.5,97.6Z"/><path class="g" d="M190.6,93.9a1.3,1.3,0,0,1,1.3,1.3,1.3,1.3,0,1,1-2.5-.1A1.2,1.2,0,0,1,190.6,93.9Z"/><path class="g" d="M190.4,90.2a1.2,1.2,0,1,1-1.1,1.3A1.2,1.2,0,0,1,190.4,90.2Z"/><path class="g" d="M189.7,86.5a1.2,1.2,0,0,1,1.5,1,1.2,1.2,0,0,1-1,1.4,1.2,1.2,0,0,1-1.5-.9A1.3,1.3,0,0,1,189.7,86.5Z"/><path class="g" d="M188.5,83a1.1,1.1,0,0,1,1.6.7,1.2,1.2,0,0,1-.8,1.6,1.1,1.1,0,0,1-1.5-.8A1.1,1.1,0,0,1,188.5,83Z"/><path class="g" d="M186.9,79.6a1.3,1.3,0,0,1,1.7.5,1.1,1.1,0,0,1-.6,1.7,1.2,1.2,0,0,1-1.6-.6A1.2,1.2,0,0,1,186.9,79.6Z"/><path class="g" d="M185,76.4a1.2,1.2,0,0,1,1.7.4,1.2,1.2,0,0,1-.4,1.7,1.3,1.3,0,0,1-1.7-.4A1.2,1.2,0,0,1,185,76.4Z"/><path class="g" d="M182.6,73.5a1.2,1.2,0,1,1-.1,1.7A1.2,1.2,0,0,1,182.6,73.5Z"/><path class="g" d="M180,70.9a1.2,1.2,0,1,1,0,1.7A1.2,1.2,0,0,1,180,70.9Z"/><path class="g" d="M177,68.6a1.3,1.3,0,0,1,1.7-.3,1.2,1.2,0,0,1,.3,1.8,1.2,1.2,0,0,1-1.7.2A1.2,1.2,0,0,1,177,68.6Z"/><path class="g" d="M173.8,66.7a1.3,1.3,0,0,1,1.7-.5,1.3,1.3,0,0,1,.5,1.7,1.3,1.3,0,0,1-1.7.5A1.3,1.3,0,0,1,173.8,66.7Z"/><path class="g" d="M170.4,65.2a1.3,1.3,0,0,1,2.3,1,1.5,1.5,0,0,1-1.7.7A1.3,1.3,0,0,1,170.4,65.2Z"/><path class="g" d="M166.8,64.2a1.1,1.1,0,0,1,1.5-.9,1.3,1.3,0,0,1,.9,1.6,1.2,1.2,0,0,1-1.5.8A1.2,1.2,0,0,1,166.8,64.2Z"/><path class="g" d="M163.1,63.6a1.4,1.4,0,0,1,1.4-1.2,1.5,1.5,0,0,1,1.1,1.5,1.3,1.3,0,0,1-1.4,1A1.2,1.2,0,0,1,163.1,63.6Z"/><path class="g" d="M159.4,63.4a1.3,1.3,0,0,1,1.3-1.3,1.2,1.2,0,0,1,1.2,1.3,1.3,1.3,0,0,1-1.3,1.2A1.2,1.2,0,0,1,159.4,63.4Z"/><path class="g" d="M155.7,63.6a1.2,1.2,0,1,1,1.3,1.1A1.2,1.2,0,0,1,155.7,63.6Z"/><path class="g" d="M152,64.3a1.2,1.2,0,1,1,2.4-.5,1.3,1.3,0,0,1-.9,1.5A1.3,1.3,0,0,1,152,64.3Z"/><path class="g" d="M148.5,65.5a1.1,1.1,0,0,1,.7-1.6,1.2,1.2,0,0,1,1.6.8,1.2,1.2,0,0,1-.8,1.5A1.1,1.1,0,0,1,148.5,65.5Z"/><path class="g" d="M145.1,67.1a1.2,1.2,0,0,1,.5-1.7,1.1,1.1,0,0,1,1.7.6,1.2,1.2,0,0,1-.6,1.6A1.2,1.2,0,0,1,145.1,67.1Z"/><path class="g" d="M141.9,69a1.2,1.2,0,0,1,.4-1.7,1.2,1.2,0,0,1,1.7.4,1.3,1.3,0,0,1-.4,1.7A1.2,1.2,0,0,1,141.9,69Z"/><path class="g" d="M139,71.4a1.3,1.3,0,0,1,.1-1.8,1.2,1.2,0,0,1,1.8.2,1.2,1.2,0,0,1-1.9,1.6Z"/><path class="g" d="M136.4,74a1.2,1.2,0,1,1,1.7,0A1.2,1.2,0,0,1,136.4,74Z"/><path class="g" d="M134.1,77a1.3,1.3,0,0,1-.3-1.8,1.3,1.3,0,0,1,1.8-.2,1.2,1.2,0,0,1,.2,1.7A1.2,1.2,0,0,1,134.1,77Z"/><path class="g" d="M132.2,80.2a1.3,1.3,0,0,1-.5-1.7,1.3,1.3,0,0,1,1.7-.5,1.3,1.3,0,0,1,.5,1.7A1.3,1.3,0,0,1,132.2,80.2Z"/><path class="g" d="M130.7,83.6A1.3,1.3,0,0,1,130,82a1.3,1.3,0,0,1,1.7-.7,1.3,1.3,0,0,1,.6,1.7A1.1,1.1,0,0,1,130.7,83.6Z"/><path class="c" d="M123.7,85.1a1.3,1.3,0,0,1-.9-1.6,1.2,1.2,0,0,1,1.6-.8,1.2,1.2,0,0,1,.8,1.5A1.4,1.4,0,0,1,123.7,85.1Z"/><path class="c" d="M122.9,88.8a1.3,1.3,0,0,1-1-1.5,1.2,1.2,0,0,1,1.5-1,1.2,1.2,0,0,1,1,1.4A1.3,1.3,0,0,1,122.9,88.8Z"/><path class="c" d="M122.5,92.5a1.1,1.1,0,0,1-1.1-1.3,1.3,1.3,0,1,1,2.5.2A1.4,1.4,0,0,1,122.5,92.5Z"/><path class="c" d="M122.6,96.3a1.3,1.3,0,0,1-.1-2.5,1.2,1.2,0,0,1,1.3,1.2A1.4,1.4,0,0,1,122.6,96.3Z"/><path class="c" d="M123,100a1.2,1.2,0,0,1-1-.2,1.3,1.3,0,0,1-.4-.9,1.2,1.2,0,0,1,1.1-1.4,1.4,1.4,0,0,1,1.4,1.1,1.7,1.7,0,0,1-.3,1A1.2,1.2,0,0,1,123,100Z"/><path class="c" d="M123.8,103.7a1.2,1.2,0,0,1-1.6-.9,1.3,1.3,0,0,1,1-1.5,1.3,1.3,0,0,1,1.5.9A1.3,1.3,0,0,1,123.8,103.7Z"/><path class="c" d="M124.9,107.3a1.2,1.2,0,0,1-1.6-.8,1.3,1.3,0,1,1,1.6.8Z"/><path class="c" d="M126.4,110.8a1.3,1.3,0,0,1-1.7-.6,1.2,1.2,0,0,1,.7-1.7,1.2,1.2,0,0,1,1.6.6A1.4,1.4,0,0,1,126.4,110.8Z"/><path class="c" d="M128.2,114.1a1.3,1.3,0,0,1-1.7-.5,1.3,1.3,0,0,1,.5-1.7,1.3,1.3,0,0,1,1.7.5A1.3,1.3,0,0,1,128.2,114.1Z"/><path class="c" d="M130.4,117.1a1.2,1.2,0,0,1-1.8-.2,1.4,1.4,0,0,1,.3-1.8,1.2,1.2,0,0,1,1.7.3A1.1,1.1,0,0,1,130.4,117.1Z"/><path class="c" d="M132.9,120a1.3,1.3,0,0,1-1.7-1.9,1.4,1.4,0,0,1,1.7.1A1.3,1.3,0,0,1,132.9,120Z"/><path class="c" d="M135.6,122.6a1.2,1.2,0,1,1-1.8-1.7,1.2,1.2,0,0,1,1.7-.1A1.3,1.3,0,0,1,135.6,122.6Z"/><path class="c" d="M138.6,124.9a1.4,1.4,0,0,1-1.8.3,1.3,1.3,0,0,1-.2-1.8,1.3,1.3,0,0,1,1.7-.3A1.3,1.3,0,0,1,138.6,124.9Z"/><path class="c" d="M141.8,126.8a1.1,1.1,0,0,1-1.7.5,1.1,1.1,0,0,1-.4-1.7,1.3,1.3,0,0,1,1.7-.4A1.1,1.1,0,0,1,141.8,126.8Z"/><path class="c" d="M145.2,128.5a1.3,1.3,0,0,1-1.7.6,1.3,1.3,0,0,1-.6-1.7,1.3,1.3,0,0,1,1.7-.5A1.1,1.1,0,0,1,145.2,128.5Z"/><path class="c" d="M148.7,129.8a1.3,1.3,0,0,1-1.6.8,1.1,1.1,0,0,1-.7-1.6,1.3,1.3,0,0,1,1.6-.8A1.2,1.2,0,0,1,148.7,129.8Z"/><path class="c" d="M152.4,130.7a1.3,1.3,0,0,1-1.5,1,1.2,1.2,0,0,1-.9-1.5,1.1,1.1,0,0,1,1.5-.9A1.2,1.2,0,0,1,152.4,130.7Z"/><path class="c" d="M156.1,131.3a1.2,1.2,0,0,1-1.4,1.1,1.3,1.3,0,0,1-1.1-1.4,1.4,1.4,0,0,1,1.4-1.1A1.2,1.2,0,0,1,156.1,131.3Z"/><path class="c" d="M159.9,131.5a1.3,1.3,0,0,1-1.3,1.2,1.2,1.2,0,0,1-1.2-1.3,1.2,1.2,0,0,1,1.3-1.2A1.3,1.3,0,0,1,159.9,131.5Z"/><path class="c" d="M163.7,131.2a1.4,1.4,0,0,1-1.2,1.4,1.2,1.2,0,0,1-1.3-1.1,1.3,1.3,0,0,1,1.1-1.4A1.4,1.4,0,0,1,163.7,131.2Z"/><path class="c" d="M167.4,130.7a1.2,1.2,0,0,1-1.1,1.4,1.1,1.1,0,0,1-1.4-1,1.3,1.3,0,0,1,1-1.4A1.2,1.2,0,0,1,167.4,130.7Z"/><path class="c" d="M171,129.7a1.3,1.3,0,0,1-.8,1.6,1.3,1.3,0,0,1-1.6-.9,1.2,1.2,0,0,1,.9-1.5A1.2,1.2,0,0,1,171,129.7Z"/><path class="c" d="M174.5,128.4a1.2,1.2,0,1,1-2.3.9,1.3,1.3,0,0,1,.7-1.6A1.2,1.2,0,0,1,174.5,128.4Z"/><path class="c" d="M177.9,126.7a1.2,1.2,0,0,1-.5,1.7,1.3,1.3,0,0,1-1.7-.5,1.3,1.3,0,0,1,.5-1.7A1.3,1.3,0,0,1,177.9,126.7Z"/><path class="c" d="M181.1,124.7a1.2,1.2,0,0,1-.3,1.7,1.3,1.3,0,0,1-1.8-.3,1.3,1.3,0,0,1,2.1-1.4Z"/><path class="c" d="M184.1,122.4a1.3,1.3,0,0,1-.2,1.8,1.3,1.3,0,1,1,.2-1.8Z"/><path class="c" d="M186.8,119.8a1.3,1.3,0,0,1-1.8,1.8,1.5,1.5,0,0,1,0-1.8A1.3,1.3,0,0,1,186.8,119.8Z"/><path class="c" d="M189.3,116.9a1.3,1.3,0,0,1,.1,1.8,1.2,1.2,0,0,1-1.7.2,1.3,1.3,0,0,1-.2-1.8A1.4,1.4,0,0,1,189.3,116.9Z"/><path class="c" d="M191.4,113.8a1.3,1.3,0,1,1-1.4,2.1,1.3,1.3,0,0,1-.3-1.7A1.3,1.3,0,0,1,191.4,113.8Z"/><path class="c" d="M193.2,110.5a1.1,1.1,0,0,1,.5,1.7,1.2,1.2,0,0,1-2.2-1.1A1.3,1.3,0,0,1,193.2,110.5Z"/><path class="c" d="M194.7,107a1.2,1.2,0,0,1,.7,1.7,1.4,1.4,0,0,1-1.7.7,1.3,1.3,0,0,1-.6-1.7A1.3,1.3,0,0,1,194.7,107Z"/><path class="c" d="M195.8,103.4a1.3,1.3,0,0,1,.9,1.6,1.2,1.2,0,0,1-1.6.8,1.2,1.2,0,0,1-.8-1.5A1.4,1.4,0,0,1,195.8,103.4Z"/><path class="c" d="M196.6,99.7a1.3,1.3,0,0,1,1,1.5,1.2,1.2,0,0,1-1.5,1,1.2,1.2,0,0,1-1-1.4A1.3,1.3,0,0,1,196.6,99.7Z"/><path class="c" d="M197,96a1.1,1.1,0,0,1,1.1,1.3,1.3,1.3,0,1,1-2.5-.2A1.4,1.4,0,0,1,197,96Z"/><path class="c" d="M196.9,92.2a1.3,1.3,0,0,1,1.3,1.3,1.2,1.2,0,0,1-1.2,1.2,1.2,1.2,0,0,1-1.3-1.2A1.3,1.3,0,0,1,196.9,92.2Z"/><path class="c" d="M196.5,88.5a1.2,1.2,0,0,1,1,.2,1.3,1.3,0,0,1,.4.9,1.2,1.2,0,0,1-1.1,1.4,1.4,1.4,0,0,1-1.4-1.1,1.2,1.2,0,0,1,.3-.9A1,1,0,0,1,196.5,88.5Z"/><path class="c" d="M195.7,84.8a1.1,1.1,0,0,1,1.5.9,1.2,1.2,0,1,1-2.4.6A1.3,1.3,0,0,1,195.7,84.8Z"/><path class="c" d="M194.6,81.2a1.3,1.3,0,0,1,1.6.8,1.3,1.3,0,1,1-1.6-.8Z"/><path class="c" d="M193.1,77.7a1.3,1.3,0,0,1,1.7.6,1.4,1.4,0,0,1-.7,1.7,1.2,1.2,0,0,1-1.6-.6A1.4,1.4,0,0,1,193.1,77.7Z"/><path class="c" d="M191.2,74.5a1.3,1.3,0,0,1,1.8.4,1.3,1.3,0,1,1-2.2,1.2A1.3,1.3,0,0,1,191.2,74.5Z"/><path class="c" d="M189.1,71.4a1.2,1.2,0,0,1,1.8.2,1.3,1.3,0,0,1-.4,1.8,1.3,1.3,0,0,1-1.7-.3A1.2,1.2,0,0,1,189.1,71.4Z"/><path class="c" d="M186.6,68.5a1.3,1.3,0,0,1,1.7,1.9,1.5,1.5,0,0,1-1.8-.1A1.4,1.4,0,0,1,186.6,68.5Z"/><path class="c" d="M183.9,65.9a1.4,1.4,0,0,1,1.8-.1,1.3,1.3,0,0,1,0,1.8,1.2,1.2,0,0,1-1.7.1A1.3,1.3,0,0,1,183.9,65.9Z"/><path class="c" d="M180.9,63.6a1.4,1.4,0,0,1,1.8-.3,1.3,1.3,0,1,1-1.8.3Z"/><path class="c" d="M177.7,61.7a1.2,1.2,0,0,1,1.7-.5,1.1,1.1,0,0,1,.4,1.7,1.3,1.3,0,0,1-1.7.4A1.1,1.1,0,0,1,177.7,61.7Z"/><path class="c" d="M174.3,60a1.3,1.3,0,0,1,2.3,1.1,1.5,1.5,0,0,1-1.7.6A1.3,1.3,0,0,1,174.3,60Z"/><path class="c" d="M170.7,58.7a1.4,1.4,0,0,1,1.6-.8,1.2,1.2,0,0,1,.8,1.6,1.3,1.3,0,1,1-2.4-.8Z"/><path class="c" d="M167.1,57.8a1.3,1.3,0,0,1,1.5-1,1.2,1.2,0,0,1,.9,1.6,1.2,1.2,0,1,1-2.4-.6Z"/><path class="c" d="M163.4,57.2a1.2,1.2,0,0,1,1.4-1.1,1.3,1.3,0,0,1,1.1,1.4,1.5,1.5,0,0,1-1.5,1.1A1.2,1.2,0,0,1,163.4,57.2Z"/><path class="c" d="M159.6,57.1a1.3,1.3,0,0,1,1.3-1.3,1.2,1.2,0,0,1,1.2,1.3,1.2,1.2,0,0,1-1.3,1.2A1.3,1.3,0,0,1,159.6,57.1Z"/><path class="c" d="M155.8,57.3a1.4,1.4,0,0,1,1.2-1.4,1.2,1.2,0,0,1,1.3,1.1,1.3,1.3,0,0,1-1.1,1.4A1.4,1.4,0,0,1,155.8,57.3Z"/><path class="c" d="M152.1,57.8a1.2,1.2,0,0,1,1-1.4,1.2,1.2,0,0,1,1.5,1,1.3,1.3,0,0,1-1,1.4A1.2,1.2,0,0,1,152.1,57.8Z"/><path class="c" d="M148.5,58.8a1.2,1.2,0,0,1,.8-1.6,1.3,1.3,0,0,1,1.6.9,1.4,1.4,0,0,1-.9,1.6A1.3,1.3,0,0,1,148.5,58.8Z"/><path class="c" d="M144.9,60.1a1.3,1.3,0,0,1,.8-1.6,1.2,1.2,0,0,1,1.6.7,1.3,1.3,0,0,1-.7,1.6A1.2,1.2,0,0,1,144.9,60.1Z"/><path class="c" d="M141.6,61.8a1.2,1.2,0,0,1,.5-1.7,1.3,1.3,0,0,1,1.7.5,1.3,1.3,0,0,1-.5,1.7A1.3,1.3,0,0,1,141.6,61.8Z"/><path class="c" d="M138.4,63.8a1.2,1.2,0,0,1,.3-1.7,1.3,1.3,0,0,1,1.8.3,1.4,1.4,0,0,1-.4,1.8A1.3,1.3,0,0,1,138.4,63.8Z"/><path class="c" d="M135.4,66.1a1.2,1.2,0,0,1,.2-1.8,1.3,1.3,0,0,1,1.6,2A1.4,1.4,0,0,1,135.4,66.1Z"/><path class="c" d="M132.7,68.7a1.3,1.3,0,0,1,0-1.8,1.2,1.2,0,0,1,1.8.1,1.2,1.2,0,0,1-.1,1.7A1.1,1.1,0,0,1,132.7,68.7Z"/><path class="c" d="M130.2,71.6a1.3,1.3,0,0,1-.1-1.8,1.2,1.2,0,0,1,1.9,1.6A1.4,1.4,0,0,1,130.2,71.6Z"/><path class="c" d="M128.1,74.7a1.3,1.3,0,0,1-.4-1.8,1.3,1.3,0,1,1,.4,1.8Z"/><path class="c" d="M126.2,78a1.3,1.3,0,0,1-.5-1.7,1.3,1.3,0,0,1,1.8-.5,1.3,1.3,0,0,1,.5,1.7A1.5,1.5,0,0,1,126.2,78Z"/><path class="c" d="M124.8,81.5a1.2,1.2,0,0,1-.7-1.7,1.4,1.4,0,0,1,1.7-.7,1.3,1.3,0,0,1,.6,1.7A1.3,1.3,0,0,1,124.8,81.5Z"/><path class="g" d="M118.6,85.2a1.9,1.9,0,0,1-1.4-2.3,1.8,1.8,0,0,1,2.4-1.3,1.7,1.7,0,0,1,1.2,2.2A1.9,1.9,0,0,1,118.6,85.2Z"/><path class="g" d="M117.8,90.7a1.8,1.8,0,0,1-1.7-2.1,1.8,1.8,0,0,1,2.1-1.6,1.9,1.9,0,0,1,1.6,2.1A1.8,1.8,0,0,1,117.8,90.7Z"/><path class="g" d="M117.6,96.4a1.9,1.9,0,1,1,0-3.8,1.9,1.9,0,0,1,0,3.8Z"/><path class="g" d="M118.3,102a1.9,1.9,0,0,1-2.2-1.6,2,2,0,0,1,1.7-2.2,2,2,0,0,1,2,1.7A1.9,1.9,0,0,1,118.3,102Z"/><path class="g" d="M119.7,107.4a1.8,1.8,0,0,1-2.3-1.3,1.7,1.7,0,0,1,.1-1.4,1.8,1.8,0,0,1,1.2-.9,2.2,2.2,0,0,1,1.4.2,2.4,2.4,0,0,1,.9,1.1A1.9,1.9,0,0,1,119.7,107.4Z"/><path class="g" d="M121.8,112.6a1.8,1.8,0,0,1-2.5-.9,1.9,1.9,0,0,1,1-2.5,1.9,1.9,0,1,1,1.5,3.4Z"/><path class="g" d="M124.6,117.5a1.9,1.9,0,1,1-1.9-3.2,1.9,1.9,0,0,1,2.5.7A1.8,1.8,0,0,1,124.6,117.5Z"/><path class="g" d="M128,122a1.7,1.7,0,0,1-2.6-.3,1.8,1.8,0,0,1,.2-2.6,2,2,0,0,1,2.7.3A1.9,1.9,0,0,1,128,122Z"/><path class="g" d="M132,126a1.9,1.9,0,1,1-2.7-2.6A1.9,1.9,0,0,1,132,126Z"/><path class="g" d="M136.5,129.4a1.8,1.8,0,0,1-2.7.4,1.8,1.8,0,0,1-.4-2.6,1.9,1.9,0,0,1,3.1,2.2Z"/><path class="g" d="M141.4,132.2a1.9,1.9,0,1,1-3.3-1.8,1.8,1.8,0,0,1,2.5-.7A1.9,1.9,0,0,1,141.4,132.2Z"/><path class="g" d="M146.6,134.3a1.7,1.7,0,0,1-2.4,1.1,1.9,1.9,0,0,1-1.1-2.5,1.9,1.9,0,0,1,2.4-1A2,2,0,0,1,146.6,134.3Z"/><path class="g" d="M152,135.7a1.7,1.7,0,0,1-2.2,1.4,1.8,1.8,0,0,1-1.4-2.3,1.9,1.9,0,0,1,2.2-1.3A1.8,1.8,0,0,1,152,135.7Z"/><path class="g" d="M157.6,136.4a1.8,1.8,0,0,1-2,1.7,1.9,1.9,0,0,1-1.7-2.1,1.9,1.9,0,1,1,3.7.4Z"/><path class="g" d="M163.3,136.3a1.9,1.9,0,0,1-1.8,2,2,2,0,0,1-2-1.9,1.9,1.9,0,0,1,1.8-1.9A2,2,0,0,1,163.3,136.3Z"/><path class="g" d="M168.8,135.4a1.8,1.8,0,0,1-1.5,2.2,1.8,1.8,0,0,1-2.2-1.5,2,2,0,0,1,1.6-2.2A1.9,1.9,0,0,1,168.8,135.4Z"/><path class="g" d="M174.2,133.8a1.9,1.9,0,0,1,0,1.5,2.2,2.2,0,0,1-1.2.9,1.8,1.8,0,0,1-2.3-1.2,1.9,1.9,0,0,1,1.2-2.4,2.4,2.4,0,0,1,1.4.2A1.8,1.8,0,0,1,174.2,133.8Z"/><path class="g" d="M179.4,131.5a1.9,1.9,0,0,1-.9,2.6,1.8,1.8,0,0,1-2.5-1,1.9,1.9,0,0,1,3.4-1.6Z"/><path class="g" d="M184.2,128.6a1.8,1.8,0,0,1-.6,2.6,1.8,1.8,0,0,1-2.6-.5,2,2,0,0,1,.6-2.6A1.9,1.9,0,0,1,184.2,128.6Z"/><path class="g" d="M188.5,125a1.6,1.6,0,0,1,.5,1.4,1.6,1.6,0,0,1-.6,1.3,1.9,1.9,0,0,1-2.7-.2,1.9,1.9,0,0,1,.2-2.6,2.4,2.4,0,0,1,1.4-.5A2.7,2.7,0,0,1,188.5,125Z"/><path class="g" d="M192.4,120.9a1.9,1.9,0,0,1,.2,2.7,1.8,1.8,0,0,1-2.7.1,1.9,1.9,0,0,1-.1-2.6A2,2,0,0,1,192.4,120.9Z"/><path class="g" d="M195.7,116.4a1.8,1.8,0,0,1,.5,2.6,1.9,1.9,0,1,1-3.1-2.1A1.8,1.8,0,0,1,195.7,116.4Z"/><path class="g" d="M198.3,111.3a1.9,1.9,0,0,1,.9,2.6,1.9,1.9,0,0,1-2.6.8,1.9,1.9,0,0,1-.8-2.5A2,2,0,0,1,198.3,111.3Z"/><path class="g" d="M200.2,106.1a1.9,1.9,0,1,1-1.2,3.5,1.9,1.9,0,0,1-1.1-2.4A1.8,1.8,0,0,1,200.2,106.1Z"/><path class="g" d="M201.5,100.6a1.8,1.8,0,0,1,1.4,2.2,1.9,1.9,0,0,1-2.2,1.5,2.1,2.1,0,0,1-1.5-2.3A2,2,0,0,1,201.5,100.6Z"/><path class="g" d="M201.9,95a1.8,1.8,0,0,1,1.8,1.9,1.9,1.9,0,0,1-2,1.8,1.8,1.8,0,0,1-1.7-2A1.7,1.7,0,0,1,201.9,95Z"/><path class="g" d="M201.6,89.3a2,2,0,0,1,2.1,1.8,1.9,1.9,0,1,1-3.8.2A2,2,0,0,1,201.6,89.3Z"/><path class="g" d="M200.6,83.8a1.8,1.8,0,0,1,2.2,1.4,1.9,1.9,0,0,1-1.4,2.3,1.9,1.9,0,0,1-2.2-1.5A1.8,1.8,0,0,1,200.6,83.8Z"/><path class="g" d="M198.8,78.5a1.9,1.9,0,0,1,2.5,1.1,2,2,0,0,1-1.2,2.4,1.9,1.9,0,0,1-2.4-1.2A1.8,1.8,0,0,1,198.8,78.5Z"/><path class="g" d="M196.4,73.4a1.8,1.8,0,0,1,2.5.8,1.7,1.7,0,0,1-.8,2.5,1.9,1.9,0,0,1-2.5-.8A1.9,1.9,0,0,1,196.4,73.4Z"/><path class="g" d="M193.2,68.7a1.9,1.9,0,1,1,2.2,3.1,2,2,0,0,1-2.6-.5A2,2,0,0,1,193.2,68.7Z"/><path class="g" d="M189.5,64.4a1.9,1.9,0,0,1,2.7.1,1.8,1.8,0,0,1,.5.7c0,.2.1.5,0,.7a1.6,1.6,0,0,1-.6,1.3,1.8,1.8,0,0,1-1.4.4h-.6l-.6-.4A2,2,0,0,1,189.5,64.4Z"/><path class="g" d="M185.3,60.7a1.9,1.9,0,0,1,2.7-.2,1.8,1.8,0,0,1,.2,2.6,1.9,1.9,0,0,1-2.6.3A2,2,0,0,1,185.3,60.7Z"/><path class="g" d="M180.6,57.6a1.9,1.9,0,0,1,2.6-.6,1.9,1.9,0,0,1,.6,2.6,1.9,1.9,0,0,1-2.6.6A2,2,0,0,1,180.6,57.6Z"/><path class="g" d="M175.5,55.2a1.9,1.9,0,0,1,2.5-1,1.8,1.8,0,0,1,1,2.5,1.9,1.9,0,0,1-2.5.9A1.9,1.9,0,0,1,175.5,55.2Z"/><path class="g" d="M170.2,53.4a1.9,1.9,0,0,1,2.3-1.3,1.9,1.9,0,0,1,1.3,2.4,1.9,1.9,0,0,1-2.3,1.2A1.9,1.9,0,0,1,170.2,53.4Z"/><path class="g" d="M164.7,52.4a1.8,1.8,0,0,1,2.1-1.6,1.9,1.9,0,0,1,1.6,2.2,2,2,0,0,1-2.2,1.5A1.8,1.8,0,0,1,164.7,52.4Z"/><path class="g" d="M159,52.1a2,2,0,0,1,2-1.9,1.9,1.9,0,0,1,1.8,2,1.9,1.9,0,0,1-1.9,1.8A2,2,0,0,1,159,52.1Z"/><path class="g" d="M153.4,52.5a1.8,1.8,0,0,1,1.7-2,1.9,1.9,0,0,1,2.1,1.7,2,2,0,0,1-1.7,2A2,2,0,0,1,153.4,52.5Z"/><path class="g" d="M147.9,53.8a1.8,1.8,0,0,1,1.4-2.3,1.9,1.9,0,1,1,.9,3.6A1.9,1.9,0,0,1,147.9,53.8Z"/><path class="g" d="M142.6,55.7a1.8,1.8,0,0,1,1.1-2.4,1.9,1.9,0,0,1,1.5,0,1.7,1.7,0,0,1,.9,1.1,1.7,1.7,0,0,1,0,1.4,2.4,2.4,0,0,1-1,1A2.1,2.1,0,0,1,142.6,55.7Z"/><path class="g" d="M137.7,58.4a1.8,1.8,0,0,1,.7-2.6,1.8,1.8,0,0,1,2.5.7,1.9,1.9,0,0,1-.7,2.6A2,2,0,0,1,137.7,58.4Z"/><path class="g" d="M133.1,61.6a1.9,1.9,0,1,1,3-2.2,2,2,0,0,1-.4,2.6A1.9,1.9,0,0,1,133.1,61.6Z"/><path class="g" d="M128.9,65.4a1.8,1.8,0,0,1,.1-2.6,1.7,1.7,0,0,1,2.6,0,1.9,1.9,0,1,1-2.7,2.6Z"/><path class="g" d="M125.4,69.8a1.9,1.9,0,1,1,2.3-2.9,1.9,1.9,0,0,1,.3,2.6A2,2,0,0,1,125.4,69.8Z"/><path class="g" d="M122.4,74.6a1.9,1.9,0,0,1-.7-2.6,1.8,1.8,0,0,1,2.6-.6,1.9,1.9,0,1,1-1.9,3.2Z"/><path class="g" d="M120.1,79.8a1.9,1.9,0,1,1,2.5-1.1A2,2,0,0,1,120.1,79.8Z"/><path class="g" d="M114.2,82.4a1.9,1.9,0,0,1-1.3-2.3,1.9,1.9,0,1,1,3.6,1.1A1.9,1.9,0,0,1,114.2,82.4Z"/><path class="g" d="M113.2,87.9a1.9,1.9,0,0,1-1.6-2.2,1.8,1.8,0,0,1,2.2-1.5,1.8,1.8,0,0,1,1.4,2.2A1.8,1.8,0,0,1,113.2,87.9Z"/><path class="g" d="M112.7,93.4a1.9,1.9,0,0,1-1.8-1.9,2.2,2.2,0,0,1,.6-1.4,2.3,2.3,0,0,1,1.4-.4,2.1,2.1,0,0,1,1.3.7,1.8,1.8,0,0,1,.4,1.3A1.7,1.7,0,0,1,112.7,93.4Z"/><path class="g" d="M112.9,99a1.9,1.9,0,0,1-2-1.7,1.8,1.8,0,0,1,1.8-2,2,2,0,0,1,2,1.7A1.9,1.9,0,0,1,112.9,99Z"/><path class="g" d="M113.8,104.5a1.8,1.8,0,0,1-2.2-1.5,1.9,1.9,0,1,1,2.2,1.5Z"/><path class="g" d="M115.4,109.8a1.8,1.8,0,0,1-2.4-1.2,1.8,1.8,0,0,1,1.3-2.3,1.8,1.8,0,0,1,1.1,3.5Z"/><path class="g" d="M117.6,115a2.1,2.1,0,0,1-2.6-.9,1.9,1.9,0,0,1,1-2.5,1.8,1.8,0,0,1,2.4.9A1.9,1.9,0,0,1,117.6,115Z"/><path class="g" d="M120.3,119.8a1.8,1.8,0,0,1-2.6-.6,1.8,1.8,0,0,1,.7-2.5,1.7,1.7,0,0,1,1.4-.2,1.5,1.5,0,0,1,1.1.8A1.8,1.8,0,0,1,120.3,119.8Z"/><path class="g" d="M123.6,124.3a1.8,1.8,0,0,1-2.7-.3,1.8,1.8,0,0,1,.4-2.6,1.9,1.9,0,0,1,2.6.3A2,2,0,0,1,123.6,124.3Z"/><path class="g" d="M127.4,128.4a2,2,0,0,1-1.4.6,1.9,1.9,0,0,1-1.3-.6,1.9,1.9,0,0,1,.1-2.7,1.9,1.9,0,0,1,2.6.1,1.5,1.5,0,0,1,.5,1.3A2.4,2.4,0,0,1,127.4,128.4Z"/><path class="g" d="M131.7,132a1.9,1.9,0,1,1-2.9-2.4,1.9,1.9,0,0,1,2.5-.2A1.9,1.9,0,0,1,131.7,132Z"/><path class="g" d="M136.3,135a1.9,1.9,0,0,1-2.6.7l-.6-.5a1.9,1.9,0,0,1-.2-.7,1.7,1.7,0,0,1,.3-1.4,1.5,1.5,0,0,1,1.1-.8.8.8,0,0,1,.7,0l.7.2A1.8,1.8,0,0,1,136.3,135Z"/><path class="g" d="M141.3,137.5a1.9,1.9,0,0,1-3.4-1.6,2.1,2.1,0,0,1,2.5-.9A1.9,1.9,0,0,1,141.3,137.5Z"/><path class="g" d="M146.5,139.4a1.8,1.8,0,0,1-2.3,1.2,1.9,1.9,0,0,1-1.2-2.4,2,2,0,0,1,2.4-1.2A1.9,1.9,0,0,1,146.5,139.4Z"/><path class="g" d="M152,140.7a1.8,1.8,0,0,1-2.2,1.4,1.7,1.7,0,0,1-1.4-2.2,1.8,1.8,0,0,1,2.2-1.4A2,2,0,0,1,152,140.7Z"/><path class="g" d="M157.5,141.2a1.5,1.5,0,0,1-.6,1.3l-.6.4h-.8a1.9,1.9,0,0,1-1.7-2.1,1.8,1.8,0,0,1,2-1.6l.7.2.6.4A1.8,1.8,0,0,1,157.5,141.2Z"/><path class="g" d="M163.1,141.2a1.9,1.9,0,1,1-3.7.1,1.9,1.9,0,0,1,3.7-.1Z"/><path class="g" d="M168.6,140.4a1.9,1.9,0,0,1-1.5,2.2,1.6,1.6,0,0,1-1.4-.3,2.2,2.2,0,0,1-.8-1.3,1.8,1.8,0,0,1,.4-1.3,2,2,0,0,1,1.2-.8A1.8,1.8,0,0,1,168.6,140.4Z"/><path class="g" d="M174,139.1a1.8,1.8,0,1,1-3.5,1,1.8,1.8,0,0,1,1.2-2.3A1.9,1.9,0,0,1,174,139.1Z"/><path class="g" d="M179.2,137.1a1.7,1.7,0,0,1-1,2.4,1.8,1.8,0,1,1,1-2.4Z"/><path class="g" d="M184.1,134.4a1.8,1.8,0,1,1-3.2,1.8,1.7,1.7,0,0,1,.8-2.4A1.8,1.8,0,0,1,184.1,134.4Z"/><path class="g" d="M188.7,131.3a1.7,1.7,0,0,1-.4,2.6,1.8,1.8,0,0,1-2.6-.4,2,2,0,0,1,.5-2.6A1.8,1.8,0,0,1,188.7,131.3Z"/><path class="g" d="M192.9,127.6a1.8,1.8,0,0,1-.1,2.7,1.8,1.8,0,0,1-2.6-.2,1.8,1.8,0,1,1,2.7-2.5Z"/><path class="g" d="M196.7,123.5a1.8,1.8,0,0,1,.2,2.6,1.9,1.9,0,0,1-2.7.2,2,2,0,0,1-.2-2.6A1.9,1.9,0,0,1,196.7,123.5Z"/><path class="g" d="M199.8,118.9a1.8,1.8,0,0,1,.9,1.2,1.7,1.7,0,0,1-.3,1.4,1.9,1.9,0,0,1-2.7.5,1.8,1.8,0,0,1,.7-3.3A1.4,1.4,0,0,1,199.8,118.9Z"/><path class="g" d="M202.4,114a1.8,1.8,0,0,1,.9,2.5,1.9,1.9,0,0,1-2.6.8,1.8,1.8,0,0,1-.7-2.5A1.7,1.7,0,0,1,202.4,114Z"/><path class="g" d="M204.5,108.8a1.9,1.9,0,0,1,1.1,2.4,1.8,1.8,0,0,1-2.4,1.1,1.9,1.9,0,1,1,1.3-3.5Z"/><path class="g" d="M205.9,103.4a1.8,1.8,0,0,1,1.4,2.2A1.8,1.8,0,0,1,205,107a2,2,0,0,1-1.4-2.2A2,2,0,0,1,205.9,103.4Z"/><path class="g" d="M206.7,97.9a1.8,1.8,0,0,1,1.6,2,1.9,1.9,0,0,1-2.1,1.7,2,2,0,0,1-1.6-2.1A1.8,1.8,0,0,1,206.7,97.9Z"/><path class="g" d="M206.7,92.3a1.7,1.7,0,0,1,1.9,1.8,1.8,1.8,0,0,1-1.9,1.9,1.9,1.9,0,0,1-1.8-1.8A2,2,0,0,1,206.7,92.3Z"/><path class="g" d="M206.2,86.8a1.8,1.8,0,1,1,.4,3.6,1.8,1.8,0,0,1-2-1.6A1.7,1.7,0,0,1,206.2,86.8Z"/><path class="g" d="M205,81.3a1.9,1.9,0,0,1,2.3,1.4,1.8,1.8,0,0,1-1.4,2.2,2,2,0,0,1-2.3-1.3A2,2,0,0,1,205,81.3Z"/><path class="g" d="M203.1,76.1a1.7,1.7,0,0,1,2.4,1,1.8,1.8,0,0,1-1,2.4,2,2,0,0,1-2.5-1.1A1.9,1.9,0,0,1,203.1,76.1Z"/><path class="g" d="M200.7,71a1.9,1.9,0,0,1,2.5.8,1.9,1.9,0,0,1-.8,2.6,1.9,1.9,0,0,1-1.7-3.4Z"/><path class="g" d="M197.6,66.4a1.9,1.9,0,0,1,2.7.4,2,2,0,0,1-.6,2.7,1.9,1.9,0,0,1-2.1-3.1Z"/><path class="g" d="M194.1,62.1a1.8,1.8,0,0,1,2.6.1,1.8,1.8,0,0,1-.2,2.7,1.9,1.9,0,0,1-2.6-.2A1.8,1.8,0,0,1,194.1,62.1Z"/><path class="g" d="M190,58.3a1.9,1.9,0,0,1,2.7-.2,1.8,1.8,0,0,1,.1,2.6,1.8,1.8,0,1,1-2.8-2.4Z"/><path class="g" d="M185.6,54.9a1.7,1.7,0,0,1,2.6-.4,1.9,1.9,0,1,1-2.6.4Z"/><path class="g" d="M180.7,52.1a1.7,1.7,0,0,1,1.1-.9,1.6,1.6,0,0,1,1.5.2A1.9,1.9,0,0,1,184,54a2,2,0,0,1-2.5.7,2.2,2.2,0,0,1-.9-1.2A2.3,2.3,0,0,1,180.7,52.1Z"/><path class="g" d="M175.6,50a1.7,1.7,0,0,1,2.4-1.1,1.8,1.8,0,0,1,1,2.5,1.8,1.8,0,0,1-2.4.9A1.7,1.7,0,0,1,175.6,50Z"/><path class="g" d="M170.2,48.4a2,2,0,0,1,2.3-1.4,1.9,1.9,0,0,1,1.3,2.4,1.7,1.7,0,0,1-2.2,1.2A1.8,1.8,0,0,1,170.2,48.4Z"/><path class="g" d="M164.7,47.5a1.9,1.9,0,0,1,2.2-1.6,1.8,1.8,0,0,1,1.5,2.1,2,2,0,0,1-2.1,1.6A1.9,1.9,0,0,1,164.7,47.5Z"/><path class="g" d="M159.2,47.2a1.9,1.9,0,0,1,3.7.1,1.9,1.9,0,0,1-1.9,1.8A1.9,1.9,0,0,1,159.2,47.2Z"/><path class="g" d="M153.6,47.6a1.9,1.9,0,1,1,3.7-.3,1.9,1.9,0,0,1-1.6,2A2,2,0,0,1,153.6,47.6Z"/><path class="g" d="M148.2,48.7a1.8,1.8,0,0,1,1.4-2.3,1.9,1.9,0,0,1,.7,3.7A1.9,1.9,0,0,1,148.2,48.7Z"/><path class="g" d="M142.8,50.4a2.1,2.1,0,0,1,1.2-2.5,2,2,0,0,1,2.4,1.3,1.9,1.9,0,0,1-1.2,2.3A2,2,0,0,1,142.8,50.4Z"/><path class="g" d="M137.8,52.7a1.8,1.8,0,0,1,.8-2.5,1.8,1.8,0,0,1,2.5.8,1.9,1.9,0,0,1-.9,2.5A1.8,1.8,0,0,1,137.8,52.7Z"/><path class="g" d="M133,55.5a1.7,1.7,0,0,1,.6-2.5,1.7,1.7,0,0,1,2.5.6,1.8,1.8,0,0,1-.5,2.5A1.9,1.9,0,0,1,133,55.5Z"/><path class="g" d="M128.6,59a1.9,1.9,0,1,1,2.9-2.3,1.7,1.7,0,0,1-.3,2.5A1.9,1.9,0,0,1,128.6,59Z"/><path class="g" d="M124.7,62.9a1.8,1.8,0,1,1,2.5-2.6,1.8,1.8,0,0,1-2.5,2.6Z"/><path class="g" d="M121.2,67.3a1.9,1.9,0,0,1-.4-2.6,1.6,1.6,0,0,1,1.2-.8,1.8,1.8,0,0,1,1.4.4,2,2,0,0,1,.4,2.6A1.9,1.9,0,0,1,121.2,67.3Z"/><path class="g" d="M118.3,72a1.8,1.8,0,0,1-.7-2.5,1.7,1.7,0,0,1,2.5-.7,2,2,0,0,1,.7,2.6A1.9,1.9,0,0,1,118.3,72Z"/><path class="g" d="M115.9,77.1a1.8,1.8,0,0,1-.9-2.5,1.8,1.8,0,0,1,2.5-.9,1.9,1.9,0,0,1,.9,2.4A2,2,0,0,1,115.9,77.1Z"/><path class="g" d="M138.4,92.3a1.6,1.6,0,0,1-1.3-.7,1.4,1.4,0,0,1-.3-1.4,1.7,1.7,0,0,1,2.2-1.5,1.9,1.9,0,0,1,1.5,2.1,1.9,1.9,0,0,1-.8,1.1A1.5,1.5,0,0,1,138.4,92.3Z"/><path class="g" d="M138.6,97.9a1.7,1.7,0,0,1-1.4-.3,1.7,1.7,0,0,1-.7-1.3,1.8,1.8,0,0,1,1.8-2.1,1.9,1.9,0,0,1,1.9,1.7,1.5,1.5,0,0,1-.4,1.3A1.5,1.5,0,0,1,138.6,97.9Z"/><path class="g" d="M140.3,103.3a1.8,1.8,0,0,1-2.5-1.1,1.8,1.8,0,0,1,1.2-2.4,1.8,1.8,0,0,1,2.3,1.1A1.9,1.9,0,0,1,140.3,103.3Z"/><path class="g" d="M143.3,108a1.8,1.8,0,0,1-2.7-.4,1.8,1.8,0,0,1,.5-2.6,2,2,0,0,1,2.6.5A1.9,1.9,0,0,1,143.3,108Z"/><path class="g" d="M147.4,111.8a1.8,1.8,0,0,1-2.7.3,1.8,1.8,0,0,1-.2-2.7,2.1,2.1,0,0,1,2.6-.2A2,2,0,0,1,147.4,111.8Z"/><path class="g" d="M152.4,114.4a1.9,1.9,0,0,1-2.6,1,1.8,1.8,0,0,1-.8-2.6,1.9,1.9,0,0,1,2.4-.8A2,2,0,0,1,152.4,114.4Z"/><path class="g" d="M157.8,115.6a1.6,1.6,0,0,1-.7,1.3,1.4,1.4,0,0,1-1.4.3,1.7,1.7,0,0,1-1.5-2.2,1.9,1.9,0,0,1,2.1-1.5,1.9,1.9,0,0,1,1.1.8A1.5,1.5,0,0,1,157.8,115.6Z"/><path class="g" d="M163.4,115.4a1.7,1.7,0,0,1-1.7,2.1,1.8,1.8,0,0,1-2-1.8,1.9,1.9,0,0,1,1.7-1.9,1.6,1.6,0,0,1,1.3.4A1.9,1.9,0,0,1,163.4,115.4Z"/><path class="g" d="M168.8,113.7a1.8,1.8,0,0,1-1.1,2.5,1.8,1.8,0,0,1-2.4-1.2,1.8,1.8,0,0,1,1.1-2.3A1.9,1.9,0,0,1,168.8,113.7Z"/><path class="g" d="M173.5,110.7a1.8,1.8,0,0,1-.4,2.7,1.8,1.8,0,0,1-2.6-.5,2,2,0,0,1,.5-2.6A1.9,1.9,0,0,1,173.5,110.7Z"/><path class="g" d="M177.3,106.6a1.8,1.8,0,0,1,.3,2.7,1.8,1.8,0,0,1-2.7.2,2.1,2.1,0,0,1-.2-2.6A2,2,0,0,1,177.3,106.6Z"/><path class="g" d="M179.9,101.6a2,2,0,0,1,1,2.6,1.9,1.9,0,0,1-2.6.8,1.9,1.9,0,0,1-.8-2.4A1.9,1.9,0,0,1,179.9,101.6Z"/><path class="g" d="M181.1,96.2a1.8,1.8,0,0,1,1.6,2.2,1.8,1.8,0,0,1-2.2,1.5,2.1,2.1,0,0,1-1.5-2.2,1.5,1.5,0,0,1,.8-1.1A1.5,1.5,0,0,1,181.1,96.2Z"/><path class="g" d="M180.9,90.6a1.7,1.7,0,0,1,1.4.3,2.1,2.1,0,0,1,.7,1.4,1.8,1.8,0,0,1-1.8,2,1.9,1.9,0,0,1-1.9-1.7,1.6,1.6,0,0,1,.4-1.3A1.9,1.9,0,0,1,180.9,90.6Z"/><path class="g" d="M179.2,85.2a1.8,1.8,0,0,1,2.5,1.1,1.8,1.8,0,0,1-1.2,2.4,1.8,1.8,0,0,1-2.3-1.1A1.9,1.9,0,0,1,179.2,85.2Z"/><path class="g" d="M176.2,80.5a1.9,1.9,0,0,1,2.7.4,1.8,1.8,0,0,1-.5,2.6,2,2,0,0,1-2.6-.5A1.9,1.9,0,0,1,176.2,80.5Z"/><path class="g" d="M172.1,76.7a1.8,1.8,0,0,1,2.7-.3,1.8,1.8,0,0,1,.2,2.7,2.1,2.1,0,0,1-2.6.2A2,2,0,0,1,172.1,76.7Z"/><path class="g" d="M167.1,74.1a2,2,0,0,1,2.6-1,1.9,1.9,0,0,1,.8,2.6,1.9,1.9,0,0,1-2.4.8A1.9,1.9,0,0,1,167.1,74.1Z"/><path class="g" d="M161.7,72.9a2,2,0,0,1,.6-1.3,1.6,1.6,0,0,1,1.5-.3,1.7,1.7,0,0,1,1.5,2.2,1.9,1.9,0,0,1-2.1,1.5,2,2,0,0,1-1.2-.8A1.8,1.8,0,0,1,161.7,72.9Z"/><path class="g" d="M156,73.1a2.3,2.3,0,0,1,.4-1.4,2.1,2.1,0,0,1,1.3-.7,1.8,1.8,0,0,1,2.1,1.8,2,2,0,0,1-1.7,1.9,1.5,1.5,0,0,1-1.3-.4A2,2,0,0,1,156,73.1Z"/><path class="g" d="M150.7,74.8a1.8,1.8,0,0,1,1.1-2.5,1.8,1.8,0,0,1,2.4,1.2,1.8,1.8,0,0,1-1.1,2.3A1.9,1.9,0,0,1,150.7,74.8Z"/><path class="g" d="M146,77.8a1.9,1.9,0,1,1,3-2.2,2,2,0,0,1-.5,2.6A1.9,1.9,0,0,1,146,77.8Z"/><path class="g" d="M142.2,81.9a1.8,1.8,0,0,1-.3-2.7,1.8,1.8,0,0,1,2.7-.2,2.1,2.1,0,0,1,.2,2.6A2,2,0,0,1,142.2,81.9Z"/><path class="g" d="M139.6,86.9a2,2,0,0,1-1-2.6,1.9,1.9,0,0,1,2.6-.8,1.9,1.9,0,0,1,.8,2.4A2,2,0,0,1,139.6,86.9Z"/><path class="g" d="M152.6,95.5a1.2,1.2,0,0,1-1.3-1.3c0-.8.6-1.4,1.3-1.2a1.3,1.3,0,0,1,0,2.5Z"/><path class="g" d="M154.2,98.9a1.3,1.3,0,1,1-1.3-2.2,1.5,1.5,0,0,1,1.7.5A1.6,1.6,0,0,1,154.2,98.9Z"/><path class="g" d="M157.3,101a1.2,1.2,0,0,1-1.8.6,1.2,1.2,0,0,1-.4-1.8,1.4,1.4,0,0,1,1.7-.4A1.5,1.5,0,0,1,157.3,101Z"/><path class="g" d="M161,101.4a1.2,1.2,0,0,1-1.3,1.3c-.8,0-1.4-.7-1.2-1.3a1.4,1.4,0,0,1,1.2-1.2A1.5,1.5,0,0,1,161,101.4Z"/><path class="g" d="M164.4,99.8a1.3,1.3,0,1,1-2.2,1.3,1.5,1.5,0,0,1,.5-1.7A1.6,1.6,0,0,1,164.4,99.8Z"/><path class="g" d="M166.5,96.7a1.2,1.2,0,0,1,.6,1.8,1.2,1.2,0,0,1-1.8.4,1.4,1.4,0,0,1-.4-1.7A1.5,1.5,0,0,1,166.5,96.7Z"/><path class="g" d="M166.9,93a1.2,1.2,0,0,1,1.3,1.3c0,.8-.7,1.4-1.3,1.2a1.4,1.4,0,0,1-1.2-1.2A1.5,1.5,0,0,1,166.9,93Z"/><path class="g" d="M165.3,89.6a1.2,1.2,0,0,1,1.8.4,1.2,1.2,0,0,1-.6,1.8,1.4,1.4,0,0,1-1.6-.5A1.4,1.4,0,0,1,165.3,89.6Z"/><path class="g" d="M162.2,87.5a1.2,1.2,0,0,1,1.8-.6,1.2,1.2,0,0,1,.4,1.8,1.4,1.4,0,0,1-1.7.4A1.5,1.5,0,0,1,162.2,87.5Z"/><path class="g" d="M158.5,87.1a1.2,1.2,0,0,1,1.3-1.3c.8,0,1.4.7,1.2,1.3a1.3,1.3,0,0,1-2.5,0Z"/><path class="g" d="M155.1,88.7a1.2,1.2,0,0,1,.4-1.8,1.2,1.2,0,0,1,1.8.6,1.4,1.4,0,0,1-.5,1.6A1.4,1.4,0,0,1,155.1,88.7Z"/><path class="g" d="M153,91.8a1.2,1.2,0,0,1-.6-1.8,1.2,1.2,0,0,1,1.8-.4,1.4,1.4,0,0,1,.4,1.7A1.5,1.5,0,0,1,153,91.8Z"/></g><path class="h" d="M180,25.1s-3.8,1-5.6,3.6,1.7,5.5,4.8,8.5a96.5,96.5,0,0,0,8.5,6.5,15.8,15.8,0,0,0-3.5-7.8C181.3,32.5,178.4,28.7,180,25.1Z"/><circle class="c" cx="171.5" cy="18.4" r="2"/><path class="i" d="M106.9,78.6a2,2,0,0,0,2.4-1.2,1.9,1.9,0,0,0-1.2-2.4,2,2,0,0,0-2.4,1.2A1.9,1.9,0,0,0,106.9,78.6Z"/><path class="i" d="M105.7,84.1a2.1,2.1,0,0,0,2.3-1.5,2,2,0,0,0-1.5-2.2,1.8,1.8,0,0,0-2.2,1.5A1.8,1.8,0,0,0,105.7,84.1Z"/><path class="i" d="M105.1,89.7a1.9,1.9,0,0,0,2-1.6,1.8,1.8,0,0,0-1.6-2.1,1.9,1.9,0,0,0-2.1,1.7A1.7,1.7,0,0,0,105.1,89.7Z"/><path class="j" d="M105,95.4a1.6,1.6,0,0,0,1.3-.6,2.6,2.6,0,0,0,.6-1.3,2,2,0,0,0-1.9-1.9,1.9,1.9,0,0,0-1.9,1.9,2,2,0,0,0,.5,1.4A2.4,2.4,0,0,0,105,95.4Z"/><path class="i" d="M105.5,101a1.9,1.9,0,0,0-.3-3.7,1.9,1.9,0,0,0-1.8,2.1A1.8,1.8,0,0,0,105.5,101Z"/><path class="i" d="M106.6,106.6a1.9,1.9,0,0,0,1.4-2.2,1.8,1.8,0,0,0-2.1-1.5,1.9,1.9,0,1,0,.7,3.7Z"/><path class="i" d="M108.3,112a1.8,1.8,0,0,0,1.1-2.4,1.8,1.8,0,0,0-2.3-1.2,1.9,1.9,0,0,0-1.2,2.4A1.8,1.8,0,0,0,108.3,112Z"/><path class="i" d="M111.1,68.1a2.1,2.1,0,0,0,2.6-.8,1.9,1.9,0,1,0-2.6.8Z"/><path class="i" d="M108.7,73.2a2,2,0,0,0,2.5-1,1.8,1.8,0,0,0-.9-2.4,1.8,1.8,0,0,0-2.5,1A1.8,1.8,0,0,0,108.7,73.2Z"/><path class="i" d="M101.2,77.7a1.9,1.9,0,0,0,2.3-1.2,1.8,1.8,0,0,0-1.2-2.3,1.8,1.8,0,1,0-1.1,3.5Z"/><path class="i" d="M100,83.2a1.9,1.9,0,0,0,2.2-1.4,1.9,1.9,0,0,0-3.7-.8A1.8,1.8,0,0,0,100,83.2Z"/><path class="i" d="M99.3,88.8a1.9,1.9,0,0,0,2.1-1.7,1.9,1.9,0,0,0-3.8-.4A1.9,1.9,0,0,0,99.3,88.8Z"/><path class="i" d="M99.2,94.4a1.9,1.9,0,0,0,1.9-1.8,1.9,1.9,0,0,0-1.9-1.9,1.8,1.8,0,0,0-1.9,1.8A1.9,1.9,0,0,0,99.2,94.4Z"/><path class="i" d="M99.6,100a1.8,1.8,0,0,0,1.6-2,1.9,1.9,0,1,0-3.7.3A1.9,1.9,0,0,0,99.6,100Z"/><path class="i" d="M100.4,105.6a1.9,1.9,0,0,0,1.5-2.2,1.8,1.8,0,0,0-2.1-1.5,1.8,1.8,0,0,0-1.5,2.2A1.8,1.8,0,0,0,100.4,105.6Z"/><path class="i" d="M107.7,62.3a1.9,1.9,0,1,0,2-3.2,1.9,1.9,0,1,0-2,3.2Z"/><path class="i" d="M105.1,67.2a1.9,1.9,0,0,0,2.5-.8,2.1,2.1,0,0,0-.8-2.5,1.9,1.9,0,0,0-2.6.8A1.8,1.8,0,0,0,105.1,67.2Z"/><path class="i" d="M102.9,72.4a1.9,1.9,0,0,0,1.4-3.5,1.9,1.9,0,0,0-2.5,1.1A1.8,1.8,0,0,0,102.9,72.4Z"/><path class="i" d="M96.7,74.5a1.8,1.8,0,1,0-1.3-2.4A2,2,0,0,0,96.7,74.5Z"/><path class="i" d="M95.3,79.9a1.8,1.8,0,0,0,2.2-1.4,1.8,1.8,0,1,0-3.6-.8A1.8,1.8,0,0,0,95.3,79.9Z"/><path class="i" d="M94.4,85.5a1.9,1.9,0,0,0,2.1-1.6,2,2,0,0,0-1.6-2.1,1.8,1.8,0,0,0-2.1,1.5A1.9,1.9,0,0,0,94.4,85.5Z"/><path class="i" d="M93.9,91.1a1.9,1.9,0,0,0,2-1.8,2,2,0,0,0-1.7-2,1.8,1.8,0,0,0-2,1.8A1.9,1.9,0,0,0,93.9,91.1Z"/><path class="i" d="M94,96.7a2,2,0,0,0,1.8-2,1.8,1.8,0,0,0-1.9-1.8,1.9,1.9,0,0,0,.1,3.8Z"/><path class="i" d="M106.5,54.5a1.9,1.9,0,1,0-.3-2.7A1.9,1.9,0,0,0,106.5,54.5Z"/><path class="i" d="M103.4,59.2a2,2,0,0,0,2.6-.6,1.9,1.9,0,0,0-.6-2.6,1.9,1.9,0,0,0-2.6.6A1.9,1.9,0,0,0,103.4,59.2Z"/><path class="i" d="M100.7,64.1a2,2,0,0,0,2.5-.8,1.8,1.8,0,0,0-.7-2.5,1.9,1.9,0,1,0-1.8,3.3Z"/><path class="i" d="M98.5,69.2a1.9,1.9,0,0,0,2.4-1,1.8,1.8,0,0,0-1-2.4,1.8,1.8,0,0,0-2.4.9A1.9,1.9,0,0,0,98.5,69.2Z"/><path class="k" d="M92.7,69.5a1.9,1.9,0,0,0,2.4-1.1,1.9,1.9,0,0,0-1-2.4,1.9,1.9,0,0,0-2.5,1.1A1.9,1.9,0,0,0,92.7,69.5Z"/><path class="i" d="M91.1,74.8a1.9,1.9,0,0,0,2.3-1.2,1.9,1.9,0,0,0-1.3-2.3,1.7,1.7,0,0,0-2.3,1.2A1.8,1.8,0,0,0,91.1,74.8Z"/><path class="i" d="M89.8,80.3a1.8,1.8,0,1,0-1.5-2.2A2,2,0,0,0,89.8,80.3Z"/><path class="i" d="M89,85.9a2,2,0,0,0,2.1-1.7,1.8,1.8,0,0,0-1.6-2,1.8,1.8,0,0,0-2.1,1.6A1.9,1.9,0,0,0,89,85.9Z"/><path class="i" d="M103.4,49.9a1.9,1.9,0,0,0,2.3-2.9,1.7,1.7,0,0,0-2.6.3A1.8,1.8,0,0,0,103.4,49.9Z"/><path class="i" d="M100.1,54.5a2,2,0,0,0,2.6-.5,1.8,1.8,0,0,0-.5-2.6,1.9,1.9,0,0,0-2.6.4A2,2,0,0,0,100.1,54.5Z"/><path class="k" d="M97.3,59.3a1.8,1.8,0,0,0,1.8-3.2,1.7,1.7,0,0,0-2.5.6A1.8,1.8,0,0,0,97.3,59.3Z"/><path class="i" d="M94.8,64.3a2,2,0,0,0,2.5-.9,2,2,0,0,0-.9-2.5,1.8,1.8,0,0,0-2.5.9A1.8,1.8,0,0,0,94.8,64.3Z"/><path class="i" d="M86.7,70.6A1.8,1.8,0,0,0,89,69.4a1.7,1.7,0,0,0-1.1-2.3,1.8,1.8,0,0,0-2.4,1.1A1.9,1.9,0,0,0,86.7,70.6Z"/><path class="k" d="M85.2,76a1.9,1.9,0,0,0,2.3-1.3,2,2,0,0,0-1.3-2.3,1.8,1.8,0,0,0-2.3,1.3A1.8,1.8,0,0,0,85.2,76Z"/><path class="i" d="M103.3,41.6a1.9,1.9,0,0,0,2.6,0,2,2,0,0,0-.1-2.7,1.8,1.8,0,0,0-2.6.1A1.7,1.7,0,0,0,103.3,41.6Z"/><path class="i" d="M99.6,45.9a2.1,2.1,0,0,0,2.7-.2A2,2,0,0,0,102,43a1.9,1.9,0,0,0-2.6.3A1.8,1.8,0,0,0,99.6,45.9Z"/><path class="i" d="M96.3,50.5a2,2,0,0,0,2.6-.5,1.9,1.9,0,0,0-.4-2.6,1.8,1.8,0,0,0-2.6.4A2,2,0,0,0,96.3,50.5Z"/><path class="i" d="M93.4,55.2a1.9,1.9,0,0,0,2.5-.6,1.9,1.9,0,1,0-3.2-2A1.9,1.9,0,0,0,93.4,55.2Z"/><path class="k" d="M90.8,60.2a1.9,1.9,0,0,0,1.7-3.4,1.9,1.9,0,1,0-1.7,3.4Z"/><path class="i" d="M88.6,65.3A1.8,1.8,0,0,0,90,61.9a1.8,1.8,0,1,0-1.4,3.4Z"/><path class="k" d="M101.2,35.9a2,2,0,0,0,2.7,0,1.9,1.9,0,0,0,0-2.6,1.9,1.9,0,0,0-2.7-.1A2,2,0,0,0,101.2,35.9Z"/><path class="i" d="M97.4,40a2,2,0,0,0,2.7-.1,1.9,1.9,0,0,0-.2-2.7A1.9,1.9,0,0,0,97.4,40Z"/><path class="k" d="M94,44.4a1.9,1.9,0,0,0,2.3-2.9,1.8,1.8,0,0,0-2.7.3A1.8,1.8,0,0,0,94,44.4Z"/><path class="i" d="M90.8,49a1.8,1.8,0,0,0,2.6-.5,1.9,1.9,0,0,0-.6-2.6,1.8,1.8,0,0,0-2,3.1Z"/><path class="i" d="M87.9,53.9a2.1,2.1,0,0,0,2.6-.7,1.9,1.9,0,1,0-3.3-1.9A1.9,1.9,0,0,0,87.9,53.9Z"/><path class="i" d="M85.4,58.9a1.9,1.9,0,0,0,2.5-.9,1.9,1.9,0,0,0-.8-2.5,1.9,1.9,0,0,0-2.6.9A2,2,0,0,0,85.4,58.9Z"/><path class="i" d="M83.2,64a1.9,1.9,0,1,0-1-2.4A1.8,1.8,0,0,0,83.2,64Z"/><path class="i" d="M102.4,27.7a1.9,1.9,0,0,0,2.6.3,2,2,0,0,0,.3-2.7,1.9,1.9,0,0,0-2.7-.2A1.8,1.8,0,0,0,102.4,27.7Z"/><path class="i" d="M98.3,31.6A1.9,1.9,0,0,0,101,29a1.9,1.9,0,0,0-2.7-.1A1.8,1.8,0,0,0,98.3,31.6Z"/><path class="i" d="M94.4,35.7A1.8,1.8,0,1,0,96.9,33a1.7,1.7,0,0,0-2.6.1A1.8,1.8,0,0,0,94.4,35.7Z"/><path class="i" d="M90.8,40.1a1.9,1.9,0,0,0,2.6-.3,1.9,1.9,0,1,0-2.9-2.4A1.9,1.9,0,0,0,90.8,40.1Z"/><path class="i" d="M87.5,44.7a1.9,1.9,0,0,0,2.2-3.1,1.9,1.9,0,0,0-2.7.5A1.8,1.8,0,0,0,87.5,44.7Z"/><path class="k" d="M84.5,49.5a1.9,1.9,0,0,0,2.6-.7,1.9,1.9,0,1,0-2.6.7Z"/><path class="i" d="M104.1,19.6a1.9,1.9,0,1,0,3-2.2,1.7,1.7,0,0,0-2.6-.4A1.9,1.9,0,0,0,104.1,19.6Z"/><path class="k" d="M99.7,23.1a1.9,1.9,0,0,0,2.6.3,1.9,1.9,0,0,0,.3-2.7,1.8,1.8,0,0,0-2.6-.2A1.7,1.7,0,0,0,99.7,23.1Z"/><path class="i" d="M95.6,26.9a1.8,1.8,0,0,0,2.6.1,1.9,1.9,0,0,0,.1-2.6,1.9,1.9,0,0,0-2.7-.2A1.8,1.8,0,0,0,95.6,26.9Z"/><path class="k" d="M91.6,31a2,2,0,0,0,2.7-.1,2.1,2.1,0,0,0-.1-2.7A1.9,1.9,0,0,0,91.6,31Z"/><path class="l" d="M15.5,178.6H0V140H14.4c7.6,0,11.4,3.3,11.4,10,0,3.9-1.4,6.5-4.2,7.9h0c5.2.7,7.9,4,7.9,9.9a10,10,0,0,1-1.2,5,8.8,8.8,0,0,1-3.2,3.4,17,17,0,0,1-4.4,1.8A27.8,27.8,0,0,1,15.5,178.6ZM10,147.7v7.5h1.2a8.7,8.7,0,0,0,3.9-.8,3,3,0,0,0,1.5-3,3.6,3.6,0,0,0-.5-2.1,2.6,2.6,0,0,0-1.4-1.1,7.4,7.4,0,0,0-1.8-.4H10Zm0,14.9v8.3h4.7a6.6,6.6,0,0,0,1.8-.3l1.4-.7a2.5,2.5,0,0,0,1.1-1.2,4.8,4.8,0,0,0,.3-1.8,5.3,5.3,0,0,0-.1-1.3,2,2,0,0,0-.6-1.1l-.7-.7a1.9,1.9,0,0,0-1-.5l-1-.3-1.3-.2H10Z"/><path class="l" d="M63.3,152.3v26.3H53.9v-2.9h-.1a6.9,6.9,0,0,1-3.3,2.8,10.3,10.3,0,0,1-4.6,1,12.3,12.3,0,0,1-9.5-4.1,14.5,14.5,0,0,1-3.8-10,13.9,13.9,0,0,1,3.7-9.8,12,12,0,0,1,9.5-4.1c3.5,0,6.2,1.1,8.1,3.4v-2.6Zm-10.7,9a5.5,5.5,0,0,0-4.4-1.7,5.7,5.7,0,0,0-4.4,1.7,5.9,5.9,0,0,0,4.4,10.1,5.5,5.5,0,0,0,4.4-1.7,6.3,6.3,0,0,0,0-8.4Z"/><path class="l" d="M78.8,152.3v4.3h.1c1.7-3.1,4.6-4.6,8.5-4.6h1.8v8.9a9.2,9.2,0,0,0-4-.8c-2.4,0-4.1.7-5,2.1s-1.4,3.3-1.4,5.8v10.6H69.4V152.3Z"/><path class="l" d="M121.4,152.3v26.3h-9.3v-2.9H112a6.9,6.9,0,0,1-3.3,2.8,10.7,10.7,0,0,1-4.7,1,12.5,12.5,0,0,1-9.5-4.1,14.4,14.4,0,0,1-3.7-10,13.9,13.9,0,0,1,3.7-9.8,11.9,11.9,0,0,1,9.4-4.1,10.2,10.2,0,0,1,8.2,3.4v-2.6Zm-10.6,9a6.5,6.5,0,0,0-8.8,0,5.9,5.9,0,0,0,4.4,10.1,6,6,0,0,0,4.4-10.1Z"/><path class="l" d="M136.5,175l-12.7-22.7h10.7l7.1,13.5,6.8-13.5H159l-21,39.4H127.5Z"/><path class="l" d="M189.9,152.3v26.3h-9.3v-2.9h-.1a6.7,6.7,0,0,1-3.4,2.8,10,10,0,0,1-4.6,1,12.5,12.5,0,0,1-9.5-4.1,14.5,14.5,0,0,1-3.8-10,14,14,0,0,1,3.8-9.8,11.8,11.8,0,0,1,9.4-4.1,10.2,10.2,0,0,1,8.2,3.4v-2.6Zm-10.7,9a5.3,5.3,0,0,0-4.3-1.7,5.5,5.5,0,0,0-4.4,1.7,6.3,6.3,0,0,0,0,8.4,5.9,5.9,0,0,0,4.4,1.7,5.3,5.3,0,0,0,4.3-1.7,6,6,0,0,0,0-8.4Z"/><path class="l" d="M205.4,152.3v3.3h.1a9.8,9.8,0,0,1,8.3-4.1c4.2,0,7.2,1.6,9,5a8.8,8.8,0,0,1,3.7-3.7,10.6,10.6,0,0,1,5.2-1.3c6,0,9,3.4,9,10.4v16.7h-9.3V166.1c0-.9-.1-1.5-.1-1.9s-.1-1-.2-1.8a5.6,5.6,0,0,0-.5-1.8,4.5,4.5,0,0,0-1.2-1.2,3.6,3.6,0,0,0-1.9-.5,4.2,4.2,0,0,0-3.4,1.6,3.8,3.8,0,0,0-.7,1.7,7.4,7.4,0,0,0-.3,1.9v14.5h-9.4V164.5c0-.4-.1-.9-.1-1.6a7.1,7.1,0,0,0-.4-1.7,7.5,7.5,0,0,0-.7-1.2,2.3,2.3,0,0,0-1.2-1,4.7,4.7,0,0,0-1.7-.3,4.8,4.8,0,0,0-1.8.3,2.3,2.3,0,0,0-1.2,1,7.5,7.5,0,0,0-.7,1.2c-.1.5-.2,1-.3,1.7s-.1,1.2-.2,1.6v14.1h-9.3V152.3Z"/><path class="l" d="M275.5,152.3v26.3h-9.3v-2.9h-.1a6.9,6.9,0,0,1-3.3,2.8,10.6,10.6,0,0,1-4.6,1,12.3,12.3,0,0,1-9.5-4.1,14.9,14.9,0,0,1-.1-19.8,12,12,0,0,1,9.5-4.1c3.4,0,6.2,1.1,8.1,3.4v-2.6Zm-10.6,9a6.5,6.5,0,0,0-8.8,0,5.9,5.9,0,0,0,4.4,10.1,6,6,0,0,0,4.4-10.1Z"/><path class="l" d="M291.1,136.1v42.5h-9.4V136.1Z"/></svg>