<?xml version="1.0" encoding="utf-8"?>
<!-- Generator: Adobe Illustrator 24.1.0, SVG Export Plug-In . SVG Version: 6.00 Build 0)  -->
<svg version="1.1" id="Layer_1" xmlns="http://www.w3.org/2000/svg" xmlns:xlink="http://www.w3.org/1999/xlink" x="0px" y="0px"
	 viewBox="0 0 954.1 390.6" style="enable-background:new 0 0 954.1 390.6;" xml:space="preserve">
<style type="text/css">
	.st0{fill:#141212;}
</style>
<path class="st0" d="M954.1,0.6L0,0v354.2c15.3,5.5,31.1,10.6,47.3,14.9c12.2,3.5,24.7,6.5,37.5,9.1c22.3,4.5,39.5,6.3,59.9,8.4
	c19.8,2,34.9,3.6,56,4c18,0.2,31.4-0.4,46.7-1.3c19.1-1.1,38.1-2.8,56.8-5c22-2.8,37.4-5.6,58.8-9.6c5.6-1.1,29.4-5.5,60.4-12.7
	c19.6-4.5,34.1-8.2,48.6-11.9c3.5-0.9,24.6-6.3,49-13.1c88.5-24.5,181-53.4,181-53.4c101-31.5,122.2-40.4,179.4-52.5
	c30-6.3,55.4-10.6,72.7-13.2"/>
</svg>
