<svg id="Layer_1" data-name="Layer 1" xmlns="http://www.w3.org/2000/svg" viewBox="0 0 955.02 377.09">
    <title>Page and Post Type Templates</title>
    <path d="M423.49,0H955V372.18A232.25,232.25,0,0,1,913.08,377a226.87,226.87,0,0,1-58.48-6c-24.51-6-41.69-14.84-57.26-23-12.47-6.53-17.87-10.36-47.18-29.44-32.07-20.88-48.1-31.32-57.67-37.1-16.54-10-43.45-26.14-79.85-41.54-25.87-10.95-45.8-17-75-25.81-34-10.28-59.4-16.13-66.54-17.75-7.61-1.72-30.35-6.76-60.41-11.53-16.43-2.6-64.34-9.76-148.09-14.18-81.68-4.3-145.54-3.26-190.89-2.43-29.87.54-54.64,1.4-71.7,2.09V0H467.29"/>
</svg>