<?xml version="1.0" standalone="no"?>
<!DOCTYPE svg PUBLIC "-//W3C//DTD SVG 20010904//EN"
 "http://www.w3.org/TR/2001/REC-SVG-20010904/DTD/svg10.dtd">
<svg version="1.0" xmlns="http://www.w3.org/2000/svg"
 width="1064.000000pt" height="1064.000000pt" viewBox="0 0 1064.000000 1064.000000"
 preserveAspectRatio="xMidYMid meet">
<metadata>
Created by potrace 1.11, written by Peter Selinger 2001-2013
</metadata>
<g transform="translate(0.000000,1064.000000) scale(0.100000,-0.100000)"
fill="#000000" stroke="none">
<path d="M5755 10634 c-16 -2 -66 -9 -110 -15 -297 -39 -590 -119 -874 -240
l-104 -44 -92 -140 c-359 -544 -528 -979 -581 -1495 -20 -196 -15 -526 11
-710 78 -561 310 -1016 790 -1550 217 -240 736 -733 1275 -1210 601 -532 856
-785 1087 -1077 362 -456 556 -891 623 -1396 13 -101 13 -388 0 -497 -78 -624
-416 -1233 -958 -1723 -269 -243 -452 -363 -712 -468 -52 -21 -94 -42 -93 -46
4 -15 116 -21 393 -22 296 -1 378 5 595 45 540 98 1035 324 1475 672 126 100
396 371 499 501 334 421 559 915 655 1436 43 235 48 311 44 646 -4 287 -7 328
-32 469 -144 810 -548 1506 -1159 1998 -159 127 -246 186 -547 366 -333 200
-555 311 -925 463 -88 36 -252 104 -365 150 -219 90 -510 228 -613 289 -212
127 -453 309 -552 415 -343 372 -391 855 -122 1254 55 82 176 206 268 275 268
200 668 303 1057 271 431 -36 687 -168 920 -476 103 -135 191 -237 271 -313
71 -68 180 -156 185 -151 2 2 13 40 24 84 11 44 41 126 66 183 75 166 90 262
61 376 -9 32 -17 62 -19 65 -3 4 -28 4 -58 1 -96 -11 -159 42 -166 140 -4 65
18 108 70 140 69 42 166 17 208 -52 11 -18 20 -43 20 -54 0 -24 17 -34 60 -34
57 0 209 -32 309 -66 186 -62 307 -130 453 -256 l56 -49 8 57 c14 118 -32 357
-92 477 -156 310 -486 530 -948 632 -69 15 -91 26 -180 90 -426 306 -848 474
-1431 572 -86 14 -672 28 -750 17z"/>
<path d="M4351 10150 c-456 -334 -766 -921 -876 -1660 -32 -215 -44 -586 -26
-805 62 -744 329 -1449 743 -1960 l49 -60 -59 -55 c-463 -432 -800 -1026 -941
-1660 -100 -450 -102 -949 -5 -1390 110 -498 334 -966 653 -1365 82 -101 301
-326 406 -415 75 -64 87 -70 190 -100 310 -91 545 -130 780 -130 185 0 338 21
329 44 -3 7 6 18 19 25 28 15 93 11 90 -5 -7 -36 336 114 479 209 219 145 501
407 618 575 86 122 152 244 140 256 -24 24 11 106 45 106 26 0 90 213 122 400
24 145 24 444 -1 595 -87 536 -309 923 -780 1357 -66 62 -96 86 -66 54 l55
-57 -24 -20 c-39 -32 -96 -29 -128 7 -31 34 -30 84 2 122 l25 30 -188 174
c-103 96 -250 232 -327 303 -77 70 -203 187 -280 260 -193 181 -225 209 -225
196 0 -7 -11 -23 -25 -36 -68 -69 -182 15 -145 106 7 16 22 36 34 44 20 15 17
19 -95 133 -579 590 -859 981 -1054 1472 -277 697 -297 1488 -56 2208 113 338
266 620 516 952 58 77 105 142 105 145 0 13 -22 1 -99 -55z m574 -5074 c73
-31 76 -124 5 -161 -71 -37 -140 -1 -140 72 0 46 25 80 65 92 17 5 31 10 33
10 1 1 18 -5 37 -13z m-154 -255 c77 -78 -13 -206 -110 -157 -38 20 -51 44
-51 91 0 51 44 95 95 95 27 0 44 -8 66 -29z m-186 -245 c41 -17 55 -42 55 -95
0 -32 -5 -43 -29 -60 -28 -21 -83 -27 -116 -15 -20 8 -45 56 -45 88 0 30 43
83 73 89 12 2 23 5 25 6 1 0 18 -5 37 -13z m-91 -299 c42 -57 13 -137 -56
-152 -64 -15 -126 44 -113 105 17 76 125 106 169 47z m1577 -243 c37 -19 63
-75 55 -118 -11 -58 -92 -84 -156 -51 -59 31 -69 107 -21 156 34 33 75 38 122
13z m-1686 -39 c56 -55 11 -155 -70 -155 -51 0 -85 36 -85 90 0 30 6 47 25 65
34 35 96 35 130 0z m1543 -235 c58 -35 68 -96 23 -141 -35 -35 -81 -38 -127
-10 -42 26 -50 61 -24 111 18 35 41 51 90 59 3 1 20 -8 38 -19z m-1606 -60
c26 -27 30 -36 25 -67 -14 -84 -112 -119 -163 -60 -33 39 -33 99 1 132 36 37
97 35 137 -5z m1532 -241 c55 -65 13 -149 -74 -149 -57 0 -85 27 -85 85 0 39
5 51 28 71 42 36 98 33 131 -7z m-1599 -9 c57 -22 63 -130 9 -177 -33 -30 -90
-31 -121 -1 -19 18 -23 32 -23 79 0 52 3 60 31 83 33 28 62 32 104 16z m1562
-275 c12 -9 25 -31 29 -50 12 -67 -27 -115 -94 -115 -79 0 -119 103 -62 160
25 25 96 27 127 5z m-1554 -65 c13 -11 28 -31 31 -45 15 -60 -57 -140 -105
-115 -26 15 -59 69 -59 98 0 31 52 82 83 82 13 0 36 -9 50 -20z m1594 -242
c35 -33 31 -82 -11 -124 -42 -42 -69 -43 -107 -5 -40 40 -41 100 -3 130 36 28
91 27 121 -1z m-1584 -50 c68 -36 62 -129 -10 -163 -63 -30 -115 -1 -129 71
-6 33 15 88 38 97 24 10 79 7 101 -5z m1642 -213 c45 -18 61 -56 45 -107 -12
-42 -43 -68 -80 -68 -37 0 -86 34 -94 65 -9 35 21 96 54 112 32 16 34 16 75
-2z m-1573 -105 c26 -27 30 -36 25 -67 -9 -52 -42 -83 -88 -83 -52 0 -67 8
-85 42 -51 98 71 185 148 108z m1721 -162 c34 -18 46 -40 47 -81 0 -85 -109
-132 -165 -71 -43 47 -27 132 29 154 30 12 64 12 89 -2z m-1629 -114 c84 -85
-43 -218 -138 -143 -22 17 -26 28 -26 70 0 67 30 99 93 99 34 0 50 -6 71 -26z
m1859 -115 c19 -23 23 -89 7 -119 -16 -31 -72 -44 -113 -26 -54 22 -70 66 -45
122 25 54 114 67 151 23z m-1758 -174 c30 -29 32 -68 5 -112 -38 -62 -98 -67
-145 -11 -34 40 -33 82 4 119 39 39 100 41 136 4z m1999 3 c9 -13 16 -43 16
-69 0 -39 -5 -51 -26 -68 -63 -50 -154 -10 -154 67 0 33 5 42 37 65 49 35 105
37 127 5z m248 -109 c20 -11 48 -65 48 -93 0 -8 -12 -28 -26 -45 -62 -75 -188
-4 -159 89 8 26 61 60 93 60 13 0 32 -5 44 -11z m-2111 -158 c34 -27 34 -99 0
-135 -32 -34 -89 -36 -127 -3 -21 19 -27 32 -27 67 0 35 6 48 27 67 34 29 94
31 127 4z m159 -251 c68 -68 32 -160 -62 -160 -54 0 -88 35 -88 90 0 56 34 90
90 90 27 0 47 -7 60 -20z m177 -229 c19 -12 34 -31 38 -50 22 -101 -59 -149
-131 -77 -42 42 -46 85 -9 121 29 30 59 32 102 6z m227 -227 c37 -38 37 -104
0 -133 -39 -30 -98 -28 -131 5 -22 22 -25 32 -20 72 6 56 33 82 87 82 27 0 45
-7 64 -26z m229 -184 c55 -43 43 -130 -20 -156 -52 -22 -93 -9 -115 37 -45 91
57 180 135 119z"/>
<path d="M2785 9304 c-70 -36 -104 -99 -91 -166 10 -52 60 -123 99 -141 119
-57 255 51 223 178 -9 35 -83 115 -123 131 -42 18 -71 17 -108 -2z"/>
<path d="M8241 9079 l-23 -30 36 -72 c19 -40 38 -92 41 -117 9 -67 -17 -172
-79 -316 -70 -164 -89 -244 -84 -351 4 -72 10 -93 46 -165 84 -168 259 -330
702 -650 199 -143 580 -398 596 -398 13 0 -5 227 -26 324 -48 219 -128 374
-301 583 -94 113 -159 208 -159 234 0 25 27 37 105 48 111 16 161 59 171 146
12 103 -60 285 -161 408 -119 144 -253 228 -483 303 -119 39 -312 85 -346 83
-6 0 -22 -14 -35 -30z"/>
<path d="M2435 9024 c-64 -33 -95 -79 -95 -141 0 -136 173 -192 269 -89 37 39
41 128 9 176 -42 63 -121 87 -183 54z"/>
<path d="M2113 8740 c-18 -4 -43 -14 -56 -23 -54 -35 -75 -145 -37 -201 45
-70 150 -97 216 -57 45 27 78 100 69 152 -8 49 -62 114 -103 123 -15 4 -34 8
-42 10 -8 2 -30 0 -47 -4z"/>
<path d="M2619 8646 c-40 -27 -69 -79 -69 -122 0 -15 9 -47 21 -70 55 -115
209 -117 267 -4 26 50 25 114 -4 157 -42 65 -149 84 -215 39z"/>
<path d="M1785 8420 c-41 -13 -95 -70 -104 -111 -9 -41 0 -89 24 -125 24 -37
98 -68 147 -61 73 10 114 52 124 129 15 111 -86 199 -191 168z"/>
<path d="M2294 8351 c-74 -45 -99 -119 -66 -194 60 -135 282 -81 282 70 0 55
-22 98 -63 123 -41 26 -112 26 -153 1z"/>
<path d="M1990 8028 c-115 -59 -121 -191 -11 -265 41 -28 82 -29 138 -3 105
47 112 190 13 261 -42 30 -89 33 -140 7z"/>
<path d="M2554 8019 c-44 -13 -91 -69 -99 -118 -9 -54 22 -123 67 -151 71 -43
178 -18 214 52 62 119 -53 256 -182 217z"/>
<path d="M1727 7717 c-22 -7 -54 -27 -73 -46 -106 -108 -43 -271 106 -271 147
0 218 186 108 286 -21 20 -41 29 -88 39 -8 2 -32 -2 -53 -8z"/>
<path d="M2229 7667 c-37 -24 -79 -97 -79 -137 0 -40 32 -92 70 -112 66 -35
160 -15 202 42 45 62 26 173 -36 211 -44 27 -114 25 -157 -4z"/>
<path d="M2664 7527 c-36 -33 -46 -51 -51 -85 -12 -91 59 -172 151 -172 92 0
146 54 146 145 0 92 -62 155 -153 155 -43 0 -53 -5 -93 -43z"/>
<path d="M1945 7340 c-87 -43 -116 -142 -62 -213 44 -57 125 -67 192 -23 81
53 75 206 -10 242 -46 19 -73 18 -120 -6z"/>
<path d="M1400 7318 c-106 -73 -86 -227 34 -273 76 -29 148 0 186 75 37 73 17
153 -49 197 -47 32 -125 32 -171 1z"/>
<path d="M2434 7230 c-67 -14 -115 -70 -122 -140 -6 -64 22 -110 84 -140 82
-40 186 -3 212 75 39 118 -56 230 -174 205z"/>
<path d="M1682 6984 c-81 -42 -116 -147 -70 -214 67 -98 178 -107 251 -20 36
42 43 90 22 146 -31 81 -132 124 -203 88z"/>
<path d="M1153 6940 c-38 -23 -73 -86 -73 -132 0 -74 74 -147 148 -148 148 -1
206 195 83 277 -43 29 -113 31 -158 3z"/>
<path d="M2710 6909 c-89 -36 -127 -146 -77 -220 30 -45 63 -61 116 -56 107
11 171 124 124 221 -25 54 -102 79 -163 55z"/>
<path d="M2116 6860 c-42 -27 -76 -87 -76 -133 0 -140 158 -203 258 -103 31
30 36 42 39 93 5 68 -16 111 -69 143 -43 26 -113 26 -152 0z"/>
<path d="M1423 6591 c-68 -43 -93 -148 -50 -212 45 -67 125 -86 205 -48 98 48
112 170 28 249 -37 34 -136 40 -183 11z"/>
<path d="M2420 6543 c-101 -53 -108 -210 -11 -267 42 -24 120 -24 163 1 37 21
78 85 78 122 0 38 -37 105 -72 131 -42 31 -112 37 -158 13z"/>
<path d="M2926 6520 c-47 -41 -66 -79 -66 -127 0 -80 68 -143 155 -143 116 0
187 106 141 213 -24 58 -59 81 -130 85 -59 4 -65 2 -100 -28z"/>
<path d="M1900 6514 c-72 -31 -110 -90 -110 -170 0 -36 6 -51 36 -84 66 -72
153 -78 225 -13 88 80 71 216 -34 263 -50 23 -71 24 -117 4z"/>
<path d="M1219 6199 c-94 -55 -98 -194 -8 -261 89 -67 239 13 239 126 -1 119
-129 194 -231 135z"/>
<path d="M2694 6171 c-105 -48 -129 -168 -50 -247 57 -57 151 -55 218 5 26 23
32 36 36 86 6 69 -14 115 -62 144 -49 30 -95 34 -142 12z"/>
<path d="M2180 6157 c-71 -47 -93 -142 -50 -212 28 -45 67 -65 125 -65 98 0
151 61 146 172 -1 34 -55 96 -98 114 -47 20 -85 17 -123 -9z"/>
<path d="M1662 6093 c-42 -21 -82 -88 -82 -139 0 -79 68 -144 150 -144 150 0
206 202 78 280 -40 24 -101 25 -146 3z"/>
<path d="M3008 5930 c-56 -30 -83 -75 -82 -137 0 -64 20 -94 90 -141 43 -29
55 -33 102 -29 90 7 147 65 147 152 0 63 -20 95 -85 139 -56 38 -121 44 -172
16z"/>
<path d="M1068 5808 c-78 -21 -126 -119 -98 -202 23 -71 116 -118 188 -95 152
48 149 256 -3 298 -22 6 -42 10 -45 10 -3 -1 -22 -6 -42 -11z"/>
<path d="M2445 5796 c-118 -53 -126 -219 -13 -277 92 -47 192 -17 230 69 38
86 1 172 -90 206 -51 19 -87 20 -127 2z"/>
<path d="M1982 5774 c-69 -35 -110 -141 -78 -203 23 -44 91 -91 133 -91 79 0
152 60 160 132 13 118 -114 213 -215 162z"/>
<path d="M1474 5681 c-96 -58 -109 -169 -29 -240 47 -41 95 -49 153 -25 60 25
92 71 92 133 0 114 -122 189 -216 132z"/>
<path d="M2802 5534 c-107 -55 -115 -191 -14 -259 70 -48 181 -25 217 45 33
64 10 161 -48 202 -39 28 -112 34 -155 12z"/>
<path d="M3335 5481 c-72 -18 -120 -68 -130 -136 -14 -89 53 -165 147 -165
119 0 195 102 150 202 -19 44 -72 98 -97 98 -7 0 -19 2 -27 4 -7 2 -26 1 -43
-3z"/>
<path d="M2260 5372 c-43 -23 -80 -85 -80 -133 0 -68 79 -149 147 -149 75 0
146 56 159 127 9 45 -20 118 -58 146 -39 29 -123 34 -168 9z"/>
<path d="M1795 5351 c-53 -33 -69 -58 -72 -119 -3 -44 0 -64 16 -89 100 -160
351 -19 262 147 -39 75 -137 104 -206 61z"/>
<path d="M1339 5281 c-100 -32 -142 -148 -84 -233 63 -93 219 -82 262 19 22
53 20 118 -4 151 -35 48 -121 79 -174 63z"/>
<path d="M2612 5123 c-45 -22 -74 -67 -80 -123 -5 -52 10 -90 52 -129 36 -34
118 -40 164 -12 68 43 91 132 55 208 -31 67 -118 92 -191 56z"/>
<path d="M3082 5050 c-22 -14 -42 -39 -59 -76 -23 -51 -24 -60 -13 -96 15 -51
47 -83 98 -99 130 -38 244 92 184 211 -37 75 -138 104 -210 60z"/>
<path d="M2104 4951 c-55 -25 -84 -64 -84 -113 0 -79 60 -153 132 -164 46 -7
116 31 140 76 65 124 -62 260 -188 201z"/>
<path d="M1653 4934 c-38 -19 -56 -45 -74 -102 -10 -35 -9 -48 5 -87 24 -62
73 -95 141 -95 95 0 160 65 152 153 -5 60 -30 95 -87 125 -52 26 -93 28 -137
6z"/>
<path d="M1194 4841 c-59 -27 -87 -70 -88 -137 -1 -89 56 -146 146 -148 91 -1
148 57 148 150 0 61 -29 107 -84 133 -52 26 -69 26 -122 2z"/>
<path d="M2475 4700 c-72 -29 -109 -148 -66 -213 55 -85 165 -95 237 -23 60
60 55 157 -11 215 -31 26 -43 31 -88 30 -29 0 -61 -4 -72 -9z"/>
<path d="M2931 4633 c-38 -19 -78 -73 -87 -119 -9 -45 26 -118 68 -144 74 -45
144 -35 202 31 32 34 36 45 36 93 0 118 -114 191 -219 139z"/>
<path d="M1994 4530 c-38 -15 -82 -77 -89 -124 -9 -55 13 -99 65 -134 66 -44
128 -41 185 9 104 91 37 261 -102 258 -21 0 -47 -4 -59 -9z"/>
<path d="M1540 4481 c-102 -53 -105 -172 -7 -245 68 -51 183 -10 208 73 38
127 -86 234 -201 172z"/>
<path d="M2370 4255 c-111 -50 -129 -159 -40 -239 35 -32 46 -36 93 -36 95 0
162 65 154 149 -11 102 -116 166 -207 126z"/>
<path d="M2815 4191 c-55 -34 -69 -57 -73 -124 -4 -74 17 -115 71 -140 69 -33
140 -16 195 47 38 43 43 99 14 156 -37 74 -138 104 -207 61z"/>
<path d="M1889 4077 c-124 -82 -67 -277 80 -277 154 0 209 201 75 277 -51 30
-111 30 -155 0z"/>
<path d="M1460 4047 c-71 -47 -93 -142 -51 -211 28 -45 100 -81 144 -72 74 15
137 90 137 163 0 109 -139 182 -230 120z"/>
<path d="M2282 3820 c-93 -57 -106 -183 -24 -250 101 -83 255 -14 255 115 0
118 -132 195 -231 135z"/>
<path d="M2739 3737 c-94 -63 -92 -215 4 -260 107 -51 226 23 227 141 0 52
-20 90 -64 120 -45 30 -121 30 -167 -1z"/>
<path d="M1852 3644 c-54 -27 -77 -70 -77 -139 0 -70 24 -113 79 -139 133 -63
265 72 201 207 -10 21 -31 47 -48 59 -39 28 -112 34 -155 12z"/>
<path d="M2264 3370 c-141 -70 -88 -283 71 -283 163 0 210 216 61 284 -53 24
-82 24 -132 -1z"/>
<path d="M2745 3306 c-43 -18 -93 -79 -101 -121 -9 -50 19 -119 63 -152 46
-35 127 -39 170 -7 38 28 84 119 77 153 -11 48 -52 98 -96 120 -51 24 -71 25
-113 7z"/>
<path d="M1839 3187 c-76 -51 -102 -144 -60 -213 21 -35 93 -74 135 -74 63 0
139 71 151 139 9 56 -26 127 -75 153 -48 25 -109 23 -151 -5z"/>
</g>
</svg>
